<?xml version="1.0" encoding="UTF-8" standalone="no"?>
<svg
   xmlns:dc="http://purl.org/dc/elements/1.1/"
   xmlns:cc="http://creativecommons.org/ns#"
   xmlns:rdf="http://www.w3.org/1999/02/22-rdf-syntax-ns#"
   xmlns:svg="http://www.w3.org/2000/svg"
   xmlns="http://www.w3.org/2000/svg"
   xmlns:sodipodi="http://sodipodi.sourceforge.net/DTD/sodipodi-0.dtd"
   xmlns:inkscape="http://www.inkscape.org/namespaces/inkscape"
   width="32"
   height="32"
   version="1.1"
   id="svg12"
   sodipodi:docname="amarok.svg"
   inkscape:version="0.92.5 (2060ec1f9f, 2020-04-08)">
  <metadata
     id="metadata18">
    <rdf:RDF>
      <cc:Work
         rdf:about="">
        <dc:format>image/svg+xml</dc:format>
        <dc:type
           rdf:resource="http://purl.org/dc/dcmitype/StillImage" />
      </cc:Work>
    </rdf:RDF>
  </metadata>
<style
     id="current-color-scheme" >
      .ColorScheme-Text{color:rgb(255,248,247);} .ColorScheme-Background{color:rgb(3,27,22);} .ColorScheme-Highlight{color:rgb(229,27,66);} .ColorScheme-ViewText{color:rgb(250,233,232);} .ColorScheme-ViewBackground{color:rgb(1,13,10);} .ColorScheme-ViewHover{color:rgb(148,34,40);} .ColorScheme-ViewFocus{color:rgb(201,30,60);} .ColorScheme-ButtonText{color:rgb(233,245,243);} .ColorScheme-ButtonBackground{color:rgb(28,4,8);} .ColorScheme-ButtonHover{color:rgb(148,34,40);} .ColorScheme-ButtonFocus{color:rgb(201,30,60);}
  </style>
  <defs
     id="defs16" />
  <sodipodi:namedview
     pagecolor="#ffffff"
     bordercolor="#666666"
     borderopacity="1"
     objecttolerance="10"
     gridtolerance="10"
     guidetolerance="10"
     inkscape:pageopacity="0"
     inkscape:pageshadow="2"
     inkscape:window-width="795"
     inkscape:window-height="480"
     id="namedview14"
     showgrid="false"
     showguides="false"
     inkscape:guide-bbox="true"
     inkscape:zoom="10.429825"
     inkscape:cx="10.614569"
     inkscape:cy="24.006633"
     inkscape:window-x="1661"
     inkscape:window-y="492"
     inkscape:window-maximized="0"
     inkscape:current-layer="22-22-amarok">
    <sodipodi:guide
       position="20.694508,4.626949"
       orientation="0,1"
       id="guide828"
       inkscape:locked="false" />
  </sodipodi:namedview>
  <g
     id="22-22-amarok"
     transform="translate(32)">
    <rect
       style="opacity:0.001"
       width="22"
       height="22"
       x="0"
       y="10"
       id="rect2" />
    <path
       style="fill:currentColor;stroke-width:0.68450642"
       d="m 16.189463,13.000223 -1.049483,0.675553 -0.385769,0.644718 -1.509752,1.321483 -1.662454,1.654062 -1.950168,-0.04171 -1.7124445,2.351155 -1.227478,0.678272 -1.068023,0.852597 -2.552351,1.356867 1.953046,0.743765 -0.912917,1.87079 3.489379,3.891451 h 6.1920925 l 1.194426,-7.264859 1.313531,-1.501654 1.023485,-0.70142 0.601322,-0.965284 -0.07999,-0.722099 -1.004032,0.565521 -1.343611,-0.125672 1.386393,-3.294187 z m -4.937269,5.490758 -0.372549,0.693117 -1.6676005,1.302915 0.8101765,-1.677843 z"
       id="path9-3"
       inkscape:connector-curvature="0"
       sodipodi:nodetypes="cccccccccccccccccccccccccccc"
       class="ColorScheme-Text" />
  </g>
  <g
     id="amarok">
    <rect
       style="opacity:0.001"
       width="32"
       height="32"
       x="0"
       y="0"
       id="rect7" />
    <path
       style="fill:currentColor"
       d="M 24.195312,4 22.662115,4.9869201 22.098542,5.9287939 19.892936,7.8593571 17.464245,10.275788 14.615231,10.214848 12.11351,13.649666 10.320279,14.640559 8.7599973,15.886123 5.03125,17.868379 7.8844676,18.95495 6.5507812,21.688 11.648438,27.373047 h 9.04607 l 1.744945,-10.613281 1.918946,-2.193777 1.495216,-1.024708 0.878476,-1.41019 -0.116857,-1.054919 -1.466796,0.826172 -1.962891,-0.183594 2.025391,-4.8125 z m -7.21289,8.021486 -0.544259,1.01258 -2.43621,1.903436 1.183594,-2.451172 z"
       id="path9"
       inkscape:connector-curvature="0"
       sodipodi:nodetypes="cccccccccccccccccccccccccccc"
       class="ColorScheme-Text" />
  </g>
</svg>
