<?xml version="1.0" encoding="UTF-8" standalone="no"?>
<svg
   xmlns:dc="http://purl.org/dc/elements/1.1/"
   xmlns:cc="http://creativecommons.org/ns#"
   xmlns:rdf="http://www.w3.org/1999/02/22-rdf-syntax-ns#"
   xmlns:svg="http://www.w3.org/2000/svg"
   xmlns="http://www.w3.org/2000/svg"
   xmlns:sodipodi="http://sodipodi.sourceforge.net/DTD/sodipodi-0.dtd"
   xmlns:inkscape="http://www.inkscape.org/namespaces/inkscape"
   width="32"
   height="32"
   version="1.1"
   id="svg14"
   sodipodi:docname="audacious.svg"
   inkscape:version="0.92.5 (2060ec1f9f, 2020-04-08)">
<style
     id="current-color-scheme" >
      .ColorScheme-Text{color:rgb(255,248,247);} .ColorScheme-Background{color:rgb(3,27,22);} .ColorScheme-Highlight{color:rgb(229,27,66);} .ColorScheme-ViewText{color:rgb(250,233,232);} .ColorScheme-ViewBackground{color:rgb(1,13,10);} .ColorScheme-ViewHover{color:rgb(148,34,40);} .ColorScheme-ViewFocus{color:rgb(201,30,60);} .ColorScheme-ButtonText{color:rgb(233,245,243);} .ColorScheme-ButtonBackground{color:rgb(28,4,8);} .ColorScheme-ButtonHover{color:rgb(148,34,40);} .ColorScheme-ButtonFocus{color:rgb(201,30,60);}
  </style>
  <metadata
     id="metadata20">
    <rdf:RDF>
      <cc:Work
         rdf:about="">
        <dc:format>image/svg+xml</dc:format>
        <dc:type
           rdf:resource="http://purl.org/dc/dcmitype/StillImage" />
      </cc:Work>
    </rdf:RDF>
  </metadata>
  <defs
     id="defs18" />
  <sodipodi:namedview
     pagecolor="#ffffff"
     bordercolor="#666666"
     borderopacity="1"
     objecttolerance="10"
     gridtolerance="10"
     guidetolerance="10"
     inkscape:pageopacity="0"
     inkscape:pageshadow="2"
     inkscape:window-width="3440"
     inkscape:window-height="1298"
     id="namedview16"
     showgrid="false"
     inkscape:zoom="29.5"
     inkscape:cx="33.413201"
     inkscape:cy="14.852747"
     inkscape:window-x="0"
     inkscape:window-y="0"
     inkscape:window-maximized="1"
     inkscape:current-layer="22-22-audacious" />
  <g
     id="22-22-audacious"
     transform="translate(27,5.0000005)">
    <rect
       style="opacity:0.001"
       width="22"
       height="22"
       x="5"
       y="5"
       id="rect2" />
    <g
       transform="translate(0,-288.53332)"
       id="g6" />
    <path
       inkscape:connector-curvature="0"
       style="fill:currentColor;stroke-width:1.14285719"
       d="M 16,8.0000002 8.979166,15.020834 v 1.958333 L 16,24 23.020834,16.979167 v -1.958333 z m -1.242187,4.2812498 3.015624,0.311198 1.540365,2.583334 -0.203125,3.032552 -0.704427,1.523437 -0.657552,-0.423177 -0.928385,0.636719 -1.970052,0.05469 -2.069011,-1.731771 1.046875,-3.251301 2.389323,-0.216146 -0.213542,-0.873698 -2.1875,0.10677 -0.3125,-1.341146 z M 16,16.666667 15.415365,17.251303 v 0.164062 L 16,18.000001 16.584635,17.415365 v -0.164062 z"
       id="pathrot-3-6-3"
       class="ColorScheme-Text" />
  </g>
  <g
     id="audacious">
    <rect
       style="opacity:0.001"
       width="32"
       height="32"
       x="0"
       y="0"
       id="rect9" />
    <path
       style="fill:currentColor;stroke-width:1.71428573"
       d="M 16,4 5.46875,14.53125 v 2.9375 L 16,28 26.53125,17.46875 v -2.9375 z m -1.863281,6.421875 4.523437,0.466797 2.310547,3.875 -0.304687,4.548828 -1.056641,2.285156 -0.986328,-0.634765 -1.392578,0.955078 L 14.275391,22 l -3.103516,-2.597656 1.570313,-4.876953 3.583984,-0.324219 -0.320313,-1.310547 -3.28125,0.160156 -0.46875,-2.011719 z M 16,17 15.123047,17.876953 v 0.246094 L 16,19 16.876953,18.123047 v -0.246094 z"
       id="pathrot-3-6"
       class="ColorScheme-Text"
       inkscape:connector-curvature="0" />
  </g>
</svg>
