<?xml version="1.0" encoding="UTF-8" standalone="no"?>
<svg
   xmlns:dc="http://purl.org/dc/elements/1.1/"
   xmlns:cc="http://creativecommons.org/ns#"
   xmlns:rdf="http://www.w3.org/1999/02/22-rdf-syntax-ns#"
   xmlns:svg="http://www.w3.org/2000/svg"
   xmlns="http://www.w3.org/2000/svg"
   xmlns:sodipodi="http://sodipodi.sourceforge.net/DTD/sodipodi-0.dtd"
   xmlns:inkscape="http://www.inkscape.org/namespaces/inkscape"
   width="32"
   height="32"
   version="1.1"
   id="svg58"
   sodipodi:docname="audio.svg"
   inkscape:version="0.92.5 (2060ec1f9f, 2020-04-08)">
<style
     id="current-color-scheme" >
      .ColorScheme-Text{color:rgb(255,248,247);} .ColorScheme-Background{color:rgb(3,27,22);} .ColorScheme-Highlight{color:rgb(229,27,66);} .ColorScheme-ViewText{color:rgb(250,233,232);} .ColorScheme-ViewBackground{color:rgb(1,13,10);} .ColorScheme-ViewHover{color:rgb(148,34,40);} .ColorScheme-ViewFocus{color:rgb(201,30,60);} .ColorScheme-ButtonText{color:rgb(233,245,243);} .ColorScheme-ButtonBackground{color:rgb(28,4,8);} .ColorScheme-ButtonHover{color:rgb(148,34,40);} .ColorScheme-ButtonFocus{color:rgb(201,30,60);}
  </style>
  <metadata
     id="metadata64">
    <rdf:RDF>
      <cc:Work
         rdf:about="">
        <dc:format>image/svg+xml</dc:format>
        <dc:type
           rdf:resource="http://purl.org/dc/dcmitype/StillImage" />
      </cc:Work>
    </rdf:RDF>
  </metadata>
  <defs
     id="defs62" />
  <sodipodi:namedview
     pagecolor="#ffffff"
     bordercolor="#666666"
     borderopacity="1"
     objecttolerance="10"
     gridtolerance="10"
     guidetolerance="10"
     inkscape:pageopacity="0"
     inkscape:pageshadow="2"
     inkscape:window-width="3440"
     inkscape:window-height="1298"
     id="namedview60"
     showgrid="false"
     showguides="false"
     inkscape:guide-bbox="true"
     inkscape:snap-midpoints="true"
     inkscape:snap-object-midpoints="true"
     inkscape:snap-bbox="true"
     inkscape:bbox-nodes="false"
     inkscape:snap-smooth-nodes="false"
     inkscape:zoom="4"
     inkscape:cx="-12.615894"
     inkscape:cy="17.386449"
     inkscape:window-x="0"
     inkscape:window-y="0"
     inkscape:window-maximized="1"
     inkscape:current-layer="22-22-audio-volume-high"
     inkscape:snap-center="true"
     inkscape:object-nodes="true">
    <sodipodi:guide
       position="-35.392765,-35.413639"
       orientation="1,0"
       id="guide895"
       inkscape:locked="false" />
    <sodipodi:guide
       position="-35.392765,-47.237857"
       orientation="0,1"
       id="guide897"
       inkscape:locked="false" />
    <sodipodi:guide
       position="-35.392765,-35.413639"
       orientation="0,1"
       id="guide899"
       inkscape:locked="false" />
    <sodipodi:guide
       position="-35.392765,-41.325748"
       orientation="0,1"
       id="guide901"
       inkscape:locked="false" />
    <sodipodi:guide
       position="-35.392765,-32.384342"
       orientation="0,1"
       id="guide905"
       inkscape:locked="false" />
    <sodipodi:guide
       position="-35.392765,-50.257389"
       orientation="0,1"
       id="guide907"
       inkscape:locked="false" />
    <sodipodi:guide
       position="-35.392765,-53.273014"
       orientation="0,1"
       id="guide909"
       inkscape:locked="false" />
    <sodipodi:guide
       position="-35.392765,-29.37067"
       orientation="0,1"
       id="guide911"
       inkscape:locked="false" />
    <sodipodi:guide
       position="-30.423729,-41.325748"
       orientation="1,0"
       id="guide925"
       inkscape:locked="false" />
    <sodipodi:guide
       position="-27.392765,-41.323795"
       orientation="1,0"
       id="guide927"
       inkscape:locked="false" />
    <sodipodi:guide
       position="-36.335838,-41.325745"
       orientation="1,0"
       id="guide940"
       inkscape:locked="false" />
    <sodipodi:guide
       position="-24.392765,-41.323795"
       orientation="1,0"
       id="guide943"
       inkscape:locked="false" />
    <sodipodi:guide
       position="38.173796,-75.90748"
       orientation="1,0"
       id="guide963"
       inkscape:locked="false" />
    <sodipodi:guide
       position="23.173796,-82.86058"
       orientation="0,1"
       id="guide988"
       inkscape:locked="false" />
    <sodipodi:guide
       position="35.173796,-99.86058"
       orientation="-0.68231825,-0.73105527"
       id="guide990"
       inkscape:locked="false" />
    <sodipodi:guide
       position="35.173796,-99.86058"
       orientation="1,0"
       id="guide992"
       inkscape:locked="false" />
    <sodipodi:guide
       position="23.173796,-92.86058"
       orientation="0,1"
       id="guide994"
       inkscape:locked="false" />
    <sodipodi:guide
       position="23.173796,-92.86058"
       orientation="1,0"
       id="guide996"
       inkscape:locked="false" />
    <sodipodi:guide
       position="35.173796,-75.86058"
       orientation="0.68231825,-0.73105527"
       id="guide998"
       inkscape:locked="false" />
    <sodipodi:guide
       position="2,46"
       orientation="0,1"
       id="guide1113"
       inkscape:locked="false" />
    <sodipodi:guide
       position="12,35"
       orientation="1,0"
       id="guide1115"
       inkscape:locked="false" />
    <sodipodi:guide
       position="10,51"
       orientation="0.70710678,-0.70710678"
       id="guide1117"
       inkscape:locked="false" />
    <sodipodi:guide
       position="10,51"
       orientation="1,0"
       id="guide1119"
       inkscape:locked="false" />
    <sodipodi:guide
       position="10,35"
       orientation="-0.70710678,-0.70710678"
       id="guide1121"
       inkscape:locked="false" />
    <sodipodi:guide
       position="8.92305,36.07695"
       orientation="-0.32200654,-0.94673745"
       id="guide1123"
       inkscape:locked="false" />
  </sodipodi:namedview>
  <g
     id="22-22-audio-volume-muted"
     transform="translate(-325.0004,397)">
    <path
       style="opacity:0.001"
       d="m 325.0004,-419 h 22 c 0,0 0,0 0,0 v 22 c 0,0 0,0 0,0 h -22 c 0,0 0,0 0,0 v -22 c 0,0 0,0 0,0 z"
       id="path2" />
    <path
       inkscape:connector-curvature="0"
       style="opacity:0.3;fill:currentColor;stroke-width:0.60000002"
       d="m 337.5486,-415.86614 v 1.99192 l 5.15713,5.15584 v 1.43804 l -5.15713,5.15585 v 1.99063 l 6.9036,-6.9036 v -1.92508 z m -3.07695,0.94309 L 330.5486,-411 h -1.92304 l -1.07696,1.07695 v 3.8461 L 328.62556,-405 h 1.92304 l 3.92305,3.92305 1.07695,-1.07696 v -11.69219 z m 3.07695,3.03559 v 7.77619 l 3.41324,-3.41195 v -0.95228 z"
       id="path36-6-6"
       class="ColorScheme-Text"
       inkscape:transform-center-x="-7.647655"
       sodipodi:nodetypes="ccccccccccccccccccccccccc" />
  </g>
  <g
     id="22-22-audio-volume-low"
     transform="translate(-293.0004,397)">
    <path
       style="opacity:0.001"
       d="m 325.0004,-419 h 22 c 0,0 0,0 0,0 v 22 c 0,0 0,0 0,0 h -22 c 0,0 0,0 0,0 v -22 c 0,0 0,0 0,0 z"
       id="path7" />
    <path
       style="opacity:0.3;fill:currentColor"
       d="m 337.54825,-415.86523 v 1.99023 l 5.15625,5.15625 v 1.4375 l -5.15625,5.15625 v 1.99023 l 6.9043,-6.90234 v -1.92578 z m 0,3.97851 v 7.77539 l 3.41406,-3.41211 v -0.95117 z"
       id="path1146"
       inkscape:connector-curvature="0"
       class="ColorScheme-Text" />
    <path
       style="fill:currentColor"
       d="M 334.4713,-414.92305 330.54825,-411 h -1.92304 l -1.07696,1.07695 v 3.8461 L 328.62521,-405 h 1.92304 l 3.92305,3.92305 1.07695,-1.07696 v -11.69219 z"
       id="path1144"
       inkscape:connector-curvature="0"
       class="ColorScheme-Text" />
  </g>
  <g
     id="22-22-audio-volume-medium"
     transform="translate(-261.0004,397)">
    <path
       style="opacity:0.001"
       d="m 325.0004,-419 h 22 c 0,0 0,0 0,0 v 22 c 0,0 0,0 0,0 h -22 c 0,0 0,0 0,0 v -22 c 0,0 0,0 0,0 z"
       id="path16" />
    <path
       style="opacity:0.3;fill:currentColor"
       d="m 337.54825,-415.86522 v 1.99022 l 5.15625,5.15625 v 1.4375 l -5.15625,5.15625 v 1.99023 l 6.9043,-6.90233 v -1.92578 z"
       id="path1179"
       class="ColorScheme-Text"
       inkscape:connector-curvature="0" />
    <path
       style="fill:currentColor"
       d="M 334.47208,-414.92383 330.54825,-411 h -1.92383 l -1.07617,1.07617 v 3.84766 L 328.62442,-405 h 1.92383 l 3.92383,3.92383 1.07617,-1.07813 v -11.6914 z m 3.07617,3.03711 v 7.77539 l 3.41406,-3.41211 v -0.95117 z"
       id="path1146-9"
       inkscape:connector-curvature="0"
       class="ColorScheme-Text" />
  </g>
  <g
     id="22-22-audio-volume-high"
     transform="translate(-229.0004,397)">
    <path
       style="opacity:0.001"
       d="m 325.0004,-419 h 22 c 0,0 0,0 0,0 v 22 c 0,0 0,0 0,0 h -22 c 0,0 0,0 0,0 v -22 c 0,0 0,0 0,0 z"
       id="path25" />
    <path
       inkscape:connector-curvature="0"
       style="fill:currentColor"
       d="m 337.5486,-415.86613 v 1.99192 l 5.15713,5.15584 v 1.43804 l -5.15713,5.15585 v 1.99063 l 6.9036,-6.9036 v -1.92508 z m -3.07695,0.94309 L 330.5486,-411 h -1.92304 l -1.07696,1.07696 v 3.84609 L 328.62556,-405 h 1.92304 l 3.92305,3.92305 1.07695,-1.07695 v -11.69219 z m 3.07695,3.03559 v 7.77619 l 3.41324,-3.41195 v -0.95228 z"
       id="path36-6-6-2"
       class="ColorScheme-Text"
       inkscape:transform-center-x="-7.647655"
       sodipodi:nodetypes="ccccccccccccccccccccccccc" />
  </g>
  <g
     id="audio-volume-muted">
    <path
       style="opacity:0.001"
       d="M -6.8179997e-7,-4.5e-6 H 32 c 0,0 0,0 0,0 V 31.999996 c 0,0 0,0 0,0 H -6.8179997e-7 c 0,0 0,0 0,0 V -4.5e-6 c 0,0 0,0 0,0 z"
       id="path34" />
    <path
       inkscape:connector-curvature="0"
       style="opacity:0.3;fill:currentColor"
       d="m 18.253906,4.04492 v 3.02734 l 7.83789,7.83594 v 2.18555 l -7.83789,7.83594 v 3.02539 L 28.746093,17.46289 V 14.53711 Z M 13.458984,5.67383 7.7539063,11 H 5.048828 l -1.794922,1.79492 v 6.41016 L 5.048828,21 h 2.7050783 l 5.7050777,5.32422 1.794922,-1.79493 V 7.46875 Z m 4.794922,4.41796 v 11.81836 l 5.1875,-5.18554 v -1.44727 z"
       id="path36-6"
       class="ColorScheme-Text" />
  </g>
  <g
     id="audio-volume-low"
     transform="translate(32.000001)">
    <path
       style="opacity:0.001"
       d="M -6.8179997e-7,-4.5e-6 H 32 c 0,0 0,0 0,0 V 31.999996 c 0,0 0,0 0,0 H -6.8179997e-7 c 0,0 0,0 0,0 V -4.5e-6 c 0,0 0,0 0,0 z"
       id="path39" />
    <path
       style="opacity:0.3;fill:currentColor"
       d="m 18.253905,4.0449219 v 3.0273437 l 7.837891,7.8359374 v 2.185547 l -7.837891,7.835938 v 3.02539 L 28.746093,17.462891 v -2.925782 z m 0,6.0468751 v 11.818359 l 5.1875,-5.185547 v -1.447265 z"
       id="path1050"
       class="ColorScheme-Text"
       inkscape:connector-curvature="0" />
    <path
       style="fill:currentColor"
       d="M 13.458984,5.67383 7.7539062,11 h -2.705078 l -1.794922,1.79492 v 6.41016 L 5.0488282,21 h 2.705078 l 5.7050778,5.32422 1.794922,-1.79493 V 7.46875 Z"
       id="path1048"
       inkscape:connector-curvature="0"
       class="ColorScheme-Text" />
  </g>
  <g
     id="audio-volume-medium"
     transform="translate(64.000002)">
    <path
       style="opacity:0.001"
       d="M -6.8179997e-7,-4.5e-6 H 32 c 0,0 0,0 0,0 V 31.999996 c 0,0 0,0 0,0 H -6.8179997e-7 c 0,0 0,0 0,0 V -4.5e-6 c 0,0 0,0 0,0 z"
       id="path46" />
    <path
       style="opacity:0.3;fill:currentColor"
       d="m 18.253906,4.0449197 v 3.02734 l 7.83789,7.8359403 v 2.18555 l -7.83789,7.83594 v 3.02539 L 28.746093,17.46289 v -2.92578 z"
       id="path1071"
       class="ColorScheme-Text"
       inkscape:connector-curvature="0" />
    <path
       style="fill:currentColor"
       d="M 13.458984,5.6738281 7.7539062,11 h -2.705078 l -1.794922,1.794922 v 6.410156 L 5.0488282,21 h 2.705078 l 5.7050778,5.324219 1.794922,-1.794922 V 7.46875 Z m 4.794922,4.4179689 v 11.818359 l 5.1875,-5.185547 v -1.447265 z"
       id="path1069"
       inkscape:connector-curvature="0"
       class="ColorScheme-Text" />
  </g>
  <g
     id="audio-volume-high"
     transform="translate(96.000003)">
    <path
       style="opacity:0.001"
       d="M -6.8179997e-7,-4.5e-6 H 32 c 0,0 0,0 0,0 V 31.999996 c 0,0 0,0 0,0 H -6.8179997e-7 c 0,0 0,0 0,0 V -4.5e-6 c 0,0 0,0 0,0 z"
       id="path53" />
    <path
       inkscape:connector-curvature="0"
       style="fill:currentColor"
       d="m 18.253906,4.0449198 v 3.02734 l 7.83789,7.8359402 v 2.18555 l -7.83789,7.83594 v 3.02539 L 28.746093,17.46289 V 14.53711 Z M 13.458984,5.6738298 7.7539062,11 h -2.705078 l -1.794922,1.79492 v 6.41016 L 5.0488282,21 h 2.705078 l 5.7050778,5.32422 1.794922,-1.79493 V 7.4687498 Z m 4.794922,4.4179602 v 11.81836 l 5.1875,-5.18554 v -1.44727 z"
       id="path36-6-3"
       class="ColorScheme-Text" />
  </g>
</svg>
