<?xml version="1.0" encoding="UTF-8" standalone="no"?>
<svg
   xmlns:dc="http://purl.org/dc/elements/1.1/"
   xmlns:cc="http://creativecommons.org/ns#"
   xmlns:rdf="http://www.w3.org/1999/02/22-rdf-syntax-ns#"
   xmlns:svg="http://www.w3.org/2000/svg"
   xmlns="http://www.w3.org/2000/svg"
   xmlns:sodipodi="http://sodipodi.sourceforge.net/DTD/sodipodi-0.dtd"
   xmlns:inkscape="http://www.inkscape.org/namespaces/inkscape"
   width="32"
   height="32"
   version="1.1"
   id="svg52"
   sodipodi:docname="go.svg"
   inkscape:version="0.92.5 (2060ec1f9f, 2020-04-08)">
          <style
     id="current-color-scheme" >
      .ColorScheme-Text{color:rgb(255,248,247);} .ColorScheme-Background{color:rgb(3,27,22);} .ColorScheme-Highlight{color:rgb(229,27,66);} .ColorScheme-ViewText{color:rgb(250,233,232);} .ColorScheme-ViewBackground{color:rgb(1,13,10);} .ColorScheme-ViewHover{color:rgb(148,34,40);} .ColorScheme-ViewFocus{color:rgb(201,30,60);} .ColorScheme-ButtonText{color:rgb(233,245,243);} .ColorScheme-ButtonBackground{color:rgb(28,4,8);} .ColorScheme-ButtonHover{color:rgb(148,34,40);} .ColorScheme-ButtonFocus{color:rgb(201,30,60);}
  </style>
  <metadata
     id="metadata58">
    <rdf:RDF>
      <cc:Work
         rdf:about="">
        <dc:format>image/svg+xml</dc:format>
        <dc:type
           rdf:resource="http://purl.org/dc/dcmitype/StillImage" />
      </cc:Work>
    </rdf:RDF>
  </metadata>
  <defs
     id="defs56" />
  <sodipodi:namedview
     pagecolor="#ffffff"
     bordercolor="#666666"
     borderopacity="1"
     objecttolerance="10"
     gridtolerance="10"
     guidetolerance="10"
     inkscape:pageopacity="0"
     inkscape:pageshadow="2"
     inkscape:window-width="1720"
     inkscape:window-height="1298"
     id="namedview54"
     showgrid="false"
     inkscape:zoom="5.2149125"
     inkscape:cx="78.921541"
     inkscape:cy="15.666929"
     inkscape:window-x="0"
     inkscape:window-y="0"
     inkscape:window-maximized="0"
     inkscape:current-layer="svg52"
     showguides="true"
     inkscape:guide-bbox="true" />
  <g
     id="22-22-go-home"
     transform="translate(-465.0004,83.003354)">
    <path
       style="fill:none"
       d="m 465.0004,-105.00336 h 22 v 22.000003 h -22 z"
       id="path2" />
    <path
       style="fill:currentColor"
       class="ColorScheme-ViewText"
       d="m 476.00081,-102.00336 -8.00041,8.00034 h 2.0017 l -10e-4,7.99969 h 4.66668 v -3.281253 l 0.71745,-0.718755 h 1.94922 v 3.28256 l -0.71745,0.717448 h 3.94792 l 1.43621,-1.434896 v -6.564794 h 1.99961 z"
       id="path1042-2"
       inkscape:connector-curvature="0"
       sodipodi:nodetypes="ccccccccccccccc" />
  </g>
  <g
     id="22-22-go-up"
     transform="translate(-457.0004,83.003357)">
    <path
       style="fill:none"
       d="m 489.0004,-105.00336 v 22 h 22 v -22 z"
       id="path7" />
    <path
       style="fill:currentColor;enable-background:new"
       d="m 499.5004,-102.00336 -6.62452,6.618967 v 1.978465 l 0.96701,0.967 4.23479,-4.234804 v 9.247655 l 1.42272,1.422716 1.42272,-1.422716 v -9.247655 l 4.2348,4.234804 0.967,-0.967 v -1.978465 z"
       id="path183-5"
       inkscape:connector-curvature="0"
       class="ColorScheme-ViewText"
       sodipodi:nodetypes="ccccccccccccc" />
  </g>
  <g
     id="22-22-go-down"
     transform="matrix(1,0,0,-1,-425.0004,-105.00336)">
    <path
       style="fill:none"
       d="m 489.0004,-105.00336 v 22 h 22 v -22 z"
       id="path12" />
    <path
       style="fill:currentColor"
       d="m 499.5004,-102.00336 -6.62452,6.61897 v 1.97846 l 0.96701,0.967 4.23479,-4.2348 v 9.247648 l 1.42272,1.42272 1.42272,-1.42272 v -9.247648 l 4.2348,4.2348 0.967,-0.967 v -1.97846 z"
       id="path183-5-6"
       inkscape:connector-curvature="0"
       class="ColorScheme-ViewText"
       sodipodi:nodetypes="ccccccccccccc" />
  </g>
  <g
     id="22-22-go-previous"
     transform="translate(-441.0004,83.003357)">
    <path
       style="fill:none"
       d="m 537.0004,-105.00336 h 22 v 22 h -22 z"
       id="path17" />
    <path
       style="fill:currentColor"
       d="m 540.0004,-94.50336 6.61897,-6.62452 h 1.97846 l 0.967,0.96701 -4.2348,4.23479 h 9.24765 l 1.42272,1.42272 -1.42272,1.42272 h -9.24765 l 4.2348,4.2348 -0.967,0.967 h -1.97846 z"
       id="path183-5-6-2"
       inkscape:connector-curvature="0"
       class="ColorScheme-ViewText"
       sodipodi:nodetypes="ccccccccccccc" />
  </g>
  <g
     id="22-22-go-next"
     transform="matrix(-1,0,0,1,687.0004,83.003357)">
    <path
       style="fill:none"
       d="m 537.0004,-105.00336 h 22 v 22 h -22 z"
       id="path22" />
    <path
       style="fill:currentColor"
       d="m 540.0004,-94.503361 6.61897,-6.624519 h 1.97846 l 0.967,0.96701 -4.2348,4.234789 h 9.24765 l 1.42272,1.42272 -1.42272,1.42272 h -9.24765 l 4.2348,4.2348 -0.967,0.967 h -1.97846 z"
       id="path183-5-6-2-9"
       inkscape:connector-curvature="0"
       class="ColorScheme-ViewText"
       sodipodi:nodetypes="ccccccccccccc" />
  </g>
  <g
     id="go-home"
     transform="translate(3.4089999e-7,1.88644e-6)">
    <path
       style="fill:none"
       d="M -6.8179997e-7,-4.77288e-6 H 32 V 32.000001 H -6.8179997e-7 Z"
       id="path27" />
    <path
       style="fill:currentColor"
       d="M 16.000602,4.0000002 4.0000235,16.00049 H 7.0025556 L 7.0005556,28 H 14.000555 V 23.07813 L 15.076726,22 h 2.923829 v 4.92383 L 16.924383,28 h 5.921875 l 2.154297,-2.15234 v -9.84717 h 2.999421 z"
       id="path1042"
       class="ColorScheme-ViewText"
       inkscape:connector-curvature="0"
       sodipodi:nodetypes="ccccccccccccccc" />
  </g>
  <g
     id="go-up"
     transform="translate(31.999999,1.88644e-6)">
    <path
       style="fill:none"
       d="M 1.3182e-6,-4.77288e-6 V 31.999996 H 32.000002 V -4.77288e-6 Z"
       id="path32" />
    <path
       style="fill:currentColor"
       d="m 16,5.3 -9.398541,9.390657 v 2.806947 l 1.371936,1.371933 6.008126,-6.008126 v 13.12011 L 16,28 18.018479,25.981521 v -13.12011 l 6.008126,6.008126 1.371936,-1.371933 v -2.806947 z"
       id="path183"
       inkscape:connector-curvature="0"
       class="ColorScheme-ViewText"
       sodipodi:nodetypes="ccccccccccccc" />
  </g>
  <g
     id="go-down"
     transform="matrix(1,0,0,-1,64,31.999993)">
    <path
       style="fill:none"
       d="M 1.3182e-6,-4.77288e-6 V 31.999996 H 32.000002 V -4.77288e-6 Z"
       id="path37" />
    <path
       style="fill:currentColor"
       d="m 16,5.3 -9.3985409,9.390657 v 2.806947 l 1.371936,1.371933 6.0081259,-6.008126 v 13.12011 L 16,28 18.018479,25.981521 v -13.12011 l 6.008126,6.008126 1.371936,-1.371933 v -2.806947 z"
       id="path183-3"
       inkscape:connector-curvature="0"
       class="ColorScheme-ViewText"
       sodipodi:nodetypes="ccccccccccccc" />
  </g>
  <g
     id="go-previous"
     transform="matrix(0,1,1,0,96.000007,-4.22712e-6)">
    <path
       style="fill:none"
       d="M 1.3182e-6,-4.77288e-6 V 31.999996 H 32.000002 V -4.77288e-6 Z"
       id="path42" />
    <path
       style="fill:currentColor"
       d="m 16,5.3 -9.398541,9.390657 v 2.806947 l 1.371936,1.371933 6.008126,-6.008126 v 13.12011 L 16,28 18.018479,25.981521 v -13.12011 l 6.008126,6.008126 1.371936,-1.371933 v -2.806947 z"
       id="path183-3-6"
       inkscape:connector-curvature="0"
       class="ColorScheme-ViewText"
       sodipodi:nodetypes="ccccccccccccc" />
  </g>
  <g
     id="go-next"
     transform="rotate(90,80.000003,79.999999)">
    <path
       style="fill:none"
       d="M 1.3182e-6,-4.77288e-6 V 31.999996 H 32.000002 V -4.77288e-6 Z"
       id="path47" />
    <path
       style="fill:currentColor"
       d="M 16,5.2999999 6.601459,14.69066 v 2.80694 l 1.371936,1.37194 6.008126,-6.00813 V 25.98152 L 16,28 18.018479,25.98152 V 12.86141 l 6.008126,6.00813 1.371936,-1.37194 v -2.80694 z"
       id="path183-3-6-7"
       inkscape:connector-curvature="0"
       class="ColorScheme-ViewText"
       sodipodi:nodetypes="ccccccccccccc" />
  </g>
</svg>
