<?xml version="1.0" encoding="UTF-8" standalone="no"?>
<svg
   xmlns:dc="http://purl.org/dc/elements/1.1/"
   xmlns:cc="http://creativecommons.org/ns#"
   xmlns:rdf="http://www.w3.org/1999/02/22-rdf-syntax-ns#"
   xmlns:svg="http://www.w3.org/2000/svg"
   xmlns="http://www.w3.org/2000/svg"
   xmlns:sodipodi="http://sodipodi.sourceforge.net/DTD/sodipodi-0.dtd"
   xmlns:inkscape="http://www.inkscape.org/namespaces/inkscape"
   width="32"
   height="32"
   version="1.1"
   id="svg16"
   sodipodi:docname="kaffeine.svg"
   inkscape:version="0.92.5 (2060ec1f9f, 2020-04-08)">
          <style
     id="current-color-scheme" />
  <metadata
     id="metadata22">
    <rdf:RDF>
      <cc:Work
         rdf:about="">
        <dc:format>image/svg+xml</dc:format>
        <dc:type
           rdf:resource="http://purl.org/dc/dcmitype/StillImage" />
      </cc:Work>
    </rdf:RDF>
  </metadata>
  <defs
     id="defs20" />
  <sodipodi:namedview
     pagecolor="#ffffff"
     bordercolor="#666666"
     borderopacity="1"
     objecttolerance="10"
     gridtolerance="10"
     guidetolerance="10"
     inkscape:pageopacity="0"
     inkscape:pageshadow="2"
     inkscape:window-width="1720"
     inkscape:window-height="1298"
     id="namedview18"
     showgrid="false"
     showguides="false"
     inkscape:guide-bbox="true"
     inkscape:snap-smooth-nodes="true"
     inkscape:zoom="11.313709"
     inkscape:cx="36.802165"
     inkscape:cy="18.042382"
     inkscape:window-x="0"
     inkscape:window-y="0"
     inkscape:window-maximized="0"
     inkscape:current-layer="22-22-kaffeine">
    <sodipodi:guide
       position="34.000001,4.230469"
       orientation="1,0"
       id="guide1006"
       inkscape:locked="false" />
    <sodipodi:guide
       position="35.19922,3"
       orientation="0,1"
       id="guide1008"
       inkscape:locked="false" />
    <sodipodi:guide
       position="52.000001,4.230469"
       orientation="1,0"
       id="guide1010"
       inkscape:locked="false" />
  </sodipodi:namedview>
  <g
     id="22-22-kaffeine"
     transform="translate(10e-7,2)">
    <path
       style="opacity:0.001"
       d="m 32,8.0000001 h 22 c 0,0 0,0 0,0 V 30 c 0,0 0,0 0,0 H 32 c 0,0 0,0 0,0 V 8.0000001 c 0,0 0,0 0,0 z"
       id="path2" />
    <path
       inkscape:connector-curvature="0"
       style="fill:currentColor;stroke-width:0.69230771"
       d="m 36.262202,11.038486 -0.542218,0.542218 1.435998,1.517127 2.8125,-0.0014 -1.948467,-2.057993 z m 0.89378,2.059345 H 34.202857 L 34.001385,13.300655 34,26.961563 H 49.739183 L 52,24.700746 V 13.097831 h -0.717966 l -1.948468,2.059345 H 46.50484 l 1.94982,-2.059345 h -2.831431 l -1.948467,2.059345 h -2.8125 l 1.949819,-2.059345 h 2.811148 l -1.948467,-2.059345 h -2.8125 l 1.948467,2.057993 -2.843599,0.0014 -1.948468,2.057993 -2.8125,0.0014 z m 11.298678,0 h 2.827374 L 49.333566,11.038486 H 46.50484 Z m -7.500451,3.986178 5.862981,3.992939 -5.862981,3.99429 -1.769982,-1.769981 v -4.447266 z"
       id="path918-3"
       class="ColorScheme-Text" />
  </g>
  <g
     id="kaffeine">
    <path
       style="opacity:0.001"
       d="m 0,-8.5454545e-7 h 32.000001 c 0,0 0,0 0,0 V 32 c 0,0 0,0 0,0 H 0 c 0,0 0,0 0,0 V -8.5454545e-7 c 0,0 0,0 0,0 z"
       id="path7" />
    <path
       style="fill:#dedede"
       d="M 4.2638889,4.056152 C 4.0030468,4.1150032 3.795886,4.2226619 3.6319445,4.3565679 3.7966415,4.2222336 4.0025037,4.1156186 4.2638889,4.056152 Z"
       id="path11" />
    <path
       style="fill:#dedede"
       d="m 3.6319445,4.3565679 c 0,0 -0.00289,0 -0.00289,0 C 3.5469379,4.423857 3.4766196,4.4976155 3.4146442,4.5755624 3.476871,4.498268 3.5495264,4.4237352 3.6318757,4.3565679 Z"
       id="path13" />
    <path
       inkscape:connector-curvature="0"
       style="fill:currentColor"
       d="m 6.267578,4.000023 -0.783203,0.783203 2.074219,2.191407 4.0625,-0.002 -2.814453,-2.972656 z m 1.291016,2.97461 H 3.2929686 L 3.001953,7.267601 2.9999999,27.000023 H 25.734375 L 29,23.734398 V 6.974633 H 27.962891 L 25.148437,9.949242 H 21.0625 l 2.816406,-2.974609 h -4.089844 l -2.814453,2.974609 h -4.0625 l 2.816406,-2.974609 h 4.060547 l -2.814453,-2.97461 h -4.0625 l 2.814453,2.972656 -4.107421,0.002 -2.814454,2.972656 -4.0625,0.002 z m 16.320312,0 h 4.083985 L 25.148437,4.000023 H 21.0625 Z m -10.833984,5.757812 8.46875,5.767578 -8.46875,5.769531 -2.556641,-2.55664 v -6.423828 z"
       id="path918"
       class="ColorScheme-Text" />
  </g>
  <path
     style="fill:currentColor;stroke-width:1.08333337"
     d="M 6.265625 39.955078 L 6.2617188 39.958984 L 8.7773438 39.955078 L 6.265625 39.955078 z "
     id="path828-3" />
</svg>
