<?xml version="1.0" encoding="UTF-8" standalone="no"?>
<svg
   xmlns:dc="http://purl.org/dc/elements/1.1/"
   xmlns:cc="http://creativecommons.org/ns#"
   xmlns:rdf="http://www.w3.org/1999/02/22-rdf-syntax-ns#"
   xmlns:svg="http://www.w3.org/2000/svg"
   xmlns="http://www.w3.org/2000/svg"
   xmlns:sodipodi="http://sodipodi.sourceforge.net/DTD/sodipodi-0.dtd"
   xmlns:inkscape="http://www.inkscape.org/namespaces/inkscape"
   id="svg31"
   width="32"
   height="32"
   version="1"
   sodipodi:docname="kate.svg"
   inkscape:version="0.92.5 (2060ec1f9f, 2020-04-08)">
          <style
     id="current-color-scheme" >
      .ColorScheme-Text{color:rgb(255,248,247);} .ColorScheme-Background{color:rgb(3,27,22);} .ColorScheme-Highlight{color:rgb(229,27,66);} .ColorScheme-ViewText{color:rgb(250,233,232);} .ColorScheme-ViewBackground{color:rgb(1,13,10);} .ColorScheme-ViewHover{color:rgb(148,34,40);} .ColorScheme-ViewFocus{color:rgb(201,30,60);} .ColorScheme-ButtonText{color:rgb(233,245,243);} .ColorScheme-ButtonBackground{color:rgb(28,4,8);} .ColorScheme-ButtonHover{color:rgb(148,34,40);} .ColorScheme-ButtonFocus{color:rgb(201,30,60);}
  </style>
  <metadata
     id="metadata13">
    <rdf:RDF>
      <cc:Work
         rdf:about="">
        <dc:format>image/svg+xml</dc:format>
        <dc:type
           rdf:resource="http://purl.org/dc/dcmitype/StillImage" />
      </cc:Work>
    </rdf:RDF>
  </metadata>
  <defs
     id="defs11" />
  <sodipodi:namedview
     pagecolor="#ffffff"
     bordercolor="#666666"
     borderopacity="1"
     objecttolerance="10"
     gridtolerance="10"
     guidetolerance="10"
     inkscape:pageopacity="0"
     inkscape:pageshadow="2"
     inkscape:window-width="1720"
     inkscape:window-height="1298"
     id="namedview9"
     showgrid="false"
     inkscape:zoom="7.375"
     inkscape:cx="2.4645379"
     inkscape:cy="22.48095"
     inkscape:window-x="0"
     inkscape:window-y="0"
     inkscape:window-maximized="0"
     inkscape:current-layer="svg31" />
  <g
     id="kate">
    <rect
       id="rect12"
       style="opacity:0.001"
       width="32"
       height="32"
       x="0"
       y="0" />
    <path
       style="fill:currentColor"
       d="M 16,2 3.7128906,14.287109 v 3.425782 L 16,30 28.287109,17.712891 v -3.425782 z m -0.792969,6.7627733 c 0.935799,-0.030654 1.763517,0.1515404 2.404297,0.4121094 0.149002,0.055855 0.292789,0.1178321 0.423828,0.1894531 -3.582859,0.134766 -2.995308,2.0212432 -2.46289,3.0781252 2.704509,-0.789527 5.07561,-1.397192 7,-2.046875 -1.319469,1.724508 -3.51508,4.052464 -5.916016,4.359375 -2.400936,0.30691 -4.758858,-0.031 -5.289062,1.738281 -0.48827,1.629347 1.455208,3.149841 3.236328,2.783203 1.468206,-0.302227 1.552348,-1.640588 1.039062,-2.904297 -0.257848,-0.326475 -0.506448,-0.682162 -0.74414,-1.074219 0.790549,-0.04486 0.643774,-0.03471 1.984374,-0.101562 1.998237,1.685352 2.659348,2.035226 6.150391,4.49414 -2.198928,-0.155646 -4.062584,-0.564715 -5.632812,-1.648437 l 0.03516,0.103515 c 0.499853,1.241473 1.717795,4.059833 1.949219,6.246094 -1.112885,-1.582313 -1.685447,-2.163158 -3.410157,-3.304687 -1.874126,-1.240423 -3.489194,-1.477536 -4.570312,-2.832031 -0.0013,-0.0017 -0.0046,-0.0042 -0.0059,-0.0059 -0.191666,-0.240956 -0.371377,-0.505619 -0.527344,-0.830078 -0.103347,-0.214991 -0.173991,-0.420358 -0.226563,-0.623047 -0.0052,-0.01837 -0.0089,-0.03833 -0.01367,-0.05664 -0.01635,-0.06839 -0.0302,-0.134246 -0.04101,-0.201171 -0.272309,-1.442352 0.637647,-2.684227 2.919922,-3.46875 C 12.873783,11.1466 9.5297819,11.613833 8.9667669,11.571328 9.603303,11.258678 10.177951,11.002162 11.490204,10.061562 12.754187,9.1555638 14.054358,8.8004926 15.207001,8.7627343 Z"
       id="pathrot-3-6"
       inkscape:connector-curvature="0"
       sodipodi:nodetypes="cccccccsccccssscccccccscccccccccs"
       class="ColorScheme-Text" />
  </g>
  <g
     id="22-22-kate"
     transform="translate(27,5)">
    <rect
       id="rect923"
       style="opacity:0.001"
       width="22"
       height="22"
       x="5"
       y="5" />
    <path
       id="path931"
       style="fill:currentColor"
       d="m 15.211587,8.003428 c -1.147087,0.03865 -2.441108,0.602556 -3.698999,1.529931 -1.305928,0.962793 -1.8791179,1.225256 -2.512586,1.545282 0.5603014,0.04351 3.889472,-0.635617 4.52235,1.332512 -2.271275,0.803034 -3.7772105,2.073546 -3.506213,3.54993 0.01076,0.0685 0.02323,0.137804 0.0395,0.207808 0.0048,0.01874 0.01006,0.03745 0.01519,0.05625 0.05232,0.207472 0.121977,0.418985 0.224826,0.63905 0.155216,0.332113 0.334834,0.603309 0.525607,0.849984 0.0013,0.0018 0.0033,0.0029 0.0046,0.0047 1.075909,1.386455 2.885214,1.62869 4.750307,2.89838 1.716397,1.168462 2.28614,1.763099 3.393662,3.382745 -0.230309,-2.237844 -1.044391,-5.121295 -1.541836,-6.392061 l -0.03342,-0.106247 c 1.56266,1.109291 3.417136,1.327989 5.605466,1.487308 -3.474218,-2.51693 -4.133353,-2.674633 -6.121959,-4.399751 -1.33414,0.06844 -1.188086,0.0572 -1.974825,0.103123 0.236546,0.401307 0.484714,0.765799 0.741319,1.099978 0.510813,1.293524 0.426625,2.662458 -1.034504,2.971817 -1.772536,0.375288 -4.306583,-1.180591 -3.820668,-2.848381 0.527649,-1.811028 3.474488,-1.463939 5.863852,-1.77809 C 19.042621,13.823543 20.68689,11.765197 22,10 20.084884,10.665013 18.066474,10.960839 15.375,11.768992 14.845149,10.687175 14.459409,8.757001 18.025,8.619055 17.894593,8.545745 17.752495,8.482481 17.60421,8.425309 16.96652,8.158592 16.142922,7.972064 15.211633,8.003442 Z"
       inkscape:connector-curvature="0"
       class="ColorScheme-Text" />
  </g>
</svg>
