<?xml version="1.0" encoding="UTF-8" standalone="no"?>
<svg
   xmlns:dc="http://purl.org/dc/elements/1.1/"
   xmlns:cc="http://creativecommons.org/ns#"
   xmlns:rdf="http://www.w3.org/1999/02/22-rdf-syntax-ns#"
   xmlns:svg="http://www.w3.org/2000/svg"
   xmlns="http://www.w3.org/2000/svg"
   xmlns:sodipodi="http://sodipodi.sourceforge.net/DTD/sodipodi-0.dtd"
   xmlns:inkscape="http://www.inkscape.org/namespaces/inkscape"
   width="32"
   height="32"
   version="1.1"
   id="svg12"
   sodipodi:docname="kdf.svg"
   inkscape:version="0.92.5 (2060ec1f9f, 2020-04-08)">
                    <style
     id="current-color-scheme" />
  <metadata
     id="metadata18">
    <rdf:RDF>
      <cc:Work
         rdf:about="">
        <dc:format>image/svg+xml</dc:format>
        <dc:type
           rdf:resource="http://purl.org/dc/dcmitype/StillImage" />
      </cc:Work>
    </rdf:RDF>
  </metadata>
  <defs
     id="defs16" />
  <sodipodi:namedview
     pagecolor="#ffffff"
     bordercolor="#666666"
     borderopacity="1"
     objecttolerance="10"
     gridtolerance="10"
     guidetolerance="10"
     inkscape:pageopacity="0"
     inkscape:pageshadow="2"
     inkscape:window-width="1720"
     inkscape:window-height="1298"
     id="namedview14"
     showgrid="false"
     inkscape:zoom="7.375"
     inkscape:cx="24.765274"
     inkscape:cy="9.6460589"
     inkscape:window-x="1720"
     inkscape:window-y="0"
     inkscape:window-maximized="0"
     inkscape:current-layer="22-22-kdf" />
  <g
     id="22-22-kdf"
     transform="matrix(-1,0,0,1,54,10)">
    <rect
       style="opacity:0.001"
       width="22"
       height="22"
       x="0"
       y="0"
       ry="1.375"
       id="rect2" />
    <path
       inkscape:connector-curvature="0"
       id="path848-3"
       style="fill:currentColor;fill-rule:evenodd;stroke-width:0.66666669"
       d="M 11,7.6666671 8.9518229,9.7148439 V 10.285156 L 11,12.333333 13.046875,10.285156 V 9.7148439 Z m 0,-2.666667 4.388021,4.3880208 V 10.611979 L 11,15 H 6.6119791 V 9.3880209 Z m 4.486979,-2 L 18,5.5130211 V 19 H 6.5130211 L 4.0000001,16.486979 V 3.0000001 Z" />
  </g>
  <g
     id="kdf">
    <rect
       style="opacity:0.001"
       width="32"
       height="32"
       x="-32"
       y="0"
       transform="scale(-1,1)"
       ry="2"
       id="rect7" />
    <path
       inkscape:connector-curvature="0"
       id="path848"
       style="fill:currentColor;fill-rule:evenodd"
       d="m 15.5,11 3.072266,3.072266 v 0.855468 L 15.5,18 12.429688,14.927734 v -0.855468 z m 0,-4.0000005 -6.5820315,6.5820315 v 1.835938 L 15.5,22.000001 h 6.582031 v -8.41797 z m -6.7304695,-3 -3.769531,3.769531 V 28.000001 H 22.230469 L 26,24.23047 V 3.9999995 Z" />
  </g>
</svg>
