<?xml version="1.0" encoding="UTF-8" standalone="no"?>
<svg
   xmlns:dc="http://purl.org/dc/elements/1.1/"
   xmlns:cc="http://creativecommons.org/ns#"
   xmlns:rdf="http://www.w3.org/1999/02/22-rdf-syntax-ns#"
   xmlns:svg="http://www.w3.org/2000/svg"
   xmlns="http://www.w3.org/2000/svg"
   xmlns:sodipodi="http://sodipodi.sourceforge.net/DTD/sodipodi-0.dtd"
   xmlns:inkscape="http://www.inkscape.org/namespaces/inkscape"
   width="32"
   height="32"
   version="1.1"
   id="svg12"
   sodipodi:docname="keyboard.svg"
   inkscape:version="0.92.5 (2060ec1f9f, 2020-04-08)">
                        <style
     id="current-color-scheme" >
      .ColorScheme-Text{color:rgb(255,248,247);} .ColorScheme-Background{color:rgb(3,27,22);} .ColorScheme-Highlight{color:rgb(229,27,66);} .ColorScheme-ViewText{color:rgb(250,233,232);} .ColorScheme-ViewBackground{color:rgb(1,13,10);} .ColorScheme-ViewHover{color:rgb(148,34,40);} .ColorScheme-ViewFocus{color:rgb(201,30,60);} .ColorScheme-ButtonText{color:rgb(233,245,243);} .ColorScheme-ButtonBackground{color:rgb(28,4,8);} .ColorScheme-ButtonHover{color:rgb(148,34,40);} .ColorScheme-ButtonFocus{color:rgb(201,30,60);}
  </style>
  <metadata
     id="metadata18">
    <rdf:RDF>
      <cc:Work
         rdf:about="">
        <dc:format>image/svg+xml</dc:format>
        <dc:type
           rdf:resource="http://purl.org/dc/dcmitype/StillImage" />
      </cc:Work>
    </rdf:RDF>
  </metadata>
  <defs
     id="defs16" />
  <sodipodi:namedview
     pagecolor="#ffffff"
     bordercolor="#666666"
     borderopacity="1"
     objecttolerance="10"
     gridtolerance="10"
     guidetolerance="10"
     inkscape:pageopacity="0"
     inkscape:pageshadow="2"
     inkscape:window-width="1720"
     inkscape:window-height="1298"
     id="namedview14"
     showgrid="false"
     showguides="false"
     inkscape:guide-bbox="true"
     inkscape:snap-smooth-nodes="true"
     inkscape:snap-midpoints="false"
     inkscape:snap-intersection-paths="true"
     inkscape:zoom="7.375"
     inkscape:cx="15.17702"
     inkscape:cy="16.183791"
     inkscape:window-x="0"
     inkscape:window-y="0"
     inkscape:window-maximized="0"
     inkscape:current-layer="svg12">
    <sodipodi:guide
       position="16,24.952932"
       orientation="0,1"
       id="guide834"
       inkscape:locked="false" />
    <sodipodi:guide
       position="16,28"
       orientation="1,0"
       id="guide836"
       inkscape:locked="false" />
    <sodipodi:guide
       position="28,16"
       orientation="0,1"
       id="guide840"
       inkscape:locked="false" />
    <sodipodi:guide
       position="24.952932,16"
       orientation="1,0"
       id="guide846"
       inkscape:locked="false" />
    <sodipodi:guide
       position="7.047068,16"
       orientation="1,0"
       id="guide852"
       inkscape:locked="false" />
    <sodipodi:guide
       position="16,7.047068"
       orientation="0,1"
       id="guide854"
       inkscape:locked="false" />
    <sodipodi:guide
       position="23.650391,14.650391"
       orientation="-0.70710678,0.70710678"
       id="guide889"
       inkscape:locked="false" />
  </sodipodi:namedview>
  <g
     id="22-22-keyboard-layout"
     transform="translate(-452,-166)">
    <rect
       style="opacity:0.001"
       width="22"
       height="22"
       x="484"
       y="176"
       id="rect2" />
    <path
       style="fill:currentColor"
       d="m 495.00043,178.99664 -7.02083,7.02083 v 1.95834 l 7.02083,7.02083 7.02083,-7.02083 v -1.95834 z m -0.14583,2.14583 -0.1263,0.29688 -0.0716,3.43229 0.18099,0.28906 -0.21745,0.0351 -1.04688,-0.57682 -0.65104,-0.36198 -0.47005,0.21745 -0.28906,0.54167 2.60156,1.73437 2.92709,2.13151 -0.51433,1.9375 -1.01953,1.01954 -1.15755,1.12617 -0.34375,-0.36185 -0.0365,-0.36068 -0.79427,-2.09635 -0.79557,-0.57813 -0.6862,-0.5052 -0.0365,-0.54167 0.72266,-1.15625 0.4349,-0.32552 -0.6888,-0.18099 -1.40756,-0.39844 -1.21614,-0.61589 z m 4.08463,3.79297 1.32683,1.32683 v 1.46874 l -0.16537,0.16537 -0.52995,-0.60417 -0.6862,-2.27604 0.0547,-0.0807 z"
       id="path884-3"
       inkscape:connector-curvature="0"
       sodipodi:nodetypes="ccccccccccccccccccccccccccccccccccccccccc"
       class="ColorScheme-Text" />
  </g>
  <g
     id="keyboard-layout">
    <rect
       style="opacity:0.001"
       width="32"
       height="32"
       x="0"
       y="0"
       id="rect7" />
    <path
       style="fill:currentColor"
       d="M 16,4 5.46875,14.53125 v 2.9375 L 16,28 26.53125,17.46875 v -2.9375 z m -0.21875,3.21875 -0.189453,0.4453125 -0.107422,5.1484375 0.271484,0.433594 -0.326171,0.05273 -1.570313,-0.865234 -0.976563,-0.542969 -0.705078,0.326172 -0.433593,0.8125 3.902343,2.601562 4.390625,3.197266 -0.771484,2.90625 -1.529297,1.529301 L 16,24.952932 l -0.515625,-0.542776 -0.05469,-0.541015 -1.191407,-3.144532 -1.193359,-0.867187 -1.029297,-0.757813 -0.05469,-0.8125 1.083984,-1.734375 0.652344,-0.488281 -1.033204,-0.271484 -2.111328,-0.597657 -1.8242124,-0.923828 z m 6.126953,5.689453 1.990235,1.990235 v 2.203124 l -0.248047,0.248047 -0.794922,-0.90625 -1.029297,-3.414062 0.08203,-0.121094 z"
       id="path884"
       inkscape:connector-curvature="0"
       sodipodi:nodetypes="ccccccccccccccccccccccccccccccccccccccccc"
       class="ColorScheme-Text" />
  </g>
</svg>
