<?xml version="1.0" encoding="UTF-8" standalone="no"?>
<svg
   xmlns:dc="http://purl.org/dc/elements/1.1/"
   xmlns:cc="http://creativecommons.org/ns#"
   xmlns:rdf="http://www.w3.org/1999/02/22-rdf-syntax-ns#"
   xmlns:svg="http://www.w3.org/2000/svg"
   xmlns="http://www.w3.org/2000/svg"
   xmlns:sodipodi="http://sodipodi.sourceforge.net/DTD/sodipodi-0.dtd"
   xmlns:inkscape="http://www.inkscape.org/namespaces/inkscape"
   width="32"
   height="32"
   version="1.1"
   id="svg12"
   sodipodi:docname="kget.svg"
   inkscape:version="0.92.5 (2060ec1f9f, 2020-04-08)">
                        <style
     id="current-color-scheme" />
  <metadata
     id="metadata18">
    <rdf:RDF>
      <cc:Work
         rdf:about="">
        <dc:format>image/svg+xml</dc:format>
        <dc:type
           rdf:resource="http://purl.org/dc/dcmitype/StillImage" />
      </cc:Work>
    </rdf:RDF>
  </metadata>
  <defs
     id="defs16" />
  <sodipodi:namedview
     pagecolor="#ffffff"
     bordercolor="#666666"
     borderopacity="1"
     objecttolerance="10"
     gridtolerance="10"
     guidetolerance="10"
     inkscape:pageopacity="0"
     inkscape:pageshadow="2"
     inkscape:window-width="1720"
     inkscape:window-height="1298"
     id="namedview14"
     showgrid="false"
     showguides="false"
     inkscape:guide-bbox="true"
     inkscape:zoom="14.75"
     inkscape:cx="18.784444"
     inkscape:cy="23.371805"
     inkscape:window-x="0"
     inkscape:window-y="0"
     inkscape:window-maximized="0"
     inkscape:current-layer="svg12">
    <sodipodi:guide
       position="16,10"
       orientation="-0.8,-0.6"
       id="guide846"
       inkscape:locked="false" />
    <sodipodi:guide
       position="16,10"
       orientation="-0.8,0.6"
       id="guide848"
       inkscape:locked="false" />
    <sodipodi:guide
       position="21.25,17"
       orientation="0,1"
       id="guide850"
       inkscape:locked="false" />
    <sodipodi:guide
       position="14,25"
       orientation="1,0"
       id="guide852"
       inkscape:locked="false" />
    <sodipodi:guide
       position="18,25"
       orientation="0,1"
       id="guide854"
       inkscape:locked="false" />
    <sodipodi:guide
       position="18,17"
       orientation="1,0"
       id="guide856"
       inkscape:locked="false" />
  </sodipodi:namedview>
  <g
     id="22-22-kget"
     transform="translate(32,10)">
    <path
       style="opacity:0.001"
       d="m 0.25,0 h 21.5 C 21.8885,0 22,0.111499 22,0.250001 V 21.75 C 22,21.8885 21.88849,22 21.75,22 H 0.25 C 0.1115,22 0,21.888501 0,21.75 V 0.250001 C 0,0.1115 0.11151,0 0.25,0 Z"
       id="path2" />
    <path
       inkscape:connector-curvature="0"
       style="fill:currentColor"
       d="M 10.999349,3.0002074 3.98,10.019557 v 1.959584 L 10.999349,18.999793 18.02,11.979141 V 10.019557 Z M 9.6660506,5.3334803 h 2.6665974 v 5.3331947 h 0.272128 l 1.082004,1.083306 -2.687431,3.58324 h 2.259056 v 0.714826 L 12.639932,16.66652 H 8.8691966 v -0.714825 l 0.6184733,-0.618474 h 1.5116791 l -2.68743,-3.58324 1.0820033,-1.083306 h 0.2721283 z"
       id="path1038-3"
       class="ColorScheme-Text" />
  </g>
  <g
     id="kget">
    <path
       style="opacity:0.001"
       d="M 0.36363638,0 H 31.636365 c 0.201454,0 0.363636,0.16218037 0.363636,0.36363783 V 31.636365 c 0,0.201454 -0.162196,0.363636 -0.363636,0.363636 H 0.36363638 C 0.16218182,32.000001 0,31.837821 0,31.636365 V 0.36363783 C 0,0.16218182 0.16219637,0 0.36363638,0 Z"
       id="path7" />
    <path
       inkscape:connector-curvature="0"
       style="fill:currentColor"
       d="M 15.999023,4.0000002 5.4697265,14.529297 V 17.46875 L 15.999023,28 26.530273,17.46875 v -2.939453 z m -2,3.5 h 4 V 15.5 h 0.408203 l 1.623047,1.625 -4.03125,5.375 h 3.388672 v 1.072266 L 18.459961,24.5 h -5.65625 V 23.427735 L 13.731445,22.5 h 2.267578 L 11.967773,17.125 13.59082,15.5 h 0.408203 z"
       id="path1038"
       class="ColorScheme-Text" />
  </g>
</svg>
