<?xml version="1.0" encoding="UTF-8" standalone="no"?>
<svg
   xmlns:dc="http://purl.org/dc/elements/1.1/"
   xmlns:cc="http://creativecommons.org/ns#"
   xmlns:rdf="http://www.w3.org/1999/02/22-rdf-syntax-ns#"
   xmlns:svg="http://www.w3.org/2000/svg"
   xmlns="http://www.w3.org/2000/svg"
   xmlns:sodipodi="http://sodipodi.sourceforge.net/DTD/sodipodi-0.dtd"
   xmlns:inkscape="http://www.inkscape.org/namespaces/inkscape"
   id="svg12"
   width="32"
   height="32"
   version="1"
   sodipodi:docname="kleopatra.svg"
   inkscape:version="0.92.5 (2060ec1f9f, 2020-04-08)">
                                <style
     id="current-color-scheme" />
  <metadata
     id="metadata13">
    <rdf:RDF>
      <cc:Work
         rdf:about="">
        <dc:format>image/svg+xml</dc:format>
        <dc:type
           rdf:resource="http://purl.org/dc/dcmitype/StillImage" />
      </cc:Work>
    </rdf:RDF>
  </metadata>
  <defs
     id="defs11" />
  <sodipodi:namedview
     pagecolor="#ffffff"
     bordercolor="#666666"
     borderopacity="1"
     objecttolerance="10"
     gridtolerance="10"
     guidetolerance="10"
     inkscape:pageopacity="0"
     inkscape:pageshadow="2"
     inkscape:window-width="1720"
     inkscape:window-height="1298"
     id="namedview9"
     showgrid="false"
     inkscape:snap-object-midpoints="false"
     inkscape:snap-smooth-nodes="true"
     showguides="false"
     inkscape:guide-bbox="true"
     inkscape:zoom="10.429825"
     inkscape:cx="20.686326"
     inkscape:cy="12.421587"
     inkscape:window-x="0"
     inkscape:window-y="0"
     inkscape:window-maximized="0"
     inkscape:current-layer="22-22-kleopatra">
    <sodipodi:guide
       position="2,21.599609"
       orientation="1,0"
       id="guide828"
       inkscape:locked="false" />
    <sodipodi:guide
       position="10.400391,30"
       orientation="0,1"
       id="guide830"
       inkscape:locked="false" />
    <sodipodi:guide
       position="10.400391,2"
       orientation="0,1"
       id="guide832"
       inkscape:locked="false" />
    <sodipodi:guide
       position="30,10.400391"
       orientation="1,0"
       id="guide834"
       inkscape:locked="false" />
  </sodipodi:namedview>
  <g
     id="kleopatra">
    <rect
       id="rect830"
       style="opacity:0.001;fill:#000000"
       width="32"
       height="32"
       x="0"
       y="0" />
    <path
       style="fill:currentColor"
       d="M 6.9896858,3.9661017 3.9677805,6.9896858 3.9661017,28.033898 H 25.010314 l 3.023584,-3.021905 V 3.9661017 Z M 14.009766,8 c 1.929604,0 3.614852,0.4432099 6.394531,1.6816406 2.595188,1.1562324 3.023753,1.3359374 4.748047,1.3359374 0.773446,0 0.847656,0.05909 0.847656,0.675781 v 0.441407 l -0.632812,-0.002 c -0.894913,-0.0031 -1.006701,0.03931 -2.080079,-0.236328 -0.501885,-0.128881 -1.925841,-0.506231 -3.164062,-0.960937 -3.448099,-1.2662321 -5.39586,-1.5980224 -7.03125,-1.4589845 -1.059132,0.090046 -3.01833,0.6159225 -4.6113282,1.2402345 -2.3309723,0.913531 -2.2361916,0.883752 -2.375,0.744141 C 5.7119692,11.065216 6.4237525,10.379115 8.0878906,9.5449219 10.132355,8.5200791 12.121043,8 14.009766,8 Z m -1.664063,4.005859 c 0.880745,-0.03283 2.256854,0.08008 3.089844,0.298829 0.469718,0.12335 1.185644,0.436667 1.857422,0.697265 3.5181,1.364768 1.855236,0.884721 5.263672,0.974609 L 25,14.039062 v 1.414063 1.015625 l -2.107422,-0.08789 c -1.126071,-0.04928 9.95e-4,-0.007 -0.677734,-0.002 -1.205786,0.0087 -1.278846,0.424297 -3.251953,1.097656 -1.110639,0.379031 -2.675503,0.74762 -3.107422,0.81836 -1.502322,0.246097 -1.853366,0.132367 -1.277344,0.640625 0.834294,0.718167 2.533449,1.592796 4.054687,2.232422 2.329444,0.979447 4.326454,1.183101 4.671876,0.02539 0.105312,-0.352894 0.101359,-0.504057 -0.02148,-0.755859 -0.227964,-0.467278 -0.83591,-0.77514 -1.183594,-0.6875 -0.703881,0.177397 -0.827229,1.25461 -0.18164,1.589844 0.617737,0.320773 1.155988,-0.164752 0.958984,-0.865235 -0.05708,-0.202985 -0.04845,-0.222909 0.04297,-0.0918 0.20598,0.295423 0.133807,0.782952 -0.15625,1.074219 -0.695349,0.698239 -1.742188,0.08695 -1.742188,-1.017578 0,-1.125373 1.179992,-1.727775 2.244141,-1.220703 0.578851,0.275824 0.816054,0.739109 0.816406,1.597656 6.54e-4,1.113429 -1.080099,2.078125 -1.935547,2.078125 -2.220046,0.142126 -4.525864,-0.662929 -6.572265,-1.726562 -0.468618,-0.243568 -1.012799,-0.60262 -1.763672,-1.275391 L 13.068365,19.16206 c -0.0053,1.325933 -0.08798,3.628464 -0.814453,4.828125 -0.470275,0.06695 -0.472647,-0.133844 -0.675781,-1.982422 -0.05424,-0.510767 -0.273564,-1.269418 0.03125,-2.671874 V 18.570312 L 10.070312,18.298828 C 9.098503,18.148407 7.8576451,18.001469 7.2246094,17.974609 6.1341302,17.928335 6.0714486,17.912797 6.0097656,17.666016 5.8727894,17.11799 7.2702299,14.945717 8.5078125,13.783203 c 0.7984184,-0.749989 2.0983335,-1.489982 3.0703125,-1.693359 0.210741,-0.04411 0.473998,-0.07303 0.767578,-0.08399 z m 3.992188,1.779297 c -0.04084,-1e-6 -0.07422,0.416573 -0.07422,0.927735 0,0.810971 -0.03945,0.99728 -0.308594,1.457031 -0.169645,0.289788 -0.473256,0.655724 -0.673828,0.814453 l -0.365234,0.289063 0.33789,-0.01367 c 1.367825,-0.06819 2.207439,-0.364485 3.623047,-1.070313 0.694154,-0.346109 1.263672,-0.669057 1.263672,-0.716797 0,-0.04774 -0.121783,-0.11901 -0.269531,-0.15625 C 19.72335,15.279168 18.835928,14.920776 17.898437,14.51758 16.960948,14.114387 16.37873,13.785158 16.33789,13.785158 Z m -6.109375,0.242188 c -0.168132,0.03199 -0.577519,0.357705 -1.2539066,1.009765 -0.9084228,0.875748 -1.5283302,1.738783 -1.4160156,1.851563 0.031335,0.03147 0.9303515,0.145167 2.0859374,0.255859 l 2.1738278,0.203125 -0.464843,-0.386718 c -0.70762,-0.590233 -0.953832,-1.150329 -0.957032,-2.179688 -0.0016,-0.523068 1.68e-4,-0.785886 -0.167968,-0.753906 z"
       id="path828-3"
       inkscape:connector-curvature="0"
       sodipodi:nodetypes="cccccccssssccsssscssccccccccccccscccccccscccscccccccccscccscccccsccccscccccc"
       class="ColorScheme-Text" />
  </g>
  <g
     id="22-22-kleopatra"
     transform="translate(27,5)">
    <rect
       id="rect828"
       style="opacity:0.001;fill:#000000"
       width="22"
       height="22"
       x="5"
       y="5" />
    <path
       id="path832"
       style="fill:currentColor"
       d="m 14.010006,7.9995466 c -1.888723,0 -3.877411,0.520079 -5.9218754,1.544922 -1.664138,0.8341934 -2.375921,1.5202504 -1.982422,1.9160164 0.138808,0.139611 0.04403,0.16939 2.375,-0.744141 1.5929984,-0.624312 3.5521964,-1.1501894 4.6113284,-1.2402344 1.63539,-0.139038 3.583151,0.192752 7.03125,1.4589844 1.238221,0.454706 2.662177,0.832056 3.164062,0.960937 1.073378,0.275638 1.185168,0.233272 2.080079,0.236328 l 0.632812,0.002 v -0.441407 c 0,-0.61669 -0.07421,-0.675781 -0.847656,-0.675781 -1.724294,0 -2.152859,-0.179705 -4.748047,-1.3359374 -2.779679,-1.238431 -4.464927,-1.681641 -6.394531,-1.681641 z m -1.664063,4.0058594 c -0.29358,0.01094 -0.556837,0.03988 -0.767578,0.08399 -0.971979,0.203377 -2.2718944,0.94337 -3.0703124,1.693359 -1.237583,1.162514 -2.635023,3.334787 -2.498047,3.882813 0.06168,0.246781 0.124364,0.262319 1.214844,0.308593 0.633035,0.02686 1.873891,0.173798 2.8457024,0.324219 l 1.539063,0.271484 v 0.765626 c -0.304814,1.402457 -0.08549,2.161107 -0.03125,2.671874 0.203134,1.848577 0.205506,2.049367 0.675781,1.982422 0.726472,-1.199661 0.809191,-3.502192 0.814453,-4.828125 l 0.742188,0.730469 c 0.750873,0.672771 1.295054,1.031823 1.763672,1.275391 2.046401,1.063633 4.352219,1.868688 6.572265,1.726562 0.855448,0 1.936201,-0.964696 1.935547,-2.078125 -3.52e-4,-0.858547 -0.237555,-1.321832 -0.816406,-1.597656 -1.064149,-0.507072 -2.244141,0.09533 -2.244141,1.220703 0,1.104524 1.046839,1.715817 1.742188,1.017578 0.290057,-0.291267 0.36223,-0.778797 0.15625,-1.074219 -0.09142,-0.131115 -0.100053,-0.111185 -0.04297,0.0918 0.197004,0.700483 -0.341247,1.186008 -0.958984,0.865235 -0.645589,-0.335234 -0.522241,-1.412447 0.18164,-1.589844 0.347684,-0.08764 0.95563,0.220222 1.183594,0.6875 0.122849,0.251802 0.126793,0.402965 0.02148,0.755859 -0.345422,1.157711 -2.342433,0.954057 -4.671876,-0.02539 -1.521238,-0.639626 -3.220393,-1.514255 -4.054687,-2.232422 -0.576022,-0.508258 -0.224978,-0.394528 1.277344,-0.640625 0.431919,-0.07074 1.996783,-0.439331 3.107422,-0.81836 1.973107,-0.673359 2.046167,-1.088946 3.251953,-1.097656 0.678729,-0.005 -0.448337,-0.04728 0.677734,0.002 l 2.107428,0.08784 v -1.015625 -1.414063 l -2.443359,-0.0625 c -3.408436,-0.08989 -1.745572,0.390159 -5.263672,-0.974609 -0.671778,-0.260598 -1.387704,-0.573915 -1.857422,-0.697265 -0.83299,-0.218748 -2.209099,-0.331656 -3.089844,-0.298829 z m 3.992188,1.779297 c 0.04084,0 0.623058,0.329229 1.560547,0.732422 0.937491,0.403196 1.824913,0.76159 1.972656,0.798828 0.147748,0.03724 0.269531,0.108508 0.269531,0.15625 0,0.04774 -0.569518,0.370688 -1.263672,0.716797 -1.415608,0.705828 -2.255222,1.002122 -3.623047,1.070313 l -0.33789,0.01367 0.365234,-0.289063 c 0.200572,-0.158729 0.504183,-0.524665 0.673828,-0.814453 0.269149,-0.459751 0.308594,-0.64606 0.308594,-1.457031 0,-0.511162 0.03338,-0.927736 0.07422,-0.927735 z m -6.109375,0.242188 c 0.168136,-0.03198 0.166392,0.230838 0.167968,0.753906 0.0032,1.029359 0.249412,1.589457 0.957032,2.179688 l 0.464843,0.386718 -2.1738284,-0.203125 c -1.155586,-0.110692 -2.054602,-0.224394 -2.085937,-0.255859 -0.112315,-0.11278 0.507593,-0.975815 1.416016,-1.851563 0.676387,-0.65206 1.0857744,-0.977775 1.2539064,-1.009765 z"
       inkscape:connector-curvature="0"
       class="ColorScheme-Text" />
  </g>
</svg>
