<?xml version="1.0" encoding="UTF-8" standalone="no"?>
<svg
   xmlns:dc="http://purl.org/dc/elements/1.1/"
   xmlns:cc="http://creativecommons.org/ns#"
   xmlns:rdf="http://www.w3.org/1999/02/22-rdf-syntax-ns#"
   xmlns:svg="http://www.w3.org/2000/svg"
   xmlns="http://www.w3.org/2000/svg"
   xmlns:sodipodi="http://sodipodi.sourceforge.net/DTD/sodipodi-0.dtd"
   xmlns:inkscape="http://www.inkscape.org/namespaces/inkscape"
   width="32"
   height="32"
   version="1.1"
   id="svg16"
   sodipodi:docname="klipper.svg"
   inkscape:version="0.92.5 (2060ec1f9f, 2020-04-08)">
                                <style
     id="current-color-scheme" >
      .ColorScheme-Text{color:rgb(255,248,247);} .ColorScheme-Background{color:rgb(3,27,22);} .ColorScheme-Highlight{color:rgb(229,27,66);} .ColorScheme-ViewText{color:rgb(250,233,232);} .ColorScheme-ViewBackground{color:rgb(1,13,10);} .ColorScheme-ViewHover{color:rgb(148,34,40);} .ColorScheme-ViewFocus{color:rgb(201,30,60);} .ColorScheme-ButtonText{color:rgb(233,245,243);} .ColorScheme-ButtonBackground{color:rgb(28,4,8);} .ColorScheme-ButtonHover{color:rgb(148,34,40);} .ColorScheme-ButtonFocus{color:rgb(201,30,60);}
  </style>
  <metadata
     id="metadata22">
    <rdf:RDF>
      <cc:Work
         rdf:about="">
        <dc:format>image/svg+xml</dc:format>
        <dc:type
           rdf:resource="http://purl.org/dc/dcmitype/StillImage" />
      </cc:Work>
    </rdf:RDF>
  </metadata>
  <defs
     id="defs20" />
  <sodipodi:namedview
     pagecolor="#ffffff"
     bordercolor="#666666"
     borderopacity="1"
     objecttolerance="10"
     gridtolerance="10"
     guidetolerance="10"
     inkscape:pageopacity="0"
     inkscape:pageshadow="2"
     inkscape:window-width="1720"
     inkscape:window-height="1298"
     id="namedview18"
     showgrid="false"
     inkscape:snap-smooth-nodes="true"
     showguides="true"
     inkscape:guide-bbox="true"
     inkscape:zoom="20.85965"
     inkscape:cx="37.635958"
     inkscape:cy="5.5277476"
     inkscape:window-x="1239"
     inkscape:window-y="156"
     inkscape:window-maximized="0"
     inkscape:current-layer="svg16">
    <sodipodi:guide
       position="37.000001,2.999999"
       orientation="0,1"
       id="guide883"
       inkscape:locked="false" />
    <sodipodi:guide
       position="45.000001,4.999999"
       orientation="1,0"
       id="guide885"
       inkscape:locked="false" />
    <sodipodi:guide
       position="35.000001,4.999999"
       orientation="1,0"
       id="guide887"
       inkscape:locked="false" />
    <sodipodi:guide
       position="37.000001,13.999999"
       orientation="0,1"
       id="guide889"
       inkscape:locked="false" />
    <sodipodi:guide
       position="37.000001,4.999999"
       orientation="0,1"
       id="guide897"
       inkscape:locked="false" />
    <sodipodi:guide
       position="37.000001,5.999999"
       orientation="0,1"
       id="guide899"
       inkscape:locked="false" />
    <sodipodi:guide
       position="41.000001,16.999999"
       orientation="1,0"
       id="guide945"
       inkscape:locked="false" />
    <sodipodi:guide
       position="43.000001,18.999999"
       orientation="0,1"
       id="guide947"
       inkscape:locked="false" />
    <sodipodi:guide
       position="51.000001,16.999999"
       orientation="1,0"
       id="guide949"
       inkscape:locked="false" />
  </sodipodi:namedview>
  <g
     id="22-22-klipper"
     transform="translate(32.000001,10.000001)">
    <rect
       style="opacity:0.00100002"
       width="22"
       height="22"
       x="0"
       y="0"
       id="rect2" />
    <path
       inkscape:connector-curvature="0"
       id="path951"
       d="M 10.25586,3 9,4.255859 V 14 h 8.744141 L 19,12.744141 V 3 Z m 1.208985,2 H 17 V 5.535156 L 16.53711,6 H 11 V 5.464844 Z m 0,2 H 17 V 7.535156 L 16.53711,8 H 11 V 7.464844 Z m 0,2 H 17 V 9.535156 L 16.53711,10 H 11 V 9.464844 Z m 0,2 h 3.535156 v 0.535156 L 14.537111,12 H 11 v -0.535156 z"
       style="opacity:0.3;fill:currentColor"
       class="ColorScheme-Text" />
    <path
       style="fill:currentColor;stroke-width:0.62500018"
       d="M 4.25586,8 3,9.255859 V 19 h 8.744141 L 13,17.744141 V 8 Z m 1.2089845,2 H 11 v 0.535156 L 10.53711,11 H 5 v -0.535156 z m 0,2 H 11 v 0.535156 L 10.53711,13 H 5 v -0.535156 z m 0,2 H 11 v 0.535156 L 10.53711,15 H 5 v -0.535156 z m 0,2 h 3.535156 v 0.535156 L 8.5371105,17 H 5 v -0.535156 z"
       id="path828"
       inkscape:connector-curvature="0"
       class="ColorScheme-Text" />
  </g>
  <g
     id="klipper">
    <rect
       style="opacity:0.001"
       width="32"
       height="32"
       x="0"
       y="0"
       id="rect9" />
    <path
       id="path861"
       d="M 15.439454,4.0000001 13,6.441406 V 21 H 25.558594 L 28,18.560547 V 4.0000001 Z M 16.927735,7 H 25 V 8.072266 L 24.072266,9 H 16 V 7.927734 Z m 0,3 H 25 v 1.072266 L 24.072266,12 H 16 v -1.072266 z m 0,3 H 25 v 1.072266 L 24.072266,15 H 16 v -1.072266 z m 0,3 H 22 v 1.072266 L 21.072266,18 H 16 v -1.072266 z"
       style="opacity:0.3;fill:currentColor"
       inkscape:connector-curvature="0"
       class="ColorScheme-Text" />
    <path
       style="fill:currentColor"
       d="M 6.439454,11 4,13.441406 V 28 H 16.558594 L 19,25.560547 V 11 Z m 1.488281,3 H 16 v 1.072266 L 15.072266,16 H 7 v -1.072266 z m 0,3 H 16 v 1.072266 L 15.072266,19 H 7 v -1.072266 z m 0,3 H 16 v 1.072266 L 15.072266,22 H 7 v -1.072266 z m 0,3 H 13 v 1.072266 L 12.072266,25 H 7 v -1.072266 z"
       id="path828-3"
       inkscape:connector-curvature="0"
       class="ColorScheme-Text" />
  </g>
</svg>
