<?xml version="1.0" encoding="UTF-8" standalone="no"?>
<svg
   xmlns:dc="http://purl.org/dc/elements/1.1/"
   xmlns:cc="http://creativecommons.org/ns#"
   xmlns:rdf="http://www.w3.org/1999/02/22-rdf-syntax-ns#"
   xmlns:svg="http://www.w3.org/2000/svg"
   xmlns="http://www.w3.org/2000/svg"
   xmlns:sodipodi="http://sodipodi.sourceforge.net/DTD/sodipodi-0.dtd"
   xmlns:inkscape="http://www.inkscape.org/namespaces/inkscape"
   width="32"
   height="32"
   version="1.1"
   id="svg12"
   sodipodi:docname="knotes.svg"
   inkscape:version="0.92.5 (2060ec1f9f, 2020-04-08)">
                        <style
     id="current-color-scheme" >
      .ColorScheme-Text{color:rgb(255,248,247);} .ColorScheme-Background{color:rgb(3,27,22);} .ColorScheme-Highlight{color:rgb(229,27,66);} .ColorScheme-ViewText{color:rgb(250,233,232);} .ColorScheme-ViewBackground{color:rgb(1,13,10);} .ColorScheme-ViewHover{color:rgb(148,34,40);} .ColorScheme-ViewFocus{color:rgb(201,30,60);} .ColorScheme-ButtonText{color:rgb(233,245,243);} .ColorScheme-ButtonBackground{color:rgb(28,4,8);} .ColorScheme-ButtonHover{color:rgb(148,34,40);} .ColorScheme-ButtonFocus{color:rgb(201,30,60);}
  </style>
  <metadata
     id="metadata18">
    <rdf:RDF>
      <cc:Work
         rdf:about="">
        <dc:format>image/svg+xml</dc:format>
        <dc:type
           rdf:resource="http://purl.org/dc/dcmitype/StillImage" />
      </cc:Work>
    </rdf:RDF>
  </metadata>
  <defs
     id="defs16" />
  <sodipodi:namedview
     pagecolor="#ffffff"
     bordercolor="#666666"
     borderopacity="1"
     objecttolerance="10"
     gridtolerance="10"
     guidetolerance="10"
     inkscape:pageopacity="0"
     inkscape:pageshadow="2"
     inkscape:window-width="1720"
     inkscape:window-height="1298"
     id="namedview14"
     showgrid="false"
     inkscape:snap-smooth-nodes="true"
     showguides="false"
     inkscape:guide-bbox="true"
     inkscape:zoom="14.75"
     inkscape:cx="25.284978"
     inkscape:cy="5.5238941"
     inkscape:window-x="0"
     inkscape:window-y="0"
     inkscape:window-maximized="0"
     inkscape:current-layer="svg12">
    <sodipodi:guide
       position="5,26.154297"
       orientation="1,0"
       id="guide830"
       inkscape:locked="false" />
    <sodipodi:guide
       position="6.4003906,28"
       orientation="0,1"
       id="guide832"
       inkscape:locked="false" />
    <sodipodi:guide
       position="26,13"
       orientation="1,0"
       id="guide834"
       inkscape:locked="false" />
    <sodipodi:guide
       position="44,3"
       orientation="0,1"
       id="guide836"
       inkscape:locked="false" />
    <sodipodi:guide
       position="17,4"
       orientation="-0.70710678,0.70710678"
       id="guide846"
       inkscape:locked="false" />
    <sodipodi:guide
       position="17,12"
       orientation="0,1"
       id="guide854"
       inkscape:locked="false" />
    <sodipodi:guide
       position="36,17.769531"
       orientation="1,0"
       id="guide864"
       inkscape:locked="false" />
    <sodipodi:guide
       position="36.933594,19"
       orientation="0,1"
       id="guide866"
       inkscape:locked="false" />
    <sodipodi:guide
       position="44,8"
       orientation="0,1"
       id="guide870"
       inkscape:locked="false" />
    <sodipodi:guide
       position="38,6"
       orientation="0,1"
       id="guide878"
       inkscape:locked="false" />
    <sodipodi:guide
       position="48,10"
       orientation="1,0"
       id="guide882"
       inkscape:locked="false" />
  </sodipodi:namedview>
  <g
     id="22-22-knotes">
    <path
       style="opacity:0.001"
       d="m 32,10 h 22 c 0,0 0,0 0,0 v 22 c 0,0 0,0 0,0 H 32 c 0,0 0,0 0,0 V 10 c 0,0 0,0 0,0 z"
       id="path2" />
    <path
       inkscape:connector-curvature="0"
       style="fill:currentColor"
       d="M 38.513672,13 36,15.513672 V 29 h 8 l 6,-6 V 13 Z m 0.414062,3 H 48 v 1.072266 L 47.072266,18 H 38 v -1.072266 z m 0,4 H 48 v 1.072266 L 47.072266,22 H 38 v -1.072266 z m 0,4 H 44 v 1.072266 L 43.072266,26 H 38 v -1.072266 z"
       id="path862"
       class="ColorScheme-Text" />
  </g>
  <g
     id="knotes">
    <path
       style="opacity:0.001"
       d="m 0,-1e-6 h 32.000001 c 0,0 0,0 0,0 V 32 c 0,0 0,0 0,0 H 0 c 0,0 0,0 0,0 V -1e-6 c 0,0 0,0 0,0 z"
       id="path7" />
    <path
       style="fill:currentColor"
       d="M 8.7695312,4 5,7.7695312 V 28 h 12 l 9,-9 V 4 Z M 9.3925781,8 H 23 V 9.6074219 L 21.609375,11 H 8 V 9.3925781 Z m 0,6 H 23 v 1.607422 L 21.609375,17 H 8 v -1.607422 z m 0,6 H 17 v 1.607422 L 15.609375,23 H 8 v -1.607422 z"
       id="path9-3"
       class="ColorScheme-Text"
       inkscape:connector-curvature="0" />
  </g>
</svg>
