<?xml version="1.0" encoding="UTF-8" standalone="no"?>
<svg
   xmlns:dc="http://purl.org/dc/elements/1.1/"
   xmlns:cc="http://creativecommons.org/ns#"
   xmlns:rdf="http://www.w3.org/1999/02/22-rdf-syntax-ns#"
   xmlns:svg="http://www.w3.org/2000/svg"
   xmlns="http://www.w3.org/2000/svg"
   xmlns:sodipodi="http://sodipodi.sourceforge.net/DTD/sodipodi-0.dtd"
   xmlns:inkscape="http://www.inkscape.org/namespaces/inkscape"
   width="32"
   height="32"
   version="1.1"
   id="svg40"
   sodipodi:docname="mail.svg"
   inkscape:version="0.92.5 (2060ec1f9f, 2020-04-08)">
                                        <style
     id="current-color-scheme" >
      .ColorScheme-Text{color:rgb(255,248,247);} .ColorScheme-Background{color:rgb(3,27,22);} .ColorScheme-Highlight{color:rgb(229,27,66);} .ColorScheme-ViewText{color:rgb(250,233,232);} .ColorScheme-ViewBackground{color:rgb(1,13,10);} .ColorScheme-ViewHover{color:rgb(148,34,40);} .ColorScheme-ViewFocus{color:rgb(201,30,60);} .ColorScheme-ButtonText{color:rgb(233,245,243);} .ColorScheme-ButtonBackground{color:rgb(28,4,8);} .ColorScheme-ButtonHover{color:rgb(148,34,40);} .ColorScheme-ButtonFocus{color:rgb(201,30,60);}
  </style>
  <metadata
     id="metadata46">
    <rdf:RDF>
      <cc:Work
         rdf:about="">
        <dc:format>image/svg+xml</dc:format>
        <dc:type
           rdf:resource="http://purl.org/dc/dcmitype/StillImage" />
      </cc:Work>
    </rdf:RDF>
  </metadata>
  <defs
     id="defs44" />
  <sodipodi:namedview
     pagecolor="#ffffff"
     bordercolor="#666666"
     borderopacity="1"
     objecttolerance="10"
     gridtolerance="10"
     guidetolerance="10"
     inkscape:pageopacity="0"
     inkscape:pageshadow="2"
     inkscape:window-width="1720"
     inkscape:window-height="1298"
     id="namedview42"
     showgrid="false"
     inkscape:zoom="3.6875"
     inkscape:cx="73.216072"
     inkscape:cy="0.25314313"
     inkscape:window-x="0"
     inkscape:window-y="0"
     inkscape:window-maximized="0"
     inkscape:current-layer="svg40"
     showguides="false"
     inkscape:guide-bbox="true"
     inkscape:snap-smooth-nodes="true"
     inkscape:snap-bbox="true"
     inkscape:snap-center="true"
     inkscape:bbox-nodes="true">
    <sodipodi:guide
       position="39,25"
       orientation="0,1"
       id="guide977"
       inkscape:locked="false" />
    <sodipodi:guide
       position="34.99989,47"
       orientation="1,0"
       id="guide979"
       inkscape:locked="false" />
    <sodipodi:guide
       position="2.9998897,39"
       orientation="1,0"
       id="guide999"
       inkscape:locked="false" />
    <sodipodi:guide
       position="36.99989,49"
       orientation="0,1"
       id="guide1120"
       inkscape:locked="false" />
  </sodipodi:namedview>
  <g
     id="22-22-mail-unread-new"
     transform="translate(31.99989)">
    <path
       style="opacity:0.001"
       d="m 1.1e-4,-22 h 22 V 0 h -22 z"
       id="path7" />
    <path
       inkscape:connector-curvature="0"
       style="fill:currentColor"
       d="M 5.011766,-16.999999 3.002,-14.988281 3,-4.999999 h 10.587891 l -0.04883,-0.04883 -0.292968,-0.292968 v -1.316407 l 2.755859,-2.755859 2.701172,2.703125 0.296875,-0.296875 V -17 Z m 11.751953,2.011718 h 0.232422 v 2.119141 l -5.548829,2.775391 h -0.894531 l -5.544922,-2.773438 v -0.111328 l 1.416016,-1.416016 4.576172,2.28711 z"
       id="path828-3-3-9-7"
       sodipodi:nodetypes="cccccccccccccccccccccc"
       class="ColorScheme-Text" />
    <path
       style="fill:currentColor"
       d="m 14.24525,-5.755297 1.75581,1.75579 1.75547,-1.75547 v -0.48914 l -1.75539,-1.75539 -1.75589,1.75588 z"
       id="HandCenterScrew-1"
       inkscape:connector-curvature="0"
       sodipodi:nodetypes="ccccccc"
       class="ColorScheme-ButtonHover" />
  </g>
  <g
     id="22-22-mail-unread"
     transform="translate(-403.0002,-157)">
    <path
       style="opacity:0.001"
       d="m 467.0002,135 h 22 v 22 h -22 z"
       id="path4" />
    <path
       style="fill:currentColor"
       d="m 472.01021,140 -2.00912,2.01041 -10e-4,9.98959 h 13.98959 l 2.01041,-2.00911 V 140 Z m 11.7526,2.01041 h 0.23178 v 2.1198 l -5.54818,2.77474 h -0.89453 l -5.54557,-2.77344 v -0.11068 l 1.41666,-1.41666 4.57682,2.28776 z"
       id="path828-3-3"
       inkscape:connector-curvature="0"
       class="ColorScheme-Text" />
  </g>
  <g
     id="22-22-mail-mark-unread-new"
     transform="translate(-1.1029545e-4)">
    <path
       style="opacity:0.001"
       d="m 1.1e-4,-22 h 22 V 0 h -22 z"
       id="path14" />
    <path
       inkscape:connector-curvature="0"
       style="fill:currentColor"
       d="M 5.009766,-17 3,-14.988282 2.998,-5 h 10.587891 l -0.04883,-0.04883 -0.292968,-0.292968 v -1.316407 l 2.755859,-2.755859 2.701172,2.703125 0.296875,-0.296875 v -9.992187 z m 11.751953,2.011718 h 0.232422 v 2.119141 l -5.548829,2.775391 h -0.894531 l -5.544922,-2.773438 v -0.111328 l 1.416016,-1.416016 4.576172,2.28711 z"
       id="path828-3-3-9-7-0"
       sodipodi:nodetypes="cccccccccccccccccccccc"
       class="ColorScheme-Text" />
    <path
       style="fill:currentColor"
       d="m 14.24325,-5.755298 1.75581,1.75579 1.75547,-1.75547 v -0.48914 l -1.75539,-1.75539 -1.75589,1.75588 z"
       id="HandCenterScrew-1-9"
       inkscape:connector-curvature="0"
       sodipodi:nodetypes="ccccccc"
       class="ColorScheme-ButtonHover" />
  </g>
  <g
     id="mail-unread"
     transform="translate(64.000001,-3e-6)">
    <path
       style="opacity:0.001"
       d="M -5.9089996e-7,2.5e-6 H 32 V 32.000003 H -5.9089996e-7 Z"
       id="path23" />
    <path
       style="fill:currentColor"
       d="m 7.0156718,7.0000027 -3.013672,3.0156253 -0.002,14.984375 H 24.984376 L 28,21.986331 V 7.0000027 Z M 24.644578,10.015628 h 0.347656 v 3.179688 l -8.322266,4.162109 H 15.328172 L 7.0098118,13.197269 v -0.166016 l 2.125,-2.125 6.8652342,3.431641 z"
       id="path828-3"
       inkscape:connector-curvature="0"
       class="ColorScheme-Text" />
  </g>
  <g
     id="mail-mark-unread-new">
    <path
       style="opacity:0.001"
       d="M -2.9544998e-7,-2.5e-7 H 32 V 32 H -2.9544998e-7 Z"
       id="path28" />
    <path
       inkscape:connector-curvature="0"
       style="fill:currentColor"
       d="M 7.0136723,7 4,10.015625 3.998,24.999998 h 15.171875 l -0.21875,-0.21875 -0.585938,-0.585937 v -2.390626 l 4.632813,-4.632812 4.632812,4.632812 v 0.548828 L 27.998,21.986326 V 7 Z m 17.6289057,3.015625 h 0.347657 v 3.179687 L 16.667968,17.35742 H 15.326172 L 7.0078133,13.197265 V 13.03125 l 2.125,-2.125 6.8652337,3.43164 z"
       id="path828-3-7-5-3"
       sodipodi:nodetypes="ccccccccccccccccccccccc"
       class="ColorScheme-Text" />
    <path
       style="fill:currentColor"
       d="m 20.365186,23.366689 2.63371,2.63369 2.63321,-2.633209 v -0.733701 l -2.63309,-2.63309 -2.63383,2.633827 z"
       id="HandCenterScrew-5"
       inkscape:connector-curvature="0"
       sodipodi:nodetypes="ccccccc"
       class="ColorScheme-ButtonHover" />
  </g>
  <g
     id="mail-unread-new"
     transform="translate(32)">
    <path
       style="opacity:0.001"
       d="M -2.9544998e-7,-2.5e-7 H 32 V 32 H -2.9544998e-7 Z"
       id="path35" />
    <path
       inkscape:connector-curvature="0"
       style="fill:currentColor"
       d="M 7.0136723,7 4,10.015625 3.998,24.999999 h 15.171874 l -0.21875,-0.21875 -0.585937,-0.585938 v -2.390625 l 4.632812,-4.632812 4.632813,4.632812 v 0.548828 l 0.367187,-0.367187 V 7 Z m 17.6289047,3.015625 h 0.347657 v 3.179687 l -8.322266,4.162109 H 15.326171 L 7.0078133,13.197265 V 13.03125 l 2.125,-2.125 6.8652327,3.43164 z"
       id="path828-3-7-5"
       sodipodi:nodetypes="ccccccccccccccccccccccc"
       class="ColorScheme-Text" />
    <path
       style="fill:currentColor"
       d="m 20.365185,23.36669 2.63371,2.63369 2.63321,-2.63321 v -0.733701 l -2.63309,-2.633089 -2.63383,2.633827 z"
       id="HandCenterScrew"
       inkscape:connector-curvature="0"
       sodipodi:nodetypes="ccccccc"
       class="ColorScheme-ButtonHover" />
  </g>
</svg>
