<?xml version="1.0" encoding="UTF-8" standalone="no"?>
<svg
   xmlns:dc="http://purl.org/dc/elements/1.1/"
   xmlns:cc="http://creativecommons.org/ns#"
   xmlns:rdf="http://www.w3.org/1999/02/22-rdf-syntax-ns#"
   xmlns:svg="http://www.w3.org/2000/svg"
   xmlns="http://www.w3.org/2000/svg"
   xmlns:sodipodi="http://sodipodi.sourceforge.net/DTD/sodipodi-0.dtd"
   xmlns:inkscape="http://www.inkscape.org/namespaces/inkscape"
   width="32"
   height="32"
   version="1"
   id="svg12"
   sodipodi:docname="plasma.svg"
   inkscape:version="0.92.5 (2060ec1f9f, 2020-04-08)">
  <metadata
     id="metadata18">
    <rdf:RDF>
      <cc:Work
         rdf:about="">
        <dc:format>image/svg+xml</dc:format>
        <dc:type
           rdf:resource="http://purl.org/dc/dcmitype/StillImage" />
      </cc:Work>
    </rdf:RDF>
  </metadata>
    <style
     id="current-color-scheme" >
      .ColorScheme-Text{color:rgb(255,248,247);} .ColorScheme-Background{color:rgb(3,27,22);} .ColorScheme-Highlight{color:rgb(229,27,66);} .ColorScheme-ViewText{color:rgb(250,233,232);} .ColorScheme-ViewBackground{color:rgb(1,13,10);} .ColorScheme-ViewHover{color:rgb(148,34,40);} .ColorScheme-ViewFocus{color:rgb(201,30,60);} .ColorScheme-ButtonText{color:rgb(233,245,243);} .ColorScheme-ButtonBackground{color:rgb(28,4,8);} .ColorScheme-ButtonHover{color:rgb(148,34,40);} .ColorScheme-ButtonFocus{color:rgb(201,30,60);}
  </style>
  <defs
     id="defs16" />
  <sodipodi:namedview
     pagecolor="#ffffff"
     bordercolor="#666666"
     borderopacity="1"
     objecttolerance="10"
     gridtolerance="10"
     guidetolerance="10"
     inkscape:pageopacity="0"
     inkscape:pageshadow="2"
     inkscape:window-width="1720"
     inkscape:window-height="1298"
     id="namedview14"
     showgrid="false"
     showguides="false"
     inkscape:guide-bbox="true"
     inkscape:snap-smooth-nodes="true"
     inkscape:snap-bbox="true"
     inkscape:bbox-nodes="true"
     inkscape:zoom="8"
     inkscape:cx="-10.00029"
     inkscape:cy="49.610622"
     inkscape:window-x="24"
     inkscape:window-y="12"
     inkscape:window-maximized="0"
     inkscape:current-layer="svg12"
     inkscape:snap-object-midpoints="true"
     inkscape:snap-center="true"
     inkscape:snap-midpoints="false"
     inkscape:snap-intersection-paths="true">
    <sodipodi:guide
       position="19,7"
       orientation="1,0"
       id="guide1042"
       inkscape:locked="false" />
    <sodipodi:guide
       position="31,7"
       orientation="1,0"
       id="guide1044"
       inkscape:locked="false" />
    <sodipodi:guide
       position="25,13"
       orientation="0,1"
       id="guide1046"
       inkscape:locked="false" />
    <sodipodi:guide
       position="48.999669,0.999272"
       orientation="0,1"
       id="guide1048"
       inkscape:locked="false" />
    <sodipodi:guide
       position="25,13"
       orientation="1,0"
       id="guide1054"
       inkscape:locked="false" />
    <sodipodi:guide
       position="31,7"
       orientation="0,1"
       id="guide1056"
       inkscape:locked="false" />
    <sodipodi:guide
       position="29.800877,6.9742822"
       orientation="1,0"
       id="guide1058"
       inkscape:locked="false" />
    <sodipodi:guide
       position="29.800877,2.1991234"
       orientation="0,1"
       id="guide1062"
       inkscape:locked="false" />
    <sodipodi:guide
       position="31,11.800877"
       orientation="0,1"
       id="guide1064"
       inkscape:locked="false" />
    <sodipodi:guide
       position="16,28"
       orientation="0,1"
       id="guide1122"
       inkscape:locked="false" />
    <sodipodi:guide
       position="16,4"
       orientation="0,1"
       id="guide1124"
       inkscape:locked="false" />
    <sodipodi:guide
       position="4,16"
       orientation="1,0"
       id="guide1126"
       inkscape:locked="false" />
    <sodipodi:guide
       position="28,16"
       orientation="1,0"
       id="guide1128"
       inkscape:locked="false" />
    <sodipodi:guide
       position="23.585938,14.414062"
       orientation="0.70710678,0.70710678"
       id="guide1176"
       inkscape:locked="false" />
    <sodipodi:guide
       position="23.857422,14.857422"
       orientation="-0.70710678,0.70710678"
       id="guide1178"
       inkscape:locked="false" />
    <sodipodi:guide
       position="21.658203,14.056641"
       orientation="0.70710678,0.70710678"
       id="guide1180"
       inkscape:locked="false" />
    <sodipodi:guide
       position="42.999669,18.999272"
       orientation="0,1"
       id="guide1198"
       inkscape:locked="false" />
  </sodipodi:namedview>
  <g
     id="plasma-browser-integration">
    <path
       style="opacity:0.001"
       d="M 0,0 V 32 H 32 V 0 Z"
       id="path2" />
    <path
       style="fill:currentColor"
       d="M 16,4 5.4648438,14.535156 v 2.929688 L 16,28 l 1.888672,-1.888672 -0.15625,-0.378906 v -1.464844 l 0.585937,-1.414062 4.13086,-4.119141 -0.0918,-0.0918 -0.699219,-0.699219 v -0.367187 l 1.316406,-1.316406 0.882813,0.882812 L 23.5,17.5 l 0.08594,0.08594 h 2.828124 0.002 l 0.117187,-0.119141 V 14.53125 Z m 2.617188,5.6171875 1.5,1.5000005 -1.142579,1.142578 -1.316406,-1.316407 v -0.367187 z m -5.396485,0.1621094 h 0.320313 L 11.21875,12.748047 v 4.488281 h 3.082031 l 0.429688,-0.429687 v -1.095703 l 0.427734,-0.427735 h 3.083985 v 4.486328 l -2.970704,2.970703 h -1.53125 L 8.0976562,17.097656 v -2.197265 z m 8.396485,2.8378911 1.5,1.5 -1.142579,1.142578 -1.316406,-1.316407 V 13.576172 Z M 25,19 19.732422,24.267578 v 1.464844 L 25,31 30.265625,25.734375 v -1.466797 z m -0.474609,1.673828 -0.05664,2.72461 0.154297,0.24414 -0.183594,0.03125 -0.882812,-0.488281 -0.550782,-0.304688 -0.396484,0.183594 -0.244141,0.457031 2.197266,1.462891 2.470703,1.798828 -2.03125,3.017578 -0.796875,-0.796875 -0.4375,-1.152344 -0.669922,-0.488281 -0.580078,-0.425781 -0.0293,-0.457031 0.609375,-0.978516 0.363282,-0.271484 -0.578126,-0.154297 -1.189453,-0.335938 -0.779297,-0.455078 z m 3.648437,2.701172 1.039063,1.039062 v 1.173829 l -0.263672,0.263671 -0.332031,-0.408203 -0.582032,-1.921875 z"
       id="path1023"
       class="ColorScheme-Text"
       inkscape:connector-curvature="0" />
  </g>
  <g
     id="22-22-plasma-browser-integration"
     transform="translate(27,5)">
    <rect
       style="opacity:0.001"
       width="22"
       height="22"
       x="5"
       y="5"
       id="rect7" />
    <path
       inkscape:connector-curvature="0"
       style="fill:currentColor"
       d="m 15.996503,8.000728 -7.023437,7.023437 v 1.953125 l 7.023437,7.023438 1.259115,-1.259115 -0.104167,-0.252604 v -0.976562 l 0.390624,-0.942708 2.753907,-2.746094 -0.0612,-0.0612 -0.466146,-0.466147 v -0.244795 l 0.877605,-0.877604 0.588541,0.588541 -0.238279,0.238284 0.0573,0.0573 h 1.885416 0.0013 l 0.07813,-0.07943 v -1.957033 z m 1.744792,3.744791 1,1.000001 -0.761719,0.761718 -0.877604,-0.877604 v -0.244791 z m -3.597657,0.108074 h 0.213542 l -1.548177,1.979166 v 2.992187 h 2.054687 l 0.286459,-0.286458 V 15.80802 l 0.285156,-0.285156 h 2.05599 v 2.990885 l -1.980469,1.980469 h -1.020834 l -3.761718,-3.761719 v -1.464844 z m 5.597657,1.891927 1,1 -0.76172,0.761719 -0.877604,-0.877605 v -0.244791 z m 2.255208,4.255208 -3.511719,3.511719 v 0.976562 l 3.511719,3.511719 3.510417,-3.510417 v -0.977864 z m -0.316406,1.115886 -0.03776,1.816406 0.102865,0.16276 -0.122395,0.02083 -0.588542,-0.325521 -0.367187,-0.203125 -0.264323,0.122396 -0.162762,0.304688 1.464845,0.97526 1.647135,1.199219 -1.354167,2.011719 -0.531249,-0.531251 -0.291668,-0.768228 -0.446614,-0.325521 -0.386718,-0.283854 -0.01953,-0.304687 0.40625,-0.652344 0.242188,-0.18099 -0.385417,-0.102865 -0.792969,-0.223958 -0.519532,-0.303385 z m 2.432292,1.800781 0.692708,0.692707 v 0.782554 L 24.629316,22.568436 24.407961,22.2963 24.01994,21.015051 Z"
       id="path1023-5"
       class="ColorScheme-Text" />
  </g>
</svg>
