<?xml version="1.0" encoding="UTF-8" standalone="no"?>
<svg
   xmlns:dc="http://purl.org/dc/elements/1.1/"
   xmlns:cc="http://creativecommons.org/ns#"
   xmlns:rdf="http://www.w3.org/1999/02/22-rdf-syntax-ns#"
   xmlns:svg="http://www.w3.org/2000/svg"
   xmlns="http://www.w3.org/2000/svg"
   xmlns:sodipodi="http://sodipodi.sourceforge.net/DTD/sodipodi-0.dtd"
   xmlns:inkscape="http://www.inkscape.org/namespaces/inkscape"
   width="32"
   height="32"
   version="1.1"
   id="svg22"
   sodipodi:docname="touchpad.svg"
   inkscape:version="0.92.5 (2060ec1f9f, 2020-04-08)">
                          <style
     id="current-color-scheme" >
      .ColorScheme-Text{color:rgb(255,248,247);} .ColorScheme-Background{color:rgb(3,27,22);} .ColorScheme-Highlight{color:rgb(229,27,66);} .ColorScheme-ViewText{color:rgb(250,233,232);} .ColorScheme-ViewBackground{color:rgb(1,13,10);} .ColorScheme-ViewHover{color:rgb(148,34,40);} .ColorScheme-ViewFocus{color:rgb(201,30,60);} .ColorScheme-ButtonText{color:rgb(233,245,243);} .ColorScheme-ButtonBackground{color:rgb(28,4,8);} .ColorScheme-ButtonHover{color:rgb(148,34,40);} .ColorScheme-ButtonFocus{color:rgb(201,30,60);}
  </style>
  <metadata
     id="metadata28">
    <rdf:RDF>
      <cc:Work
         rdf:about="">
        <dc:format>image/svg+xml</dc:format>
        <dc:type
           rdf:resource="http://purl.org/dc/dcmitype/StillImage" />
      </cc:Work>
    </rdf:RDF>
  </metadata>
  <defs
     id="defs26" />
  <sodipodi:namedview
     pagecolor="#ffffff"
     bordercolor="#666666"
     borderopacity="1"
     objecttolerance="10"
     gridtolerance="10"
     guidetolerance="10"
     inkscape:pageopacity="0"
     inkscape:pageshadow="2"
     inkscape:window-width="1720"
     inkscape:window-height="1298"
     id="namedview24"
     showgrid="false"
     inkscape:zoom="7.375"
     inkscape:cx="46.041831"
     inkscape:cy="5.9292667"
     inkscape:window-x="0"
     inkscape:window-y="0"
     inkscape:window-maximized="0"
     inkscape:current-layer="touchpad_disabled" />
  <g
     id="22-22-touchpad_enabled"
     transform="translate(-425.0002,143.00336)">
    <path
       style="opacity:0.001"
       d="m 425.0002,-165.00336 h 22 c 0,0 0,0 0,0 v 22 c 0,0 0,0 0,0 h -22 c 0,0 0,0 0,0 v -22 c 0,0 0,0 0,0 z"
       id="path2" />
    <path
       style="fill:currentColor"
       d="m 428.90454,-162.00336 -1.94531,1.94922 -0.002,14.05078 h 16.13867 l 1.94726,-1.94727 v -14.05273 z m 12.60157,2 h 1.5371 v 0.53516 l -0.46484,0.46484 h -1.53516 v -0.53711 z m 0,2 h 1.5371 v 0.53516 l -0.46484,0.46484 h -1.53516 v -0.53516 z m 0,2 h 1.5371 v 0.53516 l -0.46484,0.46484 h -1.53516 v -0.53516 z m 0,2 h 1.5371 v 0.53711 l -0.46484,0.46289 h -1.53516 v -0.53516 z m -11.07227,3 h 4.52539 v 3 h -5.91602 v -0.0879 -1.49219 -0.0273 z m 6.52539,0 h 6.08203 l 0.002,1.60742 -1.39257,1.39258 h -4.69141 z"
       id="path2354"
       inkscape:connector-curvature="0"
       class="ColorScheme-Text" />
  </g>
  <g
     id="22-22-touchpad_disabled"
     transform="translate(-415.0002,143.00336)">
    <path
       style="opacity:0.001"
       d="m 447.0002,-165.00336 h 22 c 0,0 0,0 0,0 v 22 c 0,0 0,0 0,0 h -22 c 0,0 0,0 0,0 v -22 c 0,0 0,0 0,0 z"
       id="path7" />
    <path
       style="opacity:0.3;fill:currentColor"
       d="m 450.90454,-162.00336 -1.94531,1.94922 -0.002,14.05078 h 16.13867 l 1.94726,-1.94727 v -14.05273 z m 12.60157,2 h 1.5371 v 0.53516 l -0.46484,0.46484 h -1.53516 v -0.53711 z m 0,2 h 1.5371 v 0.53516 l -0.46484,0.46484 h -1.53516 v -0.53516 z m 0,2 h 1.5371 v 0.53516 l -0.46484,0.46484 h -1.53516 v -0.53516 z m 0,2 h 1.5371 v 0.53711 l -0.46484,0.46289 h -1.53516 v -0.53516 z m -11.07227,3 h 4.52539 v 3 h -5.91602 v -0.0879 -1.49219 -0.0273 z m 6.52539,0 h 6.08203 l 0.002,1.60742 -1.39257,1.39258 h -4.69141 z"
       id="path2354-1"
       inkscape:connector-curvature="0"
       class="ColorScheme-Text" />
  </g>
  <g
     id="touchpad_enabled"
     transform="translate(1.29545e-6,4.38644e-6)">
    <path
       style="opacity:0.001"
       d="M -1.5909e-6,-4.77288e-6 H 31.999999 c 0,0 0,0 0,0 V 31.999996 c 0,0 0,0 0,0 H -1.5909e-6 c 0,0 0,0 0,0 V -4.77288e-6 c 0,0 0,0 0,0 z"
       id="path12" />
    <path
       inkscape:connector-curvature="0"
       style="fill:currentColor"
       d="M 5.800805,3.9999999 3.0019749,6.8007808 2.9999749,27 H 26.201145 l 2.79888,-2.79688 V 3.9999999 Z m 17.66211,2.9999999 h 2.53711 v 0.535156 l -0.46484,0.464844 h -2.53516 v -0.535156 z m 0,3 h 2.53711 V 10.535156 L 25.535185,11 h -2.53516 v -0.535156 z m 0,3.0000002 h 2.53711 v 0.535156 L 25.535185,14 h -2.53516 v -0.535156 z m 0,3 h 2.53711 v 0.537109 L 25.535185,17 h -2.53516 v -0.535156 z m -15.60742,4 h 7.14453 v 4 h -9 v -2.144531 z m 9.14453,0 h 9 v 2.144531 L 24.144555,24 h -7.14453 z"
       id="path828-3-56-94"
       class="ColorScheme-Text" />
  </g>
  <g
     id="touchpad_disabled"
     transform="translate(32.000002,4.38644e-6)">
    <path
       style="opacity:0.001"
       d="M -1.5909e-6,-4.77288e-6 H 31.999999 c 0,0 0,0 0,0 V 31.999996 c 0,0 0,0 0,0 H -1.5909e-6 c 0,0 0,0 0,0 V -4.77288e-6 c 0,0 0,0 0,0 z"
       id="path17" />
    <path
       inkscape:connector-curvature="0"
       style="opacity:0.3;fill:currentColor"
       d="M 5.8008052,3.9999999 3.0019752,6.8007807 2.9999752,27 H 26.201145 l 2.79888,-2.79688 V 3.9999999 Z M 23.462915,6.9999997 h 2.53711 v 0.535156 l -0.46484,0.464844 h -2.53516 v -0.535156 z m 0,3 h 2.53711 V 10.535156 L 25.535185,11 h -2.53516 v -0.535156 z m 0,3.0000003 h 2.53711 v 0.535156 L 25.535185,14 h -2.53516 v -0.535156 z m 0,3 h 2.53711 v 0.537109 L 25.535185,17 h -2.53516 V 16.464844 Z M 7.8554952,20 h 7.1445298 v 4 H 6.0000252 v -2.144531 z m 9.1445298,0 h 9 v 2.144531 L 24.144555,24 h -7.14453 z"
       id="path828-3-56-94-0"
       class="ColorScheme-Text" />
  </g>
</svg>
