<?xml version="1.0" encoding="UTF-8" standalone="no"?>
<svg
   xmlns:dc="http://purl.org/dc/elements/1.1/"
   xmlns:cc="http://creativecommons.org/ns#"
   xmlns:rdf="http://www.w3.org/1999/02/22-rdf-syntax-ns#"
   xmlns:svg="http://www.w3.org/2000/svg"
   xmlns="http://www.w3.org/2000/svg"
   xmlns:sodipodi="http://sodipodi.sourceforge.net/DTD/sodipodi-0.dtd"
   xmlns:inkscape="http://www.inkscape.org/namespaces/inkscape"
   id="svg54"
   width="32"
   height="32"
   version="1.1"
   sodipodi:docname="update.svg"
   inkscape:version="0.92.5 (2060ec1f9f, 2020-04-08)">
  <style
     id="current-color-scheme" />
  <metadata
     id="metadata37">
    <rdf:RDF>
      <cc:Work
         rdf:about="">
        <dc:format>image/svg+xml</dc:format>
        <dc:type
           rdf:resource="http://purl.org/dc/dcmitype/StillImage" />
      </cc:Work>
    </rdf:RDF>
  </metadata>
  <defs
     id="defs35" />
  <sodipodi:namedview
     pagecolor="#ffffff"
     bordercolor="#666666"
     borderopacity="1"
     objecttolerance="10"
     gridtolerance="10"
     guidetolerance="10"
     inkscape:pageopacity="0"
     inkscape:pageshadow="2"
     inkscape:window-width="1720"
     inkscape:window-height="1298"
     id="namedview33"
     showgrid="false"
     showguides="false"
     inkscape:guide-bbox="true"
     inkscape:zoom="7.9999999"
     inkscape:cx="1.6865006"
     inkscape:cy="50.124728"
     inkscape:window-x="0"
     inkscape:window-y="0"
     inkscape:window-maximized="0"
     inkscape:current-layer="svg54">
    <sodipodi:guide
       position="15.937498,-23.794929"
       orientation="-0.70710678,0.70710678"
       id="guide869"
       inkscape:locked="false" />
    <sodipodi:guide
       position="30.891586,-67.741695"
       orientation="1,0"
       id="guide889"
       inkscape:locked="false" />
  </sodipodi:namedview>
  <g
     id="22-22-update-low"
     transform="translate(32,-22)">
    <rect
       id="rect947"
       style="opacity:0.001;fill:#000000"
       width="22"
       height="22"
       x="0"
       y="32" />
    <path
       style="fill:currentColor"
       d="M 18.244363,50.244207 20.000167,52 21.755637,50.244527 V 49.755393 L 20.000247,48 18.244363,49.755885 Z"
       id="path881-7"
       inkscape:connector-curvature="0"
       sodipodi:nodetypes="ccccccc"
       class="ColorScheme-ButtonHover" />
    <path
       style="opacity:0.9;fill:currentColor"
       d="m 11.000975,35 -7.0234385,7.023438 v 1.953125 L 11.000975,51 18.022464,43.976563 v -1.955078 z m -0.002,3.326172 4.103515,4.101563 v 0.777344 l -0.539062,-0.539063 h -0.63086 v -0.07422 l -2.933593,-2.933594 -1.2324224,1.232422 0.5664064,0.566407 v 0.875 H 7.4364746 v -2.896485 h 0.875 l 0.789062,0.789063 z m -4.1015635,4.466797 0.5390631,0.539063 h 0.630859 v 0.07422 l 2.9316414,2.933594 1.234374,-1.232422 -0.566406,-0.566406 v -0.875 h 2.896485 v 2.896484 h -0.875 l -0.789063,-0.789062 -1.90039,1.898437 -4.1015635,-4.103515 z"
       id="path883-6"
       inkscape:connector-curvature="0"
       class="ColorScheme-Text" />
  </g>
  <g
     id="22-22-update-medium"
     transform="translate(32,-54)">
    <rect
       id="rect965"
       style="opacity:0.001;fill:#000000"
       width="22"
       height="22"
       x="0"
       y="32" />
    <path
       style="opacity:0.95;fill:currentColor"
       d="m 11.000975,35 -7.023439,7.023438 v 1.953125 L 11.000975,51 18.022464,43.976563 v -1.955078 z m -0.002,3.326172 4.103515,4.101563 v 0.777344 l -0.539062,-0.539063 h -0.63086 v -0.07422 l -2.933593,-2.933594 -1.2324229,1.232422 0.5664069,0.566407 v 0.875 H 7.4364741 v -2.896485 h 0.875 l 0.789062,0.789063 z m -4.1015639,4.466797 0.539063,0.539063 h 0.630859 v 0.07422 l 2.9316419,2.933594 1.234374,-1.232422 -0.566406,-0.566406 v -0.875 h 2.896485 v 2.896484 h -0.875 l -0.789063,-0.789062 -1.90039,1.898437 -4.1015639,-4.103515 z"
       id="path883-6-5"
       inkscape:connector-curvature="0"
       class="ColorScheme-Text" />
    <path
       style="fill:currentColor"
       d="M 18.244363,50.244207 20.000167,52 21.755637,50.244527 V 49.755393 L 20.000247,48 18.244363,49.755885 Z"
       id="path881-7-6"
       inkscape:connector-curvature="0"
       sodipodi:nodetypes="ccccccc"
       class="ColorScheme-ButtonHover" />
  </g>
  <g
     id="22-22-update-high"
     transform="translate(32,-86)">
    <rect
       id="rect973"
       style="opacity:0.001;fill:#000000"
       width="22"
       height="22"
       x="0"
       y="32" />
    <path
       style="fill:currentColor"
       d="m 11.000975,35 -7.0234392,7.023438 v 1.953125 L 11.000975,51 18.022464,43.976563 v -1.955078 z m -0.002,3.326172 4.103515,4.101563 v 0.777344 l -0.539062,-0.539063 h -0.63086 v -0.07422 l -2.933593,-2.933594 -1.2324228,1.232422 0.5664068,0.566407 v 0.875 H 7.4364738 v -2.896485 h 0.875 l 0.7890624,0.789063 z m -4.1015642,4.466797 0.539063,0.539063 h 0.630859 v 0.07422 l 2.9316422,2.933594 1.234374,-1.232422 -0.566406,-0.566406 v -0.875 h 2.896485 v 2.896484 h -0.875 l -0.789063,-0.789062 -1.90039,1.898437 -4.1015642,-4.103515 z"
       id="path883-6-5-1"
       inkscape:connector-curvature="0"
       class="ColorScheme-Text" />
    <path
       style="fill:currentColor"
       d="M 18.244363,50.244207 20.000167,52 21.755637,50.244527 V 49.755393 L 20.000247,48 18.244363,49.755885 Z"
       id="path881-7-6-2"
       inkscape:connector-curvature="0"
       sodipodi:nodetypes="ccccccc"
       class="ColorScheme-ButtonHover" />
  </g>
  <g
     id="22-22-update-none"
     transform="translate(32,-118)">
    <rect
       id="rect981"
       style="opacity:0.001;fill:#000000"
       width="22"
       height="22"
       x="0"
       y="32" />
    <path
       style="opacity:0.3;fill:currentColor;stroke-width:0.79999471"
       d="m 11.000975,35 -7.0234391,7.02344 v 1.95312 L 11.000975,51 18.022464,43.97656 v -1.95507 z m -0.002,3.32617 4.103515,4.10157 v 0.77734 l -0.539062,-0.53906 h -0.63086 v -0.0742 l -2.933593,-2.9336 -1.2324229,1.23242 0.5664069,0.56641 v 0.875 H 7.4364739 v -2.89648 h 0.8750002 l 0.789062,0.78906 z m -4.1015641,4.4668 0.539063,0.53906 h 0.6308592 v 0.0742 l 2.9316419,2.9336 1.234374,-1.23243 -0.566406,-0.5664 v -0.875 h 2.896485 v 2.89648 h -0.875 l -0.789063,-0.78906 -1.90039,1.89844 -4.1015641,-4.10352 z"
       id="path883-6-5-1-0"
       inkscape:connector-curvature="0"
       class="ColorScheme-Text" />
  </g>
  <g
     id="update-low">
    <rect
       id="rect901"
       style="opacity:0.001;fill:#000000"
       width="32"
       height="32"
       x="0"
       y="0" />
    <path
       style="fill:currentColor"
       d="M 26.366544,26.36631 29.000251,29 31.633456,26.366791 V 25.633089 L 29.000371,23 26.366544,25.633827 Z"
       id="path881"
       inkscape:connector-curvature="0"
       sodipodi:nodetypes="ccccccc"
       class="ColorScheme-ButtonHover" />
    <path
       style="opacity:0.9;fill:currentColor"
       d="M 16.001953,3.9999999 5.4667968,14.535156 v 2.929688 L 16.001953,28 26.533203,17.466797 v -2.933594 z m -0.002,4.990234 6.15429,6.1542971 v 0.664063 L 21.345653,15 h -1.335934 l -4.009766,-4.011719 -1.849609,1.84961 0.849609,0.849609 V 15 H 10.65425 v -4.345703 h 1.3125 l 1.183594,1.183594 z M 9.8456558,16.191406 10.65425,17 h 1.335937 l 2.595704,2.595703 -0.002,0.002 1.416016,1.414063 1.849609,-1.84961 -0.849609,-0.849609 v -1.3125 h 4.345706 V 21.34575 H 20.03311 l -1.183594,-1.183594 -2.849609,2.847657 -6.1542972,-6.154297 z"
       id="path1145"
       inkscape:connector-curvature="0"
       class="ColorScheme-Text" />
  </g>
  <g
     id="update-medium"
     transform="translate(0,-32)">
    <rect
       id="rect1002"
       style="opacity:0.001;fill:#000000"
       width="32"
       height="32"
       x="0"
       y="0" />
    <path
       style="opacity:0.95;fill:currentColor"
       d="M 16.001953,3.9999997 5.4667968,14.535156 v 2.929688 L 16.001953,28 26.533203,17.466797 v -2.933594 z m -0.002,4.990234 6.15429,6.1542973 v 0.664063 L 21.345653,15 h -1.335934 l -4.009766,-4.011719 -1.849609,1.84961 0.849609,0.849609 V 15 H 10.65425 v -4.345703 h 1.3125 l 1.183594,1.183594 z M 9.8456562,16.191406 10.65425,17 h 1.335937 l 2.595704,2.595703 -0.002,0.002 1.416016,1.414063 1.849609,-1.84961 -0.849609,-0.849609 v -1.3125 h 4.345706 V 21.34575 H 20.03311 l -1.183594,-1.183594 -2.849609,2.847657 -6.1542968,-6.154297 z"
       id="path1145-5"
       inkscape:connector-curvature="0"
       class="ColorScheme-Text" />
    <path
       style="fill:currentColor"
       d="M 26.366544,26.36631 29.000251,29 31.633456,26.366791 V 25.633089 L 29.000371,23 26.366544,25.633827 Z"
       id="path881-3"
       inkscape:connector-curvature="0"
       sodipodi:nodetypes="ccccccc"
       class="ColorScheme-ButtonHover" />
  </g>
  <g
     id="update-high"
     transform="translate(0,-64)">
    <rect
       id="rect1010"
       style="opacity:0.001;fill:#000000"
       width="32"
       height="32"
       x="0"
       y="0" />
    <path
       style="fill:currentColor"
       d="M 16.001953,3.9999999 5.466797,14.535156 v 2.929688 L 16.001953,28 26.533203,17.466797 v -2.933594 z m -0.002,4.990234 6.15429,6.1542971 v 0.664063 L 21.345653,15 h -1.335934 l -4.009766,-4.011719 -1.849609,1.84961 0.849609,0.849609 V 15 H 10.65425 v -4.345703 h 1.3125 l 1.183594,1.183594 z M 9.845656,16.191406 10.65425,17 h 1.335937 l 2.595704,2.595703 -0.002,0.002 1.416016,1.414063 1.849609,-1.84961 -0.849609,-0.849609 v -1.3125 h 4.345706 V 21.34575 H 20.03311 L 18.849516,20.162156 15.999907,23.009813 9.84561,16.855516 Z"
       id="path1145-5-2"
       inkscape:connector-curvature="0"
       class="ColorScheme-Text" />
    <path
       style="fill:currentColor"
       d="M 26.366544,26.36631 29.000251,29 31.633456,26.366791 V 25.633089 L 29.000371,23 26.366544,25.633827 Z"
       id="path881-3-9"
       inkscape:connector-curvature="0"
       sodipodi:nodetypes="ccccccc"
       class="ColorScheme-ButtonHover" />
  </g>
  <g
     id="update-none"
     transform="translate(0,-96)">
    <rect
       id="rect1018"
       style="opacity:0.001;fill:#000000"
       width="32"
       height="32"
       x="0"
       y="0" />
    <path
       style="opacity:0.3;fill:currentColor"
       d="M 16.001953,4.0000001 5.466797,14.53516 v 2.92968 L 16.001953,28 26.533203,17.4668 v -2.9336 z m -0.002,4.9902297 6.15429,6.1543002 v 0.66406 L 21.345653,15 h -1.335934 l -4.009766,-4.01172 -1.849609,1.84961 0.849609,0.84961 V 15 H 10.65425 v -4.3457 h 1.3125 l 1.183594,1.18359 z M 9.845656,16.19141 10.65425,17 h 1.335937 l 2.595704,2.5957 -0.002,0.002 1.416016,1.41407 1.849609,-1.84961 -0.849609,-0.84961 v -1.3125 h 4.345706 v 4.3457 H 20.03311 L 18.849516,20.16216 15.999907,23.00981 9.84561,16.85552 Z"
       id="path1145-7"
       inkscape:connector-curvature="0"
       class="ColorScheme-Text" />
  </g>
</svg>
