<?xml version="1.0" encoding="UTF-8" standalone="no"?>
<svg
   xmlns:dc="http://purl.org/dc/elements/1.1/"
   xmlns:cc="http://creativecommons.org/ns#"
   xmlns:rdf="http://www.w3.org/1999/02/22-rdf-syntax-ns#"
   xmlns:svg="http://www.w3.org/2000/svg"
   xmlns="http://www.w3.org/2000/svg"
   xmlns:sodipodi="http://sodipodi.sourceforge.net/DTD/sodipodi-0.dtd"
   xmlns:inkscape="http://www.inkscape.org/namespaces/inkscape"
   width="32"
   height="32"
   version="1.1"
   id="svg26"
   sodipodi:docname="wallet.svg"
   inkscape:version="0.92.5 (2060ec1f9f, 2020-04-08)">
  <metadata
     id="metadata32">
    <rdf:RDF>
      <cc:Work
         rdf:about="">
        <dc:format>image/svg+xml</dc:format>
        <dc:type
           rdf:resource="http://purl.org/dc/dcmitype/StillImage" />
      </cc:Work>
    </rdf:RDF>
  </metadata>
                <style
     id="current-color-scheme" />
  <defs
     id="defs30" />
  <sodipodi:namedview
     pagecolor="#ffffff"
     bordercolor="#666666"
     borderopacity="1"
     objecttolerance="10"
     gridtolerance="10"
     guidetolerance="10"
     inkscape:pageopacity="0"
     inkscape:pageshadow="2"
     inkscape:window-width="1720"
     inkscape:window-height="1298"
     id="namedview28"
     showgrid="false"
     inkscape:snap-smooth-nodes="true"
     showguides="false"
     inkscape:guide-bbox="true"
     inkscape:snap-midpoints="true"
     inkscape:zoom="16"
     inkscape:cx="47.285957"
     inkscape:cy="23.440882"
     inkscape:window-x="0"
     inkscape:window-y="0"
     inkscape:window-maximized="0"
     inkscape:current-layer="svg26">
    <sodipodi:guide
       position="3.000909,36.495227"
       orientation="1,0"
       id="guide1041"
       inkscape:locked="false" />
    <sodipodi:guide
       position="4.500909,34.995227"
       orientation="0,1"
       id="guide1043"
       inkscape:locked="false" />
    <sodipodi:guide
       position="19.000909,38.995227"
       orientation="0,1"
       id="guide1049"
       inkscape:locked="false" />
    <sodipodi:guide
       position="19.000909,46.995227"
       orientation="0,1"
       id="guide1051"
       inkscape:locked="false" />
    <sodipodi:guide
       position="19.000909,46.995227"
       orientation="1,0"
       id="guide1053"
       inkscape:locked="false" />
    <sodipodi:guide
       position="14.000909,40.327258"
       orientation="1,0"
       id="guide1055"
       inkscape:locked="false" />
    <sodipodi:guide
       position="35,49.5"
       orientation="1,0"
       id="guide1109"
       inkscape:locked="false" />
    <sodipodi:guide
       position="54,40.5625"
       orientation="1,0"
       id="guide1117"
       inkscape:locked="false" />
    <sodipodi:guide
       position="50.311523,50"
       orientation="0,1"
       id="guide1119"
       inkscape:locked="false" />
    <sodipodi:guide
       position="50.714841,36"
       orientation="0,1"
       id="guide1121"
       inkscape:locked="false" />
    <sodipodi:guide
       position="47.5,51"
       orientation="0,1"
       id="guide1131"
       inkscape:locked="false" />
  </sodipodi:namedview>
  <g
     id="wallet-closed">
    <rect
       style="opacity:0.001"
       width="32"
       height="32"
       x="0"
       y="0"
       id="rect14" />
    <path
       inkscape:connector-curvature="0"
       style="fill:currentColor;stroke-width:0.2857143"
       d="m 7.7695308,3.9999999 -3.769531,3.769531 V 28 H 21.230469 L 25,24.230469 V 23 H 21 L 19,21 V 12.076172 L 19.585938,10.662109 20.662109,9.5859369 22.076172,9 H 25 V 3.9999999 Z M 22.076172,11 21,12.076172 V 21 h 6 V 11 Z M 23,15 l 0.876953,0.876953 v 0.246094 L 23,17 22.123047,16.123047 v -0.246094 z"
       id="path864"
       class="ColorScheme-Text" />
  </g>
  <g
     id="22-22-wallet-closed"
     transform="translate(29.66,8.0899998)">
    <rect
       style="opacity:0.001"
       width="22"
       height="22"
       x="-29.66"
       y="-30.09"
       id="rect2" />
    <path
       inkscape:connector-curvature="0"
       style="fill:currentColor"
       d="m -24.145419,-27.085227 -2.513672,2.513672 v 13.486328 h 11.488281 l 2.511719,-2.511719 v -0.488281 h -3 l -1,-1 v -6.742187 l 0.292969,-0.707031 1.257812,-1.257813 0.707031,-0.292969 h 1.742188 v -3 z m 9.74414,4 -1.257812,1.257813 v 6.742187 h 3.744141 l 1.255859,-1.255859 v -6.744141 z m 0.742188,3 0.878906,0.878906 v 0.244141 l -0.878906,0.876954 -0.876953,-0.876954 v -0.244141 z"
       id="path9-3"
       class="ColorScheme-Text" />
  </g>
  <g
     id="22-22-wallet-open"
     transform="translate(27,-27)">
    <rect
       style="opacity:0.001"
       width="22"
       height="22"
       x="5"
       y="5"
       id="rect7" />
    <path
       style="fill:currentColor"
       d="M 50.003906,-18 V -5.5078125 L 49.710938,-4.8007812 48.910156,-4 h 0.892578 L 52,-6.1972656 V -18 Z"
       transform="translate(-27,27)"
       id="path1127"
       inkscape:connector-curvature="0"
       sodipodi:nodetypes="cccccccc"
       class="ColorScheme-ButtonHover" />
    <path
       style="fill:currentColor"
       d="M 37.513672,-19 35,-16.486328 v 13.4902342 h 11.492188 l 2.511718,-2.5117187 V -19 Z M 53,-14.996094 v 7.7441409 l 1,-1 v -6.7441409 z"
       transform="translate(-27,27)"
       id="path9-3-3"
       inkscape:connector-curvature="0"
       class="ColorScheme-Text" />
  </g>
  <g
     id="wallet-open"
     transform="translate(32)">
    <rect
       style="opacity:0.001"
       width="32"
       height="32"
       x="0"
       y="0"
       id="rect19" />
    <path
       style="fill:currentColor"
       d="M 38.769531,4 35,7.7695312 V 28 H 52.230469 L 56,24.230469 V 4 Z M 61,11 v 10 h 2 V 12.076172 L 61.923828,11 Z"
       transform="translate(-32)"
       id="path989"
       inkscape:connector-curvature="0"
       class="ColorScheme-Text" />
    <path
       style="fill:currentColor"
       d="m 58,6 v 17.859375 l 1,-1 V 6 Z"
       transform="translate(-32)"
       id="path1003"
       inkscape:connector-curvature="0"
       sodipodi:nodetypes="ccccc"
       class="ColorScheme-ButtonHover" />
  </g>
</svg>
