<?xml version="1.0" encoding="UTF-8" standalone="no"?>
<svg
   xmlns:dc="http://purl.org/dc/elements/1.1/"
   xmlns:cc="http://creativecommons.org/ns#"
   xmlns:rdf="http://www.w3.org/1999/02/22-rdf-syntax-ns#"
   xmlns:svg="http://www.w3.org/2000/svg"
   xmlns="http://www.w3.org/2000/svg"
   xmlns:sodipodi="http://sodipodi.sourceforge.net/DTD/sodipodi-0.dtd"
   xmlns:inkscape="http://www.inkscape.org/namespaces/inkscape"
   width="32"
   height="32"
   version="1.1"
   id="svg32"
   sodipodi:docname="window.svg"
   inkscape:version="0.92.5 (2060ec1f9f, 2020-04-08)">
  <style
     id="current-color-scheme" >
      .ColorScheme-Text{color:rgb(255,248,247);} .ColorScheme-Background{color:rgb(3,27,22);} .ColorScheme-Highlight{color:rgb(229,27,66);} .ColorScheme-ViewText{color:rgb(250,233,232);} .ColorScheme-ViewBackground{color:rgb(1,13,10);} .ColorScheme-ViewHover{color:rgb(148,34,40);} .ColorScheme-ViewFocus{color:rgb(201,30,60);} .ColorScheme-ButtonText{color:rgb(233,245,243);} .ColorScheme-ButtonBackground{color:rgb(28,4,8);} .ColorScheme-ButtonHover{color:rgb(148,34,40);} .ColorScheme-ButtonFocus{color:rgb(201,30,60);}
  </style>
  <metadata
     id="metadata38">
    <rdf:RDF>
      <cc:Work
         rdf:about="">
        <dc:format>image/svg+xml</dc:format>
        <dc:type
           rdf:resource="http://purl.org/dc/dcmitype/StillImage" />
      </cc:Work>
    </rdf:RDF>
  </metadata>
  <defs
     id="defs36" />
  <sodipodi:namedview
     pagecolor="#ffffff"
     bordercolor="#666666"
     borderopacity="1"
     objecttolerance="10"
     gridtolerance="10"
     guidetolerance="10"
     inkscape:pageopacity="0"
     inkscape:pageshadow="2"
     inkscape:window-width="1720"
     inkscape:window-height="1298"
     id="namedview34"
     showgrid="false"
     inkscape:zoom="32"
     inkscape:cx="39.844949"
     inkscape:cy="5.0067594"
     inkscape:window-x="0"
     inkscape:window-y="0"
     inkscape:window-maximized="0"
     inkscape:current-layer="window-pin"
     inkscape:snap-object-midpoints="false"
     inkscape:snap-center="true"
     showguides="false"
     inkscape:guide-bbox="true">
    <sodipodi:guide
       position="43,2.5"
       orientation="0.70710678,0.70710678"
       id="guide897"
       inkscape:locked="false" />
    <sodipodi:guide
       position="48,5"
       orientation="0.0084742582,-0.99996409"
       id="guide899"
       inkscape:locked="false" />
    <sodipodi:guide
       position="41.268571,4.231429"
       orientation="-0.70710678,0.70710678"
       id="guide901"
       inkscape:locked="false" />
    <sodipodi:guide
       position="44.98437,6.15625"
       orientation="-0.99996407,0.0084769835"
       id="guide903"
       inkscape:locked="false" />
    <sodipodi:guide
       position="43.978879,1.518703"
       orientation="0,1"
       id="guide905"
       inkscape:locked="false" />
    <sodipodi:guide
       position="47.27793,10.240788"
       orientation="0,1"
       id="guide917"
       inkscape:locked="false" />
    <sodipodi:guide
       position="45,8"
       orientation="0.70710678,0.70710678"
       id="guide925"
       inkscape:locked="false" />
    <sodipodi:guide
       position="47.296516,4.994179"
       orientation="-0.99996393,-0.0084939578"
       id="guide927"
       inkscape:locked="false" />
    <sodipodi:guide
       position="45.643881,7.319497"
       orientation="0.0084939698,-0.99996393"
       id="guide929"
       inkscape:locked="false" />
  </sodipodi:namedview>
  <g
     id="window-pin"
     transform="translate(86,-20)">
    <rect
       style="opacity:0.001"
       width="8"
       height="8"
       x="-46"
       y="44"
       id="rect2" />
    <path
       style="fill:currentColor"
       d="m -41.580967,44.680025 -0.482333,0.481703 0.884067,0.884067 -1.99041,1.310989 -6.45e-4,-6.45e-4 -0.323024,-0.322395 h -0.93885 l -0.543411,0.542782 0.0076,0.0069 1.450147,1.450777 L -46,52 l 2.96641,-2.482188 0.974111,0.973481 H -41.12 l 0.542152,-0.542782 -0.778281,-0.778281 1.310359,-1.99104 0.46722,0.46722 h 0.834323 L -38.262524,47.164077 -40.746601,44.68 Z"
       id="path29-3"
       inkscape:connector-curvature="0"
       sodipodi:nodetypes="cccccccccccccccccccccc"
       class="ColorScheme-Text" />
  </g>
  <g
     id="window-unpin"
     transform="translate(98,-20)">
    <rect
       style="opacity:0.001"
       width="8"
       height="8"
       x="-66"
       y="44"
       id="rect7" />
    <path
       style="fill:currentColor"
       d="m -61.580967,44.680025 -0.482333,0.481703 0.884067,0.884067 -1.99041,1.310989 -6.45e-4,-6.45e-4 -0.323024,-0.322395 h -0.93885 l -0.543411,0.542782 0.0076,0.0069 1.450147,1.450777 L -66,52 l 2.96641,-2.482188 0.974111,0.973481 H -61.12 l 0.542152,-0.542782 -0.778281,-0.778281 1.310359,-1.99104 0.46722,0.46722 h 0.834323 L -58.262524,47.164077 -60.746601,44.68 Z"
       id="path29"
       inkscape:connector-curvature="0"
       sodipodi:nodetypes="cccccccccccccccccccccc"
       class="ColorScheme-ButtonHover" />
  </g>
  <rect
     style="opacity:0.001"
     width="22"
     height="22"
     x="-38.33"
     y="13.77"
     id="rect12" />
  <g
     id="22-22-window-close"
     transform="translate(0,-22)">
    <rect
       style="opacity:0.001"
       width="22"
       height="22"
       x="0"
       y="0"
       id="rect14" />
    <g
       transform="matrix(1.7493122,0,0,1.7499488,-107.95048,-909.47286)"
       id="g20">
      <g
         transform="translate(19,-242)"
         id="g18">
        <path
           style="fill:currentColor;stroke-width:0.85714287;enable-background:new"
           d="m 45.569856,764.57131 h 1.205262 l 2.223311,2.22321 2.224023,-2.22321 h 1.204547 v 1.23339 l -2.209376,2.20857 2.209376,2.20857 v 1.20661 h -1.231342 l -2.197229,-2.19643 -2.197228,2.19643 h -1.231344 l 2e-6,-1.20661 2.209377,-2.20857 -2.209379,-2.18224 z"
           id="path145-3"
           inkscape:connector-curvature="0"
           sodipodi:nodetypes="ccccccccccccccccc"
           class="ColorScheme-Text" />
      </g>
    </g>
  </g>
  <g
     id="window-close">
    <rect
       style="opacity:0.001"
       width="32"
       height="32"
       x="0"
       y="0"
       id="rect23" />
    <g
       style="enable-background:new"
       transform="matrix(2.2491814,0,0,2.25,-136.94433,-1167.5)"
       id="g149">
      <g
         transform="translate(19,-242)"
         id="g147">
        <path
           style="fill:currentColor"
           d="m 45,764 h 1.406138 l 2.593863,2.59375 L 51.594695,764 H 53 v 1.43896 L 50.422394,768.01562 53,770.59229 V 772 H 51.563434 L 49,769.4375 46.436568,772 H 45 l 2e-6,-1.40771 2.577607,-2.57667 L 45,765.46968 Z"
           id="path145"
           inkscape:connector-curvature="0"
           sodipodi:nodetypes="ccccccccccccccccc"
           class="ColorScheme-Text" />
      </g>
    </g>
  </g>
</svg>
