<?xml version="1.0" encoding="UTF-8" standalone="no"?>
<svg
   xmlns:dc="http://purl.org/dc/elements/1.1/"
   xmlns:cc="http://creativecommons.org/ns#"
   xmlns:rdf="http://www.w3.org/1999/02/22-rdf-syntax-ns#"
   xmlns:svg="http://www.w3.org/2000/svg"
   xmlns="http://www.w3.org/2000/svg"
   xmlns:sodipodi="http://sodipodi.sourceforge.net/DTD/sodipodi-0.dtd"
   xmlns:inkscape="http://www.inkscape.org/namespaces/inkscape"
   width="32"
   height="32"
   version="1.1"
   id="svg22"
   sodipodi:docname="zoom.svg"
   inkscape:version="0.92.5 (2060ec1f9f, 2020-04-08)">
                    <style
     id="current-color-scheme" >
      .ColorScheme-Text{color:rgb(255,248,247);} .ColorScheme-Background{color:rgb(3,27,22);} .ColorScheme-Highlight{color:rgb(229,27,66);} .ColorScheme-ViewText{color:rgb(250,233,232);} .ColorScheme-ViewBackground{color:rgb(1,13,10);} .ColorScheme-ViewHover{color:rgb(148,34,40);} .ColorScheme-ViewFocus{color:rgb(201,30,60);} .ColorScheme-ButtonText{color:rgb(233,245,243);} .ColorScheme-ButtonBackground{color:rgb(28,4,8);} .ColorScheme-ButtonHover{color:rgb(148,34,40);} .ColorScheme-ButtonFocus{color:rgb(201,30,60);}
  </style>
  <metadata
     id="metadata28">
    <rdf:RDF>
      <cc:Work
         rdf:about="">
        <dc:format>image/svg+xml</dc:format>
        <dc:type
           rdf:resource="http://purl.org/dc/dcmitype/StillImage" />
      </cc:Work>
    </rdf:RDF>
  </metadata>
  <defs
     id="defs26" />
  <sodipodi:namedview
     pagecolor="#ffffff"
     bordercolor="#666666"
     borderopacity="1"
     objecttolerance="10"
     gridtolerance="10"
     guidetolerance="10"
     inkscape:pageopacity="0"
     inkscape:pageshadow="2"
     inkscape:window-width="1720"
     inkscape:window-height="1298"
     id="namedview24"
     showgrid="false"
     inkscape:zoom="5.2149125"
     inkscape:cx="52.571401"
     inkscape:cy="-2.8581396"
     inkscape:window-x="1720"
     inkscape:window-y="0"
     inkscape:window-maximized="0"
     inkscape:current-layer="22-22-zoom-fit-height" />
  <g
     id="22-22-zoom-fit-width"
     transform="translate(-433,42.999998)">
    <rect
       style="opacity:0.001"
       width="22"
       height="22"
       x="465"
       y="-65"
       id="rect2" />
    <path
       id="path847"
       d="m 470.8752,-57.10334 -3.875,3.1 3.875,3.1 1.125,-1.123648 v -0.976352 h 8 v 0.954722 l 1.125,1.123648 3.875,-3.07837 -3.875,-3.1 -1.125,1.123648 v 0.976352 h -8 v -0.976352 z"
       style="fill:currentColor"
       inkscape:connector-curvature="0"
       inkscape:transform-center-x="-9"
       sodipodi:nodetypes="ccccccccccccccc"
       class="ColorScheme-Text" />
  </g>
  <g
     id="22-22-zoom-fit-height"
     transform="rotate(90,222,-265)">
    <rect
       style="opacity:0.001"
       width="22"
       height="22"
       x="465"
       y="-65"
       id="rect7" />
    <path
       id="path847-6"
       d="m 470.8752,-57.10334 -3.875,3.1 3.875,3.1 1.125,-1.12365 v -0.97635 h 8 v 0.95472 l 1.125,1.12365 3.875,-3.07837 -3.875,-3.1 -1.125,1.12365 v 0.97635 h -8 v -0.97635 z"
       style="fill:currentColor"
       inkscape:connector-curvature="0"
       sodipodi:nodetypes="ccccccccccccccc"
       class="ColorScheme-Text"
       inkscape:transform-center-y="9" />
  </g>
  <g
     id="zoom-fit-height">
    <rect
       style="opacity:0.001"
       width="32"
       height="32"
       x="0"
       y="-32"
       transform="rotate(90)"
       id="rect12" />
    <path
       d="M 20.107422,8.3750001 15.5,3.0000001 10.892578,8.3750001 12.515625,10 H 13.5 V 22 H 12.515625 L 10.892578,23.625 15.5,29 20.107422,23.625 18.484375,22 H 17.5 V 10 h 0.984375 z"
       id="path19-3-3"
       inkscape:connector-curvature="0"
       style="fill:currentColor"
       class="ColorScheme-Text" />
  </g>
  <g
     id="zoom-fit-width"
     transform="rotate(90,31.999999,31.999999)">
    <rect
       style="opacity:0.00100002"
       width="32"
       height="32"
       x="-2e-06"
       y="-32"
       transform="rotate(90)"
       id="rect17" />
    <path
       d="M 10.892578,23.625 15.5,29 20.107422,23.625 18.484375,22 H 17.5 V 10 h 0.984375 L 20.107422,8.375 15.5,3 10.892578,8.375 12.515625,10 H 13.5 v 12 h -0.984375 z"
       id="path19-3"
       inkscape:connector-curvature="0"
       style="fill:currentColor"
       class="ColorScheme-Text" />
  </g>
</svg>
