<?xml version="1.0" encoding="UTF-8" standalone="no"?>
<svg
   xmlns:dc="http://purl.org/dc/elements/1.1/"
   xmlns:cc="http://creativecommons.org/ns#"
   xmlns:rdf="http://www.w3.org/1999/02/22-rdf-syntax-ns#"
   xmlns:svg="http://www.w3.org/2000/svg"
   xmlns="http://www.w3.org/2000/svg"
   xmlns:sodipodi="http://sodipodi.sourceforge.net/DTD/sodipodi-0.dtd"
   xmlns:inkscape="http://www.inkscape.org/namespaces/inkscape"
   id="svg59"
   width="172"
   height="172"
   version="1"
   sodipodi:docname="clock.svg"
   inkscape:version="0.92.5 (2060ec1f9f, 2020-04-08)">
  <metadata
     id="metadata49">
    <rdf:RDF>
      <cc:Work
         rdf:about="">
        <dc:format>image/svg+xml</dc:format>
        <dc:type
           rdf:resource="http://purl.org/dc/dcmitype/StillImage" />
        <dc:title />
      </cc:Work>
    </rdf:RDF>
  </metadata>
  <style
     id="current-color-scheme" >
      .ColorScheme-Text{color:rgb(255,248,247);} .ColorScheme-Background{color:rgb(3,27,22);} .ColorScheme-Highlight{color:rgb(229,27,66);} .ColorScheme-ViewText{color:rgb(250,233,232);} .ColorScheme-ViewBackground{color:rgb(1,13,10);} .ColorScheme-ViewHover{color:rgb(148,34,40);} .ColorScheme-ViewFocus{color:rgb(201,30,60);} .ColorScheme-ButtonText{color:rgb(233,245,243);} .ColorScheme-ButtonBackground{color:rgb(28,4,8);} .ColorScheme-ButtonHover{color:rgb(148,34,40);} .ColorScheme-ButtonFocus{color:rgb(201,30,60);}
  </style>
  <defs
     id="defs47" />
  <sodipodi:namedview
     pagecolor="#ffffff"
     bordercolor="#666666"
     borderopacity="1"
     objecttolerance="10"
     gridtolerance="10"
     guidetolerance="10"
     inkscape:pageopacity="0"
     inkscape:pageshadow="2"
     inkscape:window-width="1720"
     inkscape:window-height="1363"
     id="namedview45"
     showgrid="false"
     inkscape:pagecheckerboard="true"
     inkscape:zoom="5.4883721"
     inkscape:cx="230.7569"
     inkscape:cy="36.160308"
     inkscape:window-x="1720"
     inkscape:window-y="0"
     inkscape:window-maximized="0"
     inkscape:current-layer="svg59"
     inkscape:snap-object-midpoints="true"
     inkscape:snap-center="true"
     inkscape:snap-smooth-nodes="true"
     showguides="false"
     inkscape:guide-bbox="true"
     inkscape:snap-page="true">
    <sodipodi:guide
       position="-52.104722,159.8241"
       orientation="0,1"
       id="guide981"
       inkscape:locked="false" />
    <sodipodi:guide
       position="-52.104722,154.95897"
       orientation="0,1"
       id="guide983"
       inkscape:locked="false" />
    <sodipodi:guide
       position="177.00002,91.000002"
       orientation="-0.70710678,0.70710678"
       id="guide882"
       inkscape:locked="false" />
    <sodipodi:guide
       position="185.00002,91.000002"
       orientation="0.70710678,0.70710678"
       id="guide886"
       inkscape:locked="false" />
    <sodipodi:guide
       position="205.58594,18.57617"
       orientation="0.70710678,0.70710678"
       id="guide890"
       inkscape:locked="false" />
    <sodipodi:guide
       position="181.00002,40"
       orientation="-0.70710678,0.70710678"
       id="guide892"
       inkscape:locked="false" />
    <sodipodi:guide
       position="177.00002,44"
       orientation="1,0"
       id="guide909"
       inkscape:locked="false" />
    <sodipodi:guide
       position="185.00002,44"
       orientation="1,0"
       id="guide911"
       inkscape:locked="false" />
    <sodipodi:guide
       position="206,1"
       orientation="1,0"
       id="guide947"
       inkscape:locked="false" />
    <sodipodi:guide
       position="212,95"
       orientation="1,0"
       id="guide949"
       inkscape:locked="false" />
    <sodipodi:guide
       position="209,48"
       orientation="1,0"
       id="guide951"
       inkscape:locked="false" />
    <sodipodi:guide
       position="212,1"
       orientation="0,1"
       id="guide953"
       inkscape:locked="false" />
    <sodipodi:guide
       position="209,95"
       orientation="-0.70710678,0.70710678"
       id="guide972"
       inkscape:locked="false" />
    <sodipodi:guide
       position="209,95"
       orientation="0.70710678,0.70710678"
       id="guide980"
       inkscape:locked="false" />
    <sodipodi:guide
       position="212.41211,18.57617"
       orientation="-0.70710678,0.70710678"
       id="guide999"
       inkscape:locked="false" />
    <sodipodi:guide
       position="208.99909,5.37894"
       orientation="-0.70710678,0.70710678"
       id="guide1003"
       inkscape:locked="false" />
    <sodipodi:guide
       position="209,5.37985"
       orientation="0.70710678,0.70710678"
       id="guide1007"
       inkscape:locked="false" />
    <sodipodi:guide
       position="85.999996,85.999992"
       orientation="0,1"
       id="guide1012"
       inkscape:locked="false" />
    <sodipodi:guide
       position="86,11"
       orientation="0,1"
       id="guide1014"
       inkscape:locked="false" />
    <sodipodi:guide
       position="223.78169,-238.7074"
       orientation="1,0"
       id="guide1025"
       inkscape:locked="false" />
    <sodipodi:guide
       position="329.69755,-238.71707"
       orientation="1,0"
       id="guide1027"
       inkscape:locked="false" />
    <sodipodi:guide
       position="276.74702,-171.01207"
       orientation="-0.70710678,0.70710678"
       id="guide1034"
       inkscape:locked="false" />
    <sodipodi:guide
       position="276.74702,-171.01207"
       orientation="0.70710678,0.70710678"
       id="guide1036"
       inkscape:locked="false" />
    <sodipodi:guide
       position="329.69755,-238.71707"
       orientation="1,0"
       id="guide1038"
       inkscape:locked="false" />
    <sodipodi:guide
       position="223.78169,-240.87288"
       orientation="1,0"
       id="guide1040"
       inkscape:locked="false" />
    <sodipodi:guide
       position="209,95"
       orientation="0,1"
       id="guide1074"
       inkscape:locked="false" />
  </sodipodi:namedview>
  <g
     id="SecondHand">
    <circle
       style="fill:currentColor"
       id="path1091"
       cx="244"
       cy="87"
       r="10"
       class="ColorScheme-Background" />
    <rect
       id="rect8"
       style="opacity:0.001"
       width="22"
       height="96"
       x="233"
       y="76" />
    <path
       id="path10"
       style="fill:currentColor"
       d="m 245,83 v 78.99958 c -0.67889,6.3e-4 -1.04069,3e-4 -2,8.4e-4 V 83.00027 Z"
       inkscape:connector-curvature="0"
       sodipodi:nodetypes="ccccc"
       class="ColorScheme-Highlight" />
  </g>
  <g
     id="MinuteHand"
     transform="translate(-35,-36)">
    <path
       style="fill:currentColor"
       d="m 209,77 -3,3 0.002,69.05469 2.99805,-3 3,3 L 212,80 Z m -7.57617,72.26172 7.57422,7.57617 7.57617,-7.57617 h -4.16211 L 209,152.67578 l -3.41406,-3.41406 z"
       transform="translate(35,36)"
       id="rect56"
       inkscape:connector-curvature="0"
       sodipodi:nodetypes="cccccccccccccc"
       class="ColorScheme-Text" />
  </g>
  <g
     id="HourHand">
    <rect
       id="rect872"
       style="opacity:0.001"
       width="10"
       height="96"
       x="176"
       y="76" />
    <path
       style="fill:currentColor"
       d="m 181,77 -4,4 v 40.33396 l 4,-4 4,4 V 81 Z m 0,45.8867 -4,4 v 1.11328 l 4,4 4,-4 v -1.11524 z"
       id="path916"
       inkscape:connector-curvature="0"
       sodipodi:nodetypes="cccccccccccccc"
       class="ColorScheme-ButtonText" />
  </g>
  <g
     id="ClockFace">
    <path
       id="rect33"
       style="opacity:0.02999998"
       d="M 82.103516,11.097656 C 42.101451,13.112309 10.5,45.980094 10.5,86.5 10.5,128.327 44.173,162 86,162 127.827,162 161.5,128.327 161.5,86.5 161.5,45.971582 129.88509,13.099766 89.871094,11.097656 129.60824,13.098967 161,45.748438 161,86 c 0,41.55 -33.45,75 -75,75 -41.55,0 -75,-33.45 -75,-75 0,-40.251562 31.391756,-72.901033 71.128906,-74.902344 -0.0084,4.21e-4 -0.01699,-4.23e-4 -0.02539,0 z"
       inkscape:connector-curvature="0" />
    <path
       id="rect35"
       style="opacity:0.02999998"
       d="m 86,10.5 c -41.827,0 -75.5,33.673 -75.5,75.5 0,41.827 33.673,75.5 75.5,75.5 41.827,0 75.5,-33.673 75.5,-75.5 0,-41.827 -33.673,-75.5 -75.5,-75.5 z m 0,0.5 c 41.55,0 75,33.45 75,75 0,41.55 -33.45,75 -75,75 C 44.45,161 11,127.55 11,86 11,44.45 44.45,11 86,11 Z"
       inkscape:connector-curvature="0" />
    <rect
       class="ColorScheme-ButtonBackground"
       id="rect37"
       style="opacity:0.95;fill:currentColor;stroke:none;stroke-width:0.5;stroke-miterlimit:4;stroke-dasharray:none;stroke-opacity:1"
       width="150"
       height="150"
       x="-161"
       y="-161"
       rx="75"
       ry="75"
       transform="matrix(0,-1,-1,0,0,0)" />
    <path
       class="ColorScheme-ButtonText"
       inkscape:connector-curvature="0"
       id="flowRoot889"
       d="m 77.441406,16.845703 v 1.097656 l 0.792969,0.148438 2.431641,10.738281 -2.396485,8.988281 -0.970703,0.179688 v 1.097656 h 2.945313 v -1.097656 l -1.076172,-0.179688 1.816406,-7.623047 1.728516,7.623047 -0.917969,0.179688 v 1.097656 h 4.001953 v -1.097656 l -0.792969,-0.148438 -2.55664,-11.214843 2.203125,-8.542969 0.988281,-0.148438 v -1.097656 h -2.873047 v 1.097656 l 0.986328,0.148438 -1.621094,7.208984 -1.640625,-7.208984 0.935547,-0.148438 v -1.097656 z m 8.603516,0 v 1.097656 l 1.003906,0.148438 c 0.01763,3.025877 0.01758,6.110473 0.01758,9.166015 v 1.394532 c 0,3.114873 5.2e-5,6.171388 -0.01758,9.197265 l -1.003906,0.148438 v 1.097656 h 4.177734 v -1.097656 l -1.005859,-0.148438 c -0.01763,-3.025877 -0.01758,-6.112057 -0.01758,-9.197265 v -1.394532 c 0,-3.114873 -5.2e-5,-6.169804 0.01758,-9.166015 l 1.005859,-0.148438 v -1.097656 z m 4.511719,0 v 1.097656 l 1.005859,0.148438 c 0.01763,3.025877 0.01758,6.110473 0.01758,9.166015 v 1.394532 c 0,3.114873 5.2e-5,6.171388 -0.01758,9.197265 l -1.005859,0.148438 v 1.097656 h 4.179687 v -1.097656 l -1.005859,-0.148438 c -0.01763,-3.025877 -0.01758,-6.112057 -0.01758,-9.197265 v -1.394532 c 0,-3.114873 -5.2e-5,-6.169804 0.01758,-9.166015 l 1.005859,-0.148438 v -1.097656 z"
       style="font-style:normal;font-weight:normal;font-size:40px;line-height:1.25;font-family:sans-serif;letter-spacing:0px;word-spacing:0px;fill:currentColor;fill-opacity:1;stroke:none;stroke-width:0.57173115" />
    <path
       class="ColorScheme-ButtonText"
       inkscape:connector-curvature="0"
       id="flowRoot895"
       d="m 132.9043,77.75 v 5.199219 h 1.09765 l 0.17969,-1.357422 c 3.02588,-0.03526 6.08081,-0.03516 9.16602,-0.03516 h 1.39453 c 3.08521,0 6.1698,-1.04e-4 9.16601,0.03516 l 0.14844,1.357422 h 1.09766 V 77.75 h -1.09766 l -0.14844,1.375 c -3.05554,0.03526 -6.11047,0.03516 -9.16601,0.03516 h -1.39453 c -3.08521,0 -6.16981,1.04e-4 -9.16602,-0.03516 l -0.17969,-1.375 z m 0,5.675781 v 5.183594 h 1.09765 l 0.17969,-1.357422 c 3.02588,-0.03526 6.08081,-0.03516 9.16602,-0.03516 h 1.39453 c 3.08521,0 6.1698,-1.04e-4 9.16601,0.03516 l 0.14844,1.357422 h 1.09766 v -5.183594 h -1.09766 l -0.14844,1.357422 c -3.05554,0.03526 -6.11047,0.03516 -9.16601,0.03516 h -1.39453 c -3.08521,0 -6.16981,1.04e-4 -9.16602,-0.03516 l -0.17969,-1.357422 z m 0,5.660157 v 5.199218 h 1.09765 l 0.17969,-1.375 c 3.02588,-0.03526 6.08081,-0.03516 9.16602,-0.03516 h 1.39453 c 3.08521,0 6.1698,-1.04e-4 9.16601,0.03516 l 0.14844,1.375 h 1.09766 v -5.199218 h -1.09766 l -0.14844,1.357421 c -3.05554,0.03526 -6.11047,0.03516 -9.16601,0.03516 h -1.39453 c -3.08521,0 -6.16981,1.03e-4 -9.16602,-0.03516 l -0.17969,-1.357421 z"
       style="font-style:normal;font-weight:normal;font-size:40px;line-height:1.25;font-family:sans-serif;letter-spacing:0px;word-spacing:0px;fill:currentColor;fill-opacity:1;stroke:none;stroke-width:0.57173115" />
    <path
       inkscape:connector-curvature="0"
       class="ColorScheme-ButtonText"
       id="flowRoot919"
       d="m 88.044922,132.8457 -3.773438,21.0625 -1.25,0.20703 v 1.09766 h 3.701172 v -1.06641 l -1.585937,-0.23828 2.83789,-16.79101 2.785157,16.82031 -1.533204,0.20898 v 1.06641 h 5.289063 v -1.09766 l -1.111328,-0.14843 -3.773438,-21.1211 z m -10.595703,0.11914 v 1.09766 l 1.392578,0.17773 c 0.01763,3.02588 0.01758,6.08081 0.01758,9.16602 v 1.39453 c 0,3.08521 5.2e-5,6.17017 -0.01758,9.13672 l -1.392578,0.17773 v 1.09766 h 5.236328 v -1.09766 l -1.392578,-0.17773 c -0.03526,-3.02588 -0.03516,-6.08118 -0.03516,-9.13672 v -1.39453 c 0,-3.08521 -1.03e-4,-6.1698 0.03516,-9.16602 l 1.392578,-0.17773 v -1.09766 z"
       style="font-style:normal;font-weight:normal;font-size:40px;line-height:1.25;font-family:sans-serif;letter-spacing:0px;word-spacing:0px;fill:currentColor;fill-opacity:1;stroke:none;stroke-width:0.57173115" />
    <circle
       transform="rotate(30)"
       inkscape:transform-center-y="-51.978402"
       inkscape:transform-center-x="-30.030097"
       class="ColorScheme-ButtonText"
       r="2.432565"
       cy="-28.551481"
       cx="117.49581"
       id="path891"
       style="fill:currentColor;stroke:none;stroke-width:1;stroke-miterlimit:4;stroke-dasharray:none;opacity:0.5" />
    <circle
       style="fill:currentColor;stroke:none;stroke-width:1;stroke-miterlimit:4;stroke-dasharray:none;opacity:0.5"
       class="ColorScheme-ButtonText"
       id="circle893"
       cx="117.49581"
       cy="-91.507851"
       r="2.432565"
       inkscape:transform-center-x="-51.996028"
       inkscape:transform-center-y="-29.999567"
       transform="rotate(60)" />
    <circle
       style="fill:currentColor;stroke:none;stroke-width:1;stroke-miterlimit:4;stroke-dasharray:none;opacity:0.5"
       class="ColorScheme-ButtonText"
       id="circle911"
       cx="31.49581"
       cy="-177.50786"
       r="2.432565"
       inkscape:transform-center-x="-30.030098"
       inkscape:transform-center-y="51.978403"
       transform="matrix(0.8660254,-0.5,-0.5,-0.8660254,0,0)" />
    <circle
       transform="matrix(0.5,-0.8660254,-0.8660254,-0.5,0,0)"
       inkscape:transform-center-y="29.999571"
       inkscape:transform-center-x="-51.996034"
       class="ColorScheme-ButtonText"
       r="2.432565"
       cy="-177.50786"
       cx="-31.46056"
       id="circle913"
       style="fill:currentColor;stroke:none;stroke-width:1;stroke-miterlimit:4;stroke-dasharray:none;opacity:0.5" />
    <circle
       transform="rotate(-150)"
       inkscape:transform-center-y="51.978404"
       inkscape:transform-center-x="30.030093"
       r="2.432565"
       cy="-91.507858"
       class="ColorScheme-ButtonText"
       cx="-117.46056"
       id="circle917"
       style="fill:currentColor;stroke:none;stroke-width:1;stroke-miterlimit:4;stroke-dasharray:none;opacity:0.5" />
    <circle
       style="fill:currentColor;stroke:none;stroke-width:1;stroke-miterlimit:4;stroke-dasharray:none;opacity:0.5"
       id="circle919"
       cx="-117.46056"
       cy="-28.551493"
       r="2.432565"
       inkscape:transform-center-x="51.996035"
       inkscape:transform-center-y="29.99957"
       transform="rotate(-120)"
       class="ColorScheme-ButtonText" />
    <circle
       style="fill:currentColor;stroke:none;stroke-width:1;stroke-miterlimit:4;stroke-dasharray:none;opacity:0.5"
       class="ColorScheme-ButtonText"
       id="circle924"
       cx="-31.460567"
       cy="57.448509"
       r="2.432565"
       inkscape:transform-center-x="30.030091"
       inkscape:transform-center-y="-51.978401"
       transform="matrix(-0.8660254,0.5,0.5,0.8660254,0,0)" />
    <circle
       transform="matrix(-0.5,0.8660254,0.8660254,0.5,0,0)"
       inkscape:transform-center-y="-29.999568"
       inkscape:transform-center-x="51.996039"
       class="ColorScheme-ButtonText"
       r="2.432565"
       cy="57.448502"
       cx="31.495802"
       id="circle926"
       style="fill:currentColor;stroke:none;stroke-width:1;stroke-miterlimit:4;stroke-dasharray:none;opacity:0.5" />
    <path
       id="flowRoot903"
       d="M 37.998047,77.554688 37.789062,78.789062 26.8125,82.244141 18.121094,79.160156 17.943359,77.802734 h -1.097656 v 3.789063 h 1.097656 l 0.207032,-1.445313 7.535156,2.451172 -7.564453,2.378906 -0.177735,-1.304687 h -1.097656 v 4.955078 h 1.097656 l 0.148438,-1.146484 10.650391,-3.332031 9.017578,3.261718 0.238281,1.462891 h 1.097656 v -3.914063 h -1.097656 l -0.238281,1.482422 -7.832032,-2.662109 7.861328,-2.46875 0.208985,1.269531 h 1.097656 v -5.02539 z M 16.845703,89.191406 v 5.21875 h 1.097656 l 0.177735,-1.375 C 21.146971,92.999896 24.20227,93 27.257812,93 h 1.394532 c 3.085208,0 6.169804,-1.04e-4 9.166015,0.03516 l 0.179688,1.375 h 1.097656 v -5.21875 h -1.097656 l -0.179688,1.375 c -3.025877,0.03526 -6.080807,0.03516 -9.166015,0.03516 h -1.394532 c -3.085207,0 -6.170172,1.04e-4 -9.136718,-0.03516 l -0.177735,-1.375 z"
       style="font-style:normal;font-weight:normal;font-size:40px;line-height:1.25;font-family:sans-serif;letter-spacing:0px;word-spacing:0px;fill:currentColor;fill-opacity:1;stroke:none;stroke-width:0.57173115"
       inkscape:connector-curvature="0"
       class="ColorScheme-ButtonText" />
    <rect
       style="fill:none;fill-opacity:0.04705882;stroke:none;stroke-width:1.38675046;stroke-miterlimit:4;stroke-dasharray:none"
       id="rect861"
       width="6.1949153"
       height="9.1101694"
       x="0"
       y="0"
       rx="75"
       ry="9.1101694" />
    <rect
       ry="9.1101694"
       rx="75"
       y="162.88983"
       x="165.80508"
       height="9.1101694"
       width="6.1949153"
       id="rect878"
       style="fill:none;fill-opacity:0.04705882;stroke:none;stroke-width:1.38675046;stroke-miterlimit:4;stroke-dasharray:none" />
  </g>
  <path
     style="fill:currentColor"
     d="m 193.83198,201.46256 8.77903,8.77896 8.77735,-8.77736 v -2.44567 l -8.77696,-8.77696 -8.77942,8.77942 z"
     id="HandCenterScrew"
     inkscape:connector-curvature="0"
     sodipodi:nodetypes="ccccccc"
     class="ColorScheme-ButtonText" />
</svg>
