<?xml version="1.0" encoding="UTF-8" standalone="no"?>
<svg
   xmlns:dc="http://purl.org/dc/elements/1.1/"
   xmlns:cc="http://creativecommons.org/ns#"
   xmlns:rdf="http://www.w3.org/1999/02/22-rdf-syntax-ns#"
   xmlns:svg="http://www.w3.org/2000/svg"
   xmlns="http://www.w3.org/2000/svg"
   xmlns:sodipodi="http://sodipodi.sourceforge.net/DTD/sodipodi-0.dtd"
   xmlns:inkscape="http://www.inkscape.org/namespaces/inkscape"
   width="200"
   height="100"
   version="1"
   id="svg152"
   sodipodi:docname="configuration-icons.svg"
   inkscape:version="0.92.5 (2060ec1f9f, 2020-04-08)">
  <style
     id="current-color-scheme" />
  <metadata
     id="metadata158">
    <rdf:RDF>
      <cc:Work
         rdf:about="">
        <dc:format>image/svg+xml</dc:format>
        <dc:type
           rdf:resource="http://purl.org/dc/dcmitype/StillImage" />
      </cc:Work>
    </rdf:RDF>
  </metadata>
  <defs
     id="defs156" />
  <sodipodi:namedview
     pagecolor="#ffffff"
     bordercolor="#666666"
     borderopacity="1"
     objecttolerance="10"
     gridtolerance="10"
     guidetolerance="10"
     inkscape:pageopacity="0"
     inkscape:pageshadow="2"
     inkscape:window-width="1720"
     inkscape:window-height="1298"
     id="namedview154"
     showgrid="false"
     showguides="false"
     inkscape:guide-bbox="true"
     inkscape:zoom="5.6568543"
     inkscape:cx="90.857799"
     inkscape:cy="35.548435"
     inkscape:window-x="1403"
     inkscape:window-y="302"
     inkscape:window-maximized="0"
     inkscape:current-layer="return-to-source"
     inkscape:snap-smooth-nodes="true"
     inkscape:snap-center="false"
     inkscape:snap-object-midpoints="true"
     inkscape:snap-midpoints="true">
    <sodipodi:guide
       position="114,53.000011"
       orientation="1,0"
       id="guide931"
       inkscape:locked="false" />
    <sodipodi:guide
       position="114,55.000011"
       orientation="0,1"
       id="guide933"
       inkscape:locked="false" />
    <sodipodi:guide
       position="114,53.000011"
       orientation="0,1"
       id="guide935"
       inkscape:locked="false" />
    <sodipodi:guide
       position="126,53.000011"
       orientation="1,0"
       id="guide937"
       inkscape:locked="false" />
    <sodipodi:guide
       position="114,54.072277"
       orientation="0,1"
       id="guide939"
       inkscape:locked="false" />
    <sodipodi:guide
       position="145,53.927745"
       orientation="-0.70710678,0.70710678"
       id="guide941"
       inkscape:locked="false" />
    <sodipodi:guide
       position="163,55.000011"
       orientation="1,0"
       id="guide945"
       inkscape:locked="false" />
    <sodipodi:guide
       position="163,53.927745"
       orientation="-0.70710678,0.70710678"
       id="guide947"
       inkscape:locked="false" />
    <sodipodi:guide
       position="145,55.000011"
       orientation="1,0"
       id="guide949"
       inkscape:locked="false" />
    <sodipodi:guide
       position="162,78.000034"
       orientation="0,1"
       id="guide951"
       inkscape:locked="false" />
    <sodipodi:guide
       position="150,66.000022"
       orientation="0,1"
       id="guide953"
       inkscape:locked="false" />
    <sodipodi:guide
       position="156.34375,72.714854"
       orientation="1,0"
       id="guide955"
       inkscape:locked="false" />
    <sodipodi:guide
       position="155.65625,71.285199"
       orientation="1,0"
       id="guide957"
       inkscape:locked="false" />
    <sodipodi:guide
       position="154.24218,72.699234"
       orientation="0,1"
       id="guide959"
       inkscape:locked="false" />
    <sodipodi:guide
       position="157.75782,71.300824"
       orientation="0,1"
       id="guide961"
       inkscape:locked="false" />
    <sodipodi:guide
       position="131,53.000011"
       orientation="1,0"
       id="guide963"
       inkscape:locked="false" />
    <sodipodi:guide
       position="131,54.072277"
       orientation="-0.70710678,0.70710678"
       id="guide965"
       inkscape:locked="false" />
    <sodipodi:guide
       position="149,53.000011"
       orientation="1,0"
       id="guide967"
       inkscape:locked="false" />
    <sodipodi:guide
       position="149,54.072277"
       orientation="-0.70710678,0.70710678"
       id="guide969"
       inkscape:locked="false" />
    <sodipodi:guide
       position="95.990569,37.007642"
       orientation="1,0"
       id="guide988"
       inkscape:locked="false" />
    <sodipodi:guide
       position="107.99057,35.008303"
       orientation="1,0"
       id="guide990"
       inkscape:locked="false" />
    <sodipodi:guide
       position="107.99057,37.007642"
       orientation="0,1"
       id="guide992"
       inkscape:locked="false" />
    <sodipodi:guide
       position="107.99057,35.008303"
       orientation="0,1"
       id="guide994"
       inkscape:locked="false" />
    <sodipodi:guide
       position="95.990569,36.07992"
       orientation="-0.70710678,0.70710678"
       id="guide997"
       inkscape:locked="false" />
    <sodipodi:guide
       position="107.99057,35.936025"
       orientation="0,1"
       id="guide999"
       inkscape:locked="false" />
    <sodipodi:guide
       position="77.999997,37.000033"
       orientation="1,0"
       id="guide1001"
       inkscape:locked="false" />
    <sodipodi:guide
       position="82.999997,38.691999"
       orientation="-0.70710678,0.70710678"
       id="guide1003"
       inkscape:locked="false" />
    <sodipodi:guide
       position="88.90625,31.1875"
       orientation="-0.70710678,0.70710678"
       id="guide1005"
       inkscape:locked="false" />
    <sodipodi:guide
       position="82.999997,42.000033"
       orientation="0,1"
       id="guide1011"
       inkscape:locked="false" />
    <sodipodi:guide
       position="82.999997,37.000033"
       orientation="1,0"
       id="guide1013"
       inkscape:locked="false" />
    <sodipodi:guide
       position="84.999997,37.000033"
       orientation="1,0"
       id="guide1015"
       inkscape:locked="false" />
    <sodipodi:guide
       position="49.000001,30.000029"
       orientation="0,1"
       id="guide1017"
       inkscape:locked="false" />
    <sodipodi:guide
       position="48.000001,31.000029"
       orientation="1,0"
       id="guide1038"
       inkscape:locked="false" />
    <sodipodi:guide
       position="49.000001,31.000029"
       orientation="0,1"
       id="guide1040"
       inkscape:locked="false" />
  </sodipodi:namedview>
  <rect
     style="opacity:0"
     width="16"
     height="16"
     x="200"
     y="21"
     id="rect2" />
  <rect
     style="opacity:0;fill:#ffffff"
     width="16"
     height="16"
     x="212.5"
     y="20"
     id="rect4" />
  <g
     id="return-to-source"
     transform="matrix(3.7795277,0,0,3.7795277,42,-922.51949)">
    <rect
       style="fill:#ca5c5c;opacity:0"
       width="4.233"
       height="4.233"
       x="18.52"
       y="254.14"
       id="rect6" />
    <path
       style="fill:currentColor"
       d="M 114.89062,39 113,40.890625 V 53 h 12.10938 L 127,51.109375 V 39 Z m 2.96485,1 h 4.28906 l 0.92774,0.927734 L 120,44 116.92773,40.927734 Z m -2.92774,5 H 126 v 1.072266 L 125.07227,47 H 114 V 45.927734 Z M 120,48 123.07227,51.072266 122.14453,52 h -4.28906 l -0.92774,-0.927734 z"
       transform="matrix(0.26458332,0,0,0.26458332,-11.1125,244.08327)"
       id="path19-56"
       class="ColorScheme-Text"
       inkscape:connector-curvature="0"
       sodipodi:nodetypes="cccccccccccccccccccccccccc" />
  </g>
  <g
     id="add"
     transform="matrix(3.7795277,0,0,3.7795277,42,-922.51949)">
    <rect
       style="fill:none"
       width="4.233"
       height="4.233"
       x="9"
       y="258.9"
       id="rect11" />
    <rect
       style="fill:none"
       width="3.175"
       height="3.175"
       x="9.53"
       y="259.43"
       id="rect13" />
    <path
       style="fill:currentColor"
       transform="matrix(0.26458333,0,0,0.26458333,-0.52916771,249.37493)"
       d="M 42.999998,38.927736 43,43 38.927722,42.992391 38,43.920113 V 45 h 5 v 5 l 1.072277,1.3e-5 L 44.999999,49.07229 45,45 49.073716,44.99173 50,44.065446 V 43 h -5 v -5 l -1.072279,1.3e-5 z"
       id="path15"
       inkscape:connector-curvature="0"
       class="ColorScheme-Text"
       sodipodi:nodetypes="ccccccccccccccccc" />
  </g>
  <g
     id="remove"
     transform="matrix(3.7795277,0,0,3.7795277,42.00002,-922.51949)">
    <rect
       style="fill:none"
       width="4.233"
       height="4.233"
       x="13.76"
       y="258.9"
       id="rect18" />
    <rect
       style="fill:none"
       width="3.175"
       height="3.175"
       x="14.29"
       y="259.43"
       id="rect20" />
    <path
       style="fill:currentColor"
       d="m 95.990571,63.920091 -3.37e-4,1.072097 11.072606,-4.8e-4 0.92773,-0.927722 -3.4e-4,-1.071798 -11.071929,1.81e-4 z"
       transform="matrix(0.26458332,0,0,0.26458332,-11.112505,244.08327)"
       id="rect22"
       inkscape:connector-curvature="0"
       sodipodi:nodetypes="ccccccc"
       class="ColorScheme-Text" />
  </g>
  <g
     id="filter"
     transform="matrix(3.7795277,0,0,3.7795277,42.00002,-922.51949)">
    <rect
       style="fill:none"
       width="4.233"
       height="4.233"
       x="18.52"
       y="258.9"
       id="rect25" />
    <rect
       style="fill:none"
       width="3.175"
       height="3.175"
       x="19.05"
       y="259.43"
       id="rect27" />
    <path
       style="fill:currentColor"
       transform="matrix(0.26458333,0,0,0.26458333,-0.60971093,244.13962)"
       d="m 76.304688,57.787109 -1,1 v 1 l 3,5.259766 v 2.740234 0.002 l 3,1.996094 v 0.002 h 1 v -0.539062 -4.201172 l 3,-5.259766 v -1 l -1,-1 h -8 z m 1,2 h 3 l -1,1 v 1 z"
       id="path29"
       inkscape:connector-curvature="0"
       class="ColorScheme-Text" />
  </g>
  <g
     id="configure"
     transform="matrix(3.7795277,0,0,3.7795277,42,-922.51949)">
    <rect
       style="fill:#ca5c5c;opacity:0"
       width="4.233"
       height="4.233"
       x="4.23"
       y="249.38"
       id="rect32" />
    <g
       transform="matrix(0.26458333,0,0,0.26458333,-107.96654,136.13326)"
       id="g36">
      <path
         style="fill:currentColor"
         d="m 65.704971,21.175741 -1.217334,2.898478 -1.223832,0.70783 -3.111468,-0.343517 -0.232491,0.402633 1.894096,2.452492 -0.003,1.415661 -1.841784,2.571973 0.232467,0.402671 3.059179,-0.464524 1.226807,0.703369 1.315996,2.93849 h 0.464934 l 1.118795,-2.935516 1.223833,-0.70783 3.210016,0.380556 0.232489,-0.402633 -1.992643,-2.489531 0.003,-1.415661 1.940333,-2.534934 -0.232473,-0.402671 -3.157722,0.427485 -1.226807,-0.703369 -1.217446,-2.901452 z m -2.143171,6.50615 2.424529,-2.424529 2.424528,2.424529 v 0.675281 l -2.424529,2.424529 -2.426436,-2.426437 z"
         transform="translate(366.06252,408.00005)"
         id="path34"
         inkscape:connector-curvature="0"
         sodipodi:nodetypes="cccccccccccccccccccccccccccccccc"
         class="ColorScheme-Text" />
    </g>
  </g>
  <g
     id="rotate"
     transform="matrix(3.7795277,0,0,3.7795277,42,-922.51949)">
    <rect
       style="fill:#ca5c5c;opacity:0"
       width="4.233"
       height="4.233"
       x="9"
       y="249.38"
       id="rect39" />
    <g
       style="enable-background:new"
       transform="matrix(0.26458333,0,0,0.26458333,8.9964326,249.37058)"
       id="g45">
      <g
         transform="translate(-425.00247,99.016457)"
         id="g43">
        <path
           inkscape:connector-curvature="0"
           style="fill:currentColor;stroke-width:0.70103997"
           d="m 433.40449,-98.009767 -6.15429,6.154304 v 1.71093 l 6.15429,6.1543 5.01172,-5.00977 h -2 l -3.01172,3.01172 -4.39844,-4.40039 v -1.22265 l 4.39844,-4.40039 1.84961,1.84961 -0.84961,0.8496 v 1.3125 h 4.34571 v -4.345704 h -1.3125 l -1.1836,1.183604 z"
           id="path919"
           class="ColorScheme-Text" />
      </g>
    </g>
  </g>
  <g
     id="size-vertical"
     transform="matrix(3.7795277,0,0,3.7795277,42,-922.51949)">
    <rect
       style="fill:#ca5c5c;opacity:0"
       width="4.233"
       height="4.233"
       x="18.52"
       y="249.38"
       id="rect48" />
    <path
       style="fill:currentColor;stroke-width:1"
       d="M 120,21 116.92773,24.072266 117.85547,25 h 4.28906 l 0.92774,-0.927734 z m 0,5 -1.75586,1.755859 v 0.488282 L 120,30 l 1.75586,-1.755859 v -0.488282 z m -2.14453,5 -0.92774,0.927734 L 120,35 123.07227,31.927734 122.14453,31 Z"
       transform="matrix(0.26458332,0,0,0.26458332,-11.1125,244.08327)"
       id="path55-3"
       class="ColorScheme-Text"
       inkscape:connector-curvature="0" />
  </g>
  <g
     id="size-horizontal"
     transform="matrix(3.7795277,0,0,3.7795277,42,-922.51949)">
    <rect
       style="fill:#ca5c5c;opacity:0"
       width="4.233"
       height="4.233"
       x="23.28"
       y="249.38"
       id="rect53" />
    <path
       style="fill:currentColor"
       d="M 134.07227,24.927734 131,28 134.07227,31.072266 135,30.144531 v -4.289062 z m 7.85546,0 L 141,25.855469 v 4.289062 l 0.92773,0.927735 L 145,28 Z M 138,26 l -1.75586,1.755859 v 0.488282 L 138,30 l 1.75586,-1.755859 v -0.488282 z"
       transform="matrix(0.26458332,0,0,0.26458332,-11.1125,244.08327)"
       id="path55"
       class="ColorScheme-Text"
       inkscape:connector-curvature="0" />
  </g>
  <g
     id="move"
     transform="matrix(3.7795277,0,0,3.7795277,42,-922.51949)">
    <rect
       style="fill:#ca5c5c;opacity:0"
       width="4.233"
       height="4.233"
       x="13.76"
       y="249.38"
       id="rect58" />
    <path
       style="fill:currentColor"
       d="m 102.00586,21.017578 -3.072266,3.072266 0.927734,0.927734 h 4.289062 l 0.92773,-0.927734 z m -3.927735,3.927734 -3.072266,3.072266 3.072266,3.072266 0.927734,-0.927735 v -4.289062 z m 7.855465,0 -0.92773,0.927735 v 4.289062 l 0.92773,0.927735 3.07227,-3.072266 z m -3.92773,1.072266 -1.75586,1.75586 v 0.488281 l 1.75586,1.755859 1.75586,-1.755859 v -0.488281 z m -2.144532,5 -0.927734,0.927734 3.072266,3.072266 3.07226,-3.072266 -0.92773,-0.927734 z"
       transform="matrix(0.26458332,0,0,0.26458332,-11.1125,244.08327)"
       id="path55-6"
       class="ColorScheme-Text"
       inkscape:connector-curvature="0" />
  </g>
  <g
     id="size-diagonal-tl2br"
     transform="matrix(3.7795277,0,0,3.7795277,42,-922.51949)">
    <rect
       style="fill:#ca5c5c;opacity:0"
       width="4.233"
       height="4.233"
       x="-.53"
       y="254.14"
       id="rect63" />
    <g
       style="enable-background:new"
       transform="matrix(0.26458333,0,0,0.26458333,-0.52906453,254.13655)"
       id="g69">
      <g
         transform="translate(-265.00059,79.003339)"
         id="g67">
        <path
           style="fill:currentColor"
           transform="translate(265.0002,-97.000013)"
           d="m 2,20 -1,1 v 4 H 3 V 23.457031 L 6.2421875,26.699219 7.65625,25.285156 4.3710938,22 H 6 v -2 z m 8,0 v 2 h 3 v 3 h 2 v -5 z m -9,7 v 5 l 5,0 V 30 H 3 v -3 z m 12,0 v 3 h -3 v 2 h 4 l 1,-1 v -4 z"
           id="path65"
           inkscape:connector-curvature="0"
           sodipodi:nodetypes="ccccccccccccccccccccccccccccccccc"
           class="ColorScheme-Text" />
      </g>
    </g>
  </g>
  <g
     id="maximize"
     transform="matrix(3.7795277,0,0,3.7795277,42,-922.51949)">
    <rect
       style="fill:#ca5c5c;opacity:0"
       width="4.233"
       height="4.233"
       x="4.23"
       y="254.14"
       id="rect72" />
    <g
       style="enable-background:new"
       transform="matrix(-0.26458333,0,0,0.26458333,8.4665622,254.13655)"
       id="g78">
      <g
         transform="translate(-265.00059,79.003339)"
         id="g76">
        <path
           style="fill:currentColor"
           transform="translate(247.0002,-97.000013)"
           d="m 19,20 v 5 h 2 v -1.542969 l 3.242188,3.242188 1.414062,0 0,-1.414063 L 22.371094,22 H 24 v -2 z m 9,0 v 2 h 3 v 3 h 2 v -4 l -1,-1 z m -9,7 v 4 l 1,1 h 4 v -2 h -3 v -3 z m 12,0 v 3 h -3 v 2 h 5 v -5 z"
           id="path74"
           inkscape:connector-curvature="0"
           sodipodi:nodetypes="cccccccccccccccccccccccccccccccccc"
           class="ColorScheme-Text" />
      </g>
    </g>
  </g>
  <g
     id="unmaximize"
     transform="matrix(3.7795277,0,0,3.7795277,42,-922.51949)">
    <rect
       style="fill:#ca5c5c;opacity:0"
       width="4.233"
       height="4.233"
       x="9"
       y="254.14"
       id="rect81" />
    <path
       style="fill:currentColor"
       d="m 9.5249988,254.6666 -0.2645833,0.26458 v 1.05833 h 0.5291667 v -0.79375 h 0.7937498 v -0.52916 z"
       id="path83"
       inkscape:connector-curvature="0"
       sodipodi:nodetypes="cccccccc"
       class="ColorScheme-Text" />
    <path
       style="fill:currentColor"
       d="m 12.234911,254.6666 -0.857829,0.85783 v -0.40825 h -0.529167 c 0,0.44097 0,0.88195 0,1.32292 h 1.322917 v -0.52917 h -0.430981 l 0.869197,-0.8692 0,-0.37413 z"
       id="path85"
       inkscape:connector-curvature="0"
       sodipodi:nodetypes="ccccccccccc"
       class="ColorScheme-Text" />
    <path
       style="fill:currentColor"
       d="m 9.2604155,256.51868 0,1.32292 1.3229165,0 v -0.52917 H 9.7895822 v -0.79375 z"
       id="path87"
       inkscape:connector-curvature="0"
       sodipodi:nodetypes="ccccccc"
       class="ColorScheme-Text" />
    <path
       style="fill:currentColor"
       d="m 12.435415,256.51868 v 0.79375 h -0.79375 v 0.52917 h 1.058334 l 0.264583,-0.26459 v -1.05833 z"
       id="path89"
       inkscape:connector-curvature="0"
       sodipodi:nodetypes="cccccccc"
       class="ColorScheme-Text" />
  </g>
  <g
     id="size-diagonal-tr2bl"
     transform="matrix(3.7795277,0,0,3.7795277,42,-922.51949)">
    <rect
       style="fill:#ca5c5c;opacity:0"
       width="4.233"
       height="4.233"
       x="28.05"
       y="249.38"
       id="rect92" />
    <g
       style="enable-background:new"
       transform="matrix(-0.26458333,0,0,0.26458333,32.279062,249.37405)"
       id="g98">
      <g
         transform="translate(-265.00059,79.003339)"
         id="g96">
        <path
           style="fill:currentColor;stroke-width:3.77952766"
           d="m 274.75802,-71.699213 3.24218,3.242192 v -1.542992 h 2 v 5.000012 h -5 v -2.000012 h 1.62891 l -3.28516,-3.285165 0,-1.414035 z"
           id="path85-5"
           inkscape:connector-curvature="0"
           sodipodi:nodetypes="ccccccccccc"
           class="ColorScheme-Text" />
        <path
           class="ColorScheme-Text"
           sodipodi:nodetypes="ccccccccccc"
           inkscape:connector-curvature="0"
           id="path1162"
           d="m 271.24238,-70.300803 -3.24218,-3.24219 v 1.54299 h -2 v -5.00001 h 5 v 2.00001 h -1.62891 l 3.28516,3.28517 0,1.41403 z"
           style="fill:currentColor;stroke-width:3.77952766" />
        <path
           style="fill:currentColor;stroke-width:3.77952766"
           d="m 279.00021,-76.999988 0.99999,0.999987 v 3.999988 h -2 v -3 h -2.99999 v -1.999975 z"
           id="path83-6"
           inkscape:connector-curvature="0"
           sodipodi:nodetypes="cccccccc"
           class="ColorScheme-Text" />
        <path
           style="fill:currentColor;stroke-width:3.77952766"
           d="m 267.00019,-65.000038 -0.99999,-0.999987 v -3.999988 h 2 v 3 h 2.99999 v 1.999975 z"
           id="path83-2"
           inkscape:connector-curvature="0"
           sodipodi:nodetypes="cccccccc"
           class="ColorScheme-Text" />
      </g>
    </g>
  </g>
  <g
     id="status"
     transform="matrix(3.7795277,0,0,3.7795277,42,-922.51949)">
    <rect
       style="fill:#ca5c5c;opacity:0"
       width="4.233"
       height="4.233"
       x="13.76"
       y="254.14"
       id="rect101" />
    <g
       style="enable-background:new"
       transform="matrix(0.26458333,0,0,0.26458333,13.750344,254.00514)"
       id="g107">
      <g
         transform="translate(-345.00021,-61)"
         id="g105">
        <path
           style="fill:currentColor"
           d="m 357.28145,64.375 -6.28125,7.1875 -2.25,-2.25 -1.43755,-5e-5 5e-5,1.43755 3.78125,3.75 7.6875,-8.625003 V 64.375 Z"
           id="path103"
           inkscape:connector-curvature="0"
           sodipodi:nodetypes="ccccccccc"
           class="ColorScheme-Text" />
      </g>
    </g>
  </g>
  <g
     id="collapse"
     transform="matrix(3.7795277,0,0,3.7795277,42,-922.51949)">
    <rect
       style="fill:#ca5c5c;opacity:0"
       width="4.233"
       height="4.233"
       x="23.28"
       y="254.14"
       id="rect110" />
    <path
       style="fill:currentColor"
       d="M 135.85547,39 134.92773,39.927734 138,43 141.07227,39.927734 140.14453,39 Z M 131,45.927734 V 47 h 13.07227 L 145,46.072266 V 45 H 131.92774 Z M 138,49 134.92773,52.072266 135.85547,53 h 4.28906 l 0.92774,-0.927734 z"
       transform="matrix(0.26458332,0,0,0.26458332,-11.1125,244.08327)"
       id="path112"
       inkscape:connector-curvature="0"
       class="ColorScheme-Text"
       sodipodi:nodetypes="ccccccccccccccccccc" />
  </g>
  <g
     id="restore"
     transform="matrix(3.7795277,0,0,3.7795277,42,-922.51949)">
    <rect
       style="fill:#ca5c5c;opacity:0"
       width="4.233"
       height="4.233"
       x="28.05"
       y="254.14"
       id="rect115" />
    <path
       style="fill:currentColor"
       d="M 156,39 152.92773,42.072266 153.85547,43 h 4.28906 l 0.92774,-0.927734 z m -7,6.927734 V 47 h 13.07227 L 163,46.072266 V 45 H 149.92774 Z M 153.85547,49 152.92773,49.927734 156,53 159.07227,49.927734 158.14453,49 Z"
       transform="matrix(0.26458332,0,0,0.26458332,-11.1125,244.08327)"
       id="path1266"
       class="ColorScheme-Text"
       inkscape:connector-curvature="0"
       sodipodi:nodetypes="ccccccccccccccccccc" />
  </g>
  <g
     id="help"
     transform="matrix(3.7795277,0,0,3.7795277,42,-922.51949)">
    <rect
       style="fill:#ca5c5c;opacity:0"
       width="4.233"
       height="4.233"
       x="-.53"
       y="258.9"
       id="rect120" />
    <g
       transform="matrix(0.26458333,0,0,0.26458333,-118.00412,149.89071)"
       id="g124">
      <path
         style="fill:currentColor"
         d="M 46.171875,57 44,59 v 2 h 2 v -1 l 1,-1 h 2 l 1,1 v 1.820312 L 48.169922,63.669922 47,64.820312 V 67 h 2 v -1.351562 l 3,-3 V 59.171875 L 49.828125,57 Z M 48,69 47.123047,69.878906 v 0.242188 L 48,71 48.876953,70.123047 v -0.246094 z"
         transform="translate(403.99983,356.00339)"
         id="path122"
         class="ColorScheme-Text"
         inkscape:connector-curvature="0" />
    </g>
  </g>
  <g
     id="delete"
     transform="matrix(3.7795277,0,0,3.7795277,42,-922.51949)">
    <rect
       style="fill:#ca5c5c;opacity:0"
       width="4.233"
       height="4.233"
       x="4.23"
       y="258.9"
       id="rect127" />
    <g
       style="enable-background:new"
       transform="matrix(0.26458333,0,0,0.26458333,4.233393,258.90089)"
       id="g135">
      <g
         transform="translate(-385.00043,78.996356)"
         id="g133">
        <path
           style="fill:currentColor"
           d="m 387.0002,-74 v 9 l 1,1 h 9 l 1,-1 v -9 z"
           id="path129"
           inkscape:connector-curvature="0"
           sodipodi:nodetypes="ccccccc"
           class="ColorScheme-Text" />
        <path
           style="fill:currentColor"
           d="m 386.0002,-76 v 1 l 13.0002,-0.0034 -2e-4,-0.99664 -0.9998,-1.00336 h -3 l -1,-1 h -3 l -1,1 h -3 z"
           id="path131"
           inkscape:connector-curvature="0"
           sodipodi:nodetypes="ccccccccccc"
           class="ColorScheme-Text" />
      </g>
    </g>
  </g>
  <g
     id="menu">
    <rect
       style="opacity:0.00100002"
       width="15.999"
       height="15.999"
       x="40.0005"
       y="20.0005"
       id="rect138" />
    <path
       style="fill:currentColor;stroke-width:0.20000011"
       d="M 46.244361,23.244207 48.000168,25 49.755639,23.244527 V 22.755393 L 48.000246,21 46.244361,22.755885 Z"
       id="HandCenterScrew"
       inkscape:connector-curvature="0"
       sodipodi:nodetypes="ccccccc"
       class="ColorScheme-Text" />
    <path
       class="ColorScheme-Text"
       sodipodi:nodetypes="ccccccc"
       inkscape:connector-curvature="0"
       id="path1070"
       d="M 46.244361,28.244207 48.000168,30 49.755639,28.244527 V 27.755393 L 48.000246,26 46.244361,27.755885 Z"
       style="fill:currentColor;stroke-width:0.20000011" />
    <path
       style="fill:currentColor;stroke-width:0.20000011"
       d="M 46.244361,33.244207 48.000168,35 49.755639,33.244527 V 32.755393 L 48.000246,31 46.244361,32.755885 Z"
       id="path1072"
       inkscape:connector-curvature="0"
       sodipodi:nodetypes="ccccccc"
       class="ColorScheme-Text" />
    <path
       class="ColorScheme-Text"
       sodipodi:nodetypes="ccccccc"
       inkscape:connector-curvature="0"
       id="path1145"
       d="M 46.244361,23.244207 48.000168,25 49.755639,23.244527 V 22.755393 L 48.000246,21 46.244361,22.755885 Z"
       style="fill:currentColor;stroke-width:0.20000011" />
    <path
       style="fill:currentColor;stroke-width:0.20000011"
       d="M 46.244361,28.244207 48.000168,30 49.755639,28.244527 V 27.755393 L 48.000246,26 46.244361,27.755885 Z"
       id="path1147"
       inkscape:connector-curvature="0"
       sodipodi:nodetypes="ccccccc"
       class="ColorScheme-Text" />
    <path
       class="ColorScheme-Text"
       sodipodi:nodetypes="ccccccc"
       inkscape:connector-curvature="0"
       id="path1149"
       d="M 46.244361,33.244207 48.000168,35 49.755639,33.244527 V 32.755393 L 48.000246,31 46.244361,32.755885 Z"
       style="fill:currentColor;stroke-width:0.20000011" />
  </g>
  <g
     id="close"
     transform="translate(-0.08838835)">
    <rect
       style="opacity:0.00100002"
       width="16"
       height="16"
       x="130"
       y="55.990002"
       id="rect143" />
    <g
       style="enable-background:new"
       transform="matrix(1.4994104,0,0,1.4999561,36.042451,-724.97673)"
       id="g149">
      <g
         transform="translate(19,-242)"
         id="g147">
        <path
           style="fill:currentColor"
           d="m 45,764 h 1.406138 l 2.593863,2.59375 L 51.594695,764 H 53 v 1.43896 L 50.422394,768.01562 53,770.59229 V 772 H 51.563434 L 49,769.4375 46.436568,772 H 45 l 2e-6,-1.40771 2.577607,-2.57667 L 45,765.46968 Z"
           id="path145"
           inkscape:connector-curvature="0"
           sodipodi:nodetypes="ccccccccccccccccc"
           class="ColorScheme-Text" />
      </g>
    </g>
  </g>
</svg>
