<?xml version="1.0" encoding="UTF-8" standalone="no"?>
<svg
   xmlns:dc="http://purl.org/dc/elements/1.1/"
   xmlns:cc="http://creativecommons.org/ns#"
   xmlns:rdf="http://www.w3.org/1999/02/22-rdf-syntax-ns#"
   xmlns:svg="http://www.w3.org/2000/svg"
   xmlns="http://www.w3.org/2000/svg"
   xmlns:sodipodi="http://sodipodi.sourceforge.net/DTD/sodipodi-0.dtd"
   xmlns:inkscape="http://www.inkscape.org/namespaces/inkscape"
   width="220"
   height="212"
   version="1"
   id="svg91"
   sodipodi:docname="lineedit.svg"
   inkscape:version="1.0 (4035a4fb49, 2020-05-01)">
  <metadata
     id="metadata97">
    <rdf:RDF>
      <cc:Work
         rdf:about="">
        <dc:format>image/svg+xml</dc:format>
        <dc:type
           rdf:resource="http://purl.org/dc/dcmitype/StillImage" />
        <dc:title></dc:title>
      </cc:Work>
    </rdf:RDF>
  </metadata>
  <style
     id="current-color-scheme" >
      .ColorScheme-Text{color:rgb(255,248,247);} .ColorScheme-Background{color:rgb(3,27,22);} .ColorScheme-Highlight{color:rgb(229,27,66);} .ColorScheme-ViewText{color:rgb(250,233,232);} .ColorScheme-ViewBackground{color:rgb(1,13,10);} .ColorScheme-ViewHover{color:rgb(148,34,40);} .ColorScheme-ViewFocus{color:rgb(201,30,60);} .ColorScheme-ButtonText{color:rgb(233,245,243);} .ColorScheme-ButtonBackground{color:rgb(28,4,8);} .ColorScheme-ButtonHover{color:rgb(148,34,40);} .ColorScheme-ButtonFocus{color:rgb(201,30,60);}
  </style>
  <defs
     id="defs95" />
  <sodipodi:namedview
     pagecolor="#ffffff"
     bordercolor="#666666"
     borderopacity="1"
     objecttolerance="10"
     gridtolerance="10"
     guidetolerance="10"
     inkscape:pageopacity="0"
     inkscape:pageshadow="2"
     inkscape:window-width="1718"
     inkscape:window-height="927"
     id="namedview93"
     showgrid="false"
     inkscape:pagecheckerboard="true"
     inkscape:zoom="22.627417"
     inkscape:cx="127.25737"
     inkscape:cy="46.396552"
     inkscape:window-x="1301"
     inkscape:window-y="664"
     inkscape:window-maximized="0"
     inkscape:current-layer="svg91"
     showguides="true"
     inkscape:guide-bbox="true"
     inkscape:document-rotation="0">
    <sodipodi:guide
       position="116.00001,59.002951"
       orientation="1,0"
       id="guide896"
       inkscape:locked="false" />
    <sodipodi:guide
       position="109.00007,62.99803"
       orientation="0,1"
       id="guide898"
       inkscape:locked="false" />
    <sodipodi:guide
       position="209,61"
       orientation="1,0"
       id="guide900"
       inkscape:locked="false" />
  </sodipodi:namedview>
  <g
     id="base-topleft"
     transform="translate(829.80716,-769.58398)">
    <path
       style="opacity:0.00100002"
       transform="matrix(-0.5,0,0,-0.5,-639.80709,700.08403)"
       d="m 162,-159 -13.99988,2 v -2 z"
       id="path2"
       inkscape:connector-curvature="0"
       sodipodi:nodetypes="cccc" />
  </g>
  <g
     id="base-bottomleft"
     transform="translate(829.80716,-765.58399)">
    <path
       style="opacity:0.00100002;stroke-width:0.5"
       d="m -720.80709,810.63721 -7e-5,0.99996 7.00001,4e-5 v -1 z"
       id="path5"
       inkscape:connector-curvature="0"
       sodipodi:nodetypes="ccccc" />
    <path
       sodipodi:nodetypes="cccc"
       class="ColorScheme-Text"
       inkscape:connector-curvature="0"
       id="path32-3"
       d="m -720.80713,810.63721 6.99995,1 v -1 z"
       style="fill:currentColor;opacity:0.3;" />
  </g>
  <g
     id="base-left"
     transform="matrix(1,0,0,1.666664,829.80716,-1305.9712)">
    <rect
       style="opacity:0.00100002"
       width="7.0028477"
       height="21"
       x="-720.81"
       y="789.58002"
       id="rect8" />
  </g>
  <g
     id="base-top"
     transform="matrix(1.9090909,0,0,1,1484.1774,-769.58398)">
    <rect
       style="opacity:0.00100002"
       width="48.714298"
       height="1"
       x="-716.66437"
       y="778.58002"
       id="rect11" />
  </g>
  <g
     id="base-bottom"
     transform="matrix(1.9090909,0,0,1,1484.1774,-765.58399)">
    <rect
       style="fill:currentColor;opacity:0.3;"
       width="48.714298"
       height="1"
       x="-716.66437"
       y="810.63721"
       id="rect14"
       class="ColorScheme-Text" />
  </g>
  <g
     id="base-topright"
     transform="translate(879.80713,-769.58398)">
    <path
       style="opacity:0.00100002"
       transform="matrix(0.5,0,0,-0.5,-744.80709,700.08403)"
       d="m 162,-159 -14.00008,2 v -2 z"
       id="path17"
       inkscape:connector-curvature="0"
       sodipodi:nodetypes="cccc" />
  </g>
  <g
     id="base-bottomright"
     transform="translate(879.80713,-765.58399)">
    <path
       style="opacity:0.00100002"
       transform="matrix(0.5,0,0,0.5,-744.80709,890.08403)"
       d="m 162,-159 -8e-5,1.99992 -14,8e-5 v -2 z"
       id="path20"
       inkscape:connector-curvature="0"
       sodipodi:nodetypes="ccccc" />
    <path
       style="fill:currentColor;opacity:0.3;"
       d="m -663.80719,810.63721 -6.99995,1 v -1 z"
       id="path32-3-6"
       inkscape:connector-curvature="0"
       class="ColorScheme-Text"
       sodipodi:nodetypes="cccc" />
  </g>
  <g
     id="base-right"
     transform="matrix(1,0,0,1.666664,879.80713,-1305.9712)">
    <rect
       style="opacity:0.00100002"
       width="6.9971323"
       height="21"
       x="-670.80713"
       y="789.58002"
       id="rect23" />
  </g>
  <g
     id="base-center"
     transform="translate(0,58)">
    <rect
       style="opacity:0.00100002"
       width="92.999992"
       height="35"
       x="116.00001"
       y="-48"
       id="rect26" />
  </g>
  <g
     id="hover-topleft"
     transform="translate(829.80716,-713.58398)">
    <path
       style="opacity:0.00100002"
       transform="matrix(-0.5,0,0,-0.5,-639.80709,700.08403)"
       d="m 162,-159 -13.99988,2 v -2 z"
       id="path29"
       inkscape:connector-curvature="0"
       sodipodi:nodetypes="cccc" />
  </g>
  <g
     id="hover-bottomleft"
     transform="translate(829.80716,-709.58399)">
    <path
       style="fill:currentColor"
       d="m -720.80709,810.58596 6.99994,1.99803 v -1.99803 z"
       id="path32"
       inkscape:connector-curvature="0"
       class="ColorScheme-Highlight"
       sodipodi:nodetypes="cccc" />
  </g>
  <g
     id="hover-left"
     transform="matrix(1,0,0,1.666664,829.80716,-1249.9712)">
    <rect
       style="opacity:0.00100002"
       width="7.0028477"
       height="21"
       x="-720.81"
       y="789.58002"
       id="rect35" />
  </g>
  <g
     id="hover-top"
     transform="matrix(1.9090909,0,0,1,1484.1774,-713.58398)">
    <rect
       style="opacity:0.00100002"
       width="48.714298"
       height="0.94281006"
       x="-716.66437"
       y="778.63721"
       id="rect38" />
  </g>
  <g
     id="hover-bottom"
     transform="matrix(1.9090909,0,0,1,1484.1774,-709.58399)">
    <path
       style="fill:currentColor"
       d="m -716.66435,810.58195 h 48.71428 v 1.99803 h -48.71428 z"
       id="path41"
       inkscape:connector-curvature="0"
       class="ColorScheme-Highlight"
       sodipodi:nodetypes="ccccc" />
  </g>
  <g
     id="hover-topright"
     transform="translate(879.80713,-713.58398)">
    <path
       style="opacity:0.00100002"
       transform="matrix(0.5,0,0,-0.5,-744.80709,700.08403)"
       d="m 162,-159 -14.00008,2 v -2 z"
       id="path44"
       inkscape:connector-curvature="0"
       sodipodi:nodetypes="cccc" />
  </g>
  <g
     id="hover-bottomright"
     transform="translate(879.80713,-709.58399)">
    <path
       style="fill:currentColor"
       d="m -663.80709,810.58596 -7.00004,1.99803 v -1.99803 z"
       id="path47"
       class="ColorScheme-Highlight"
       inkscape:connector-curvature="0"
       sodipodi:nodetypes="cccc" />
  </g>
  <g
     id="hover-right"
     transform="matrix(1,0,0,1.666664,879.80713,-1249.9712)">
    <rect
       style="opacity:0.00100002"
       width="6.9971323"
       height="21"
       x="-670.80713"
       y="789.58002"
       id="rect50" />
  </g>
  <rect
     id="hover-center"
     style="opacity:0.00100002"
     width="92.999992"
     height="35"
     x="116.00001"
     y="66" />
  <g
     id="focus-topleft"
     transform="translate(829.80716,-665.58398)">
    <path
       style="opacity:0.00100002"
       transform="matrix(-0.5,0,0,-0.5,-639.80709,700.08403)"
       d="m 162,-159 -13.99988,2 v -2 z"
       id="path54"
       inkscape:connector-curvature="0"
       sodipodi:nodetypes="cccc" />
  </g>
  <g
     id="focus-bottomleft"
     transform="translate(829.80716,-661.58399)"
     class="">
    <path
       style="fill:currentColor"
       d="m -720.80709,810.58596 6.99994,1.99803 v -1.99803 z"
       id="path57"
       inkscape:connector-curvature="0"
       class="ColorScheme-Highlight"
       sodipodi:nodetypes="cccc" />
  </g>
  <g
     id="focus-left"
     transform="matrix(1,0,0,1.666664,829.80716,-1201.9712)">
    <rect
       style="opacity:0.00100002"
       width="7.0028477"
       height="21"
       x="-720.81"
       y="789.58002"
       id="rect60" />
  </g>
  <g
     id="focus-top"
     transform="matrix(1.9090909,0,0,1,1484.1774,-665.58398)">
    <rect
       style="opacity:0.00100002"
       width="48.714298"
       height="0.88571763"
       x="-716.66437"
       y="778.63721"
       id="rect63" />
  </g>
  <g
     id="focus-bottom"
     transform="matrix(1.9090909,0,0,1,1484.1774,-661.58399)">
    <path
       style="fill:currentColor"
       d="m -716.66435,810.58195 h 48.71428 v 1.99803 h -48.71428 z"
       id="path66"
       inkscape:connector-curvature="0"
       class="ColorScheme-Highlight"
       sodipodi:nodetypes="ccccc" />
  </g>
  <g
     id="focus-topright"
     transform="translate(879.80713,-665.58398)">
    <path
       style="opacity:0.00100002"
       transform="matrix(0.5,0,0,-0.5,-744.80709,700.08403)"
       d="m 162,-159 -14.00008,2 v -2 z"
       id="path69"
       inkscape:connector-curvature="0"
       sodipodi:nodetypes="cccc" />
  </g>
  <g
     id="focus-bottomright"
     transform="translate(879.80713,-661.58399)">
    <path
       style="fill:currentColor"
       d="m -663.80709,810.58596 -7.00004,1.99803 v -1.99803 z"
       id="path72"
       inkscape:connector-curvature="0"
       class="ColorScheme-Highlight"
       sodipodi:nodetypes="cccc" />
  </g>
  <g
     id="focus-right"
     transform="matrix(1,0,0,1.666664,879.80713,-1201.9712)">
    <rect
       style="opacity:0.00100002"
       width="6.9971323"
       height="21"
       x="-670.80713"
       y="789.58002"
       id="rect75" />
  </g>
  <rect
     id="focus-center"
     style="opacity:0.00100002"
     width="92.999992"
     height="35"
     x="116.00001"
     y="114" />
  <rect
     id="hover-hint-bottom-margin"
     style="fill:#4e9a06"
     width="2"
     height="2"
     x="161"
     y="101" />
  <rect
     id="hover-hint-top-margin"
     style="fill:#4e9a06"
     width="2"
     height="1"
     x="161.5"
     y="65" />
  <rect
     id="hover-hint-left-margin"
     style="fill:#4e9a06"
     width="2"
     height="7.00001"
     x="-84"
     y="109"
     transform="rotate(-90)" />
  <rect
     id="hover-hint-right-margin"
     style="fill:#4e9a06"
     width="2"
     height="7"
     x="-84"
     y="209"
     transform="rotate(-90)" />
  <rect
     id="focus-hint-bottom-margin"
     style="fill:#4e9a06"
     width="2"
     height="2"
     x="161"
     y="149" />
  <rect
     id="focus-hint-top-margin"
     style="fill:#4e9a06"
     width="2"
     height="1"
     x="161"
     y="113" />
  <rect
     id="focus-hint-left-margin"
     style="fill:#4e9a06"
     width="2"
     height="7.1000085"
     x="-131.89999"
     y="108.9"
     transform="rotate(-90)" />
  <rect
     id="focus-hint-right-margin"
     style="fill:#4e9a06"
     width="2"
     height="7"
     x="-132"
     y="209"
     transform="rotate(-90)" />
  <rect
     id="base-hint-top-margin"
     style="fill:#4e9a06"
     width="2"
     height="1"
     x="161.5"
     y="9" />
  <rect
     id="base-hint-right-margin"
     style="fill:#4e9a06"
     width="2"
     height="7"
     x="-28"
     y="209"
     transform="rotate(-90)" />
  <rect
     id="base-hint-left-margin"
     style="fill:#4e9a06"
     width="2"
     height="7.00001"
     x="-28"
     y="109"
     transform="rotate(-90)" />
  <rect
     id="base-hint-bottom-margin"
     style="fill:#4e9a06"
     width="2"
     height="1"
     x="163"
     y="45" />
</svg>
