<?xml version="1.0" encoding="UTF-8" standalone="no"?>
<svg
   xmlns:dc="http://purl.org/dc/elements/1.1/"
   xmlns:cc="http://creativecommons.org/ns#"
   xmlns:rdf="http://www.w3.org/1999/02/22-rdf-syntax-ns#"
   xmlns:svg="http://www.w3.org/2000/svg"
   xmlns="http://www.w3.org/2000/svg"
   xmlns:sodipodi="http://sodipodi.sourceforge.net/DTD/sodipodi-0.dtd"
   xmlns:inkscape="http://www.inkscape.org/namespaces/inkscape"
   width="744.094"
   height="1052.362"
   version="1.1"
   id="svg98"
   sodipodi:docname="tabbar.svg"
   inkscape:version="0.92.5 (2060ec1f9f, 2020-04-08)">
  <metadata
     id="metadata104">
    <rdf:RDF>
      <cc:Work
         rdf:about="">
        <dc:format>image/svg+xml</dc:format>
        <dc:type
           rdf:resource="http://purl.org/dc/dcmitype/StillImage" />
      </cc:Work>
    </rdf:RDF>
  </metadata>
  <defs
     id="defs102" />
  <sodipodi:namedview
     pagecolor="#ffffff"
     bordercolor="#666666"
     borderopacity="1"
     objecttolerance="10"
     gridtolerance="10"
     guidetolerance="10"
     inkscape:pageopacity="0"
     inkscape:pageshadow="2"
     inkscape:window-width="3440"
     inkscape:window-height="1346"
     id="namedview100"
     showgrid="false"
     inkscape:zoom="0.63429577"
     inkscape:cx="1444.4371"
     inkscape:cy="900.38681"
     inkscape:window-x="0"
     inkscape:window-y="0"
     inkscape:window-maximized="1"
     inkscape:current-layer="svg98"
     showguides="true"
     inkscape:guide-bbox="true">
    <sodipodi:guide
       position="218.99852,775.99989"
       orientation="1,0"
       id="guide889"
       inkscape:locked="false" />
    <sodipodi:guide
       position="404.99977,695.99989"
       orientation="1,0"
       id="guide891"
       inkscape:locked="false" />
    <sodipodi:guide
       position="363,821.99987"
       orientation="0,1"
       id="guide893"
       inkscape:locked="false" />
    <sodipodi:guide
       position="356,619.99841"
       orientation="0,1"
       id="guide895"
       inkscape:locked="false" />
  </sodipodi:namedview>
  <style
     id="current-color-scheme" >
      .ColorScheme-Text{color:rgb(255,248,247);} .ColorScheme-Background{color:rgb(3,27,22);} .ColorScheme-Highlight{color:rgb(229,27,66);} .ColorScheme-ViewText{color:rgb(250,233,232);} .ColorScheme-ViewBackground{color:rgb(1,13,10);} .ColorScheme-ViewHover{color:rgb(148,34,40);} .ColorScheme-ViewFocus{color:rgb(201,30,60);} .ColorScheme-ButtonText{color:rgb(233,245,243);} .ColorScheme-ButtonBackground{color:rgb(28,4,8);} .ColorScheme-ButtonHover{color:rgb(148,34,40);} .ColorScheme-ButtonFocus{color:rgb(201,30,60);}
  </style>
  <rect
     id="hint-tile-center"
     style="opacity:0.875;fill:#008000"
     width="41.363"
     height="41.121"
     x="-233.82"
     y="467.13" />
  <g
     id="south-active-tab-top"
     transform="matrix(1,0,0,0.66617697,236.00001,192.96482)"
     class="ColorScheme-Highlight">
    <path
       style="fill:currentColor"
       d="m 40,359.36218 h 80 v 3 H 40 Z"
       id="path4"
       inkscape:connector-curvature="0" />
  </g>
  <g
     id="south-active-tab-topleft"
     class="ColorScheme-Highlight"
     transform="matrix(1,0,0,0.66617697,236.00001,192.96482)">
    <rect
       style="opacity:0;fill:#e4e6e8"
       width="10"
       height="3"
       x="30"
       y="359.36"
       id="rect7" />
    <path
       style="fill:currentColor"
       d="m 39.999989,359.36221 v 2.99998 l -6.999999,-2.99998 z"
       id="path9"
       inkscape:connector-curvature="0"
       sodipodi:nodetypes="cccc" />
  </g>
  <g
     id="south-active-tab-topright"
     class="ColorScheme-Highlight"
     transform="matrix(1,0,0,0.66617697,236.00001,192.96482)">
    <rect
       style="opacity:0;fill:#e4e6e8"
       width="10"
       height="3"
       x="120"
       y="359.36"
       id="rect12" />
    <path
       style="fill:currentColor"
       d="m 119.99999,359.36221 7,0 -7,2.99998 z"
       id="path14"
       inkscape:connector-curvature="0"
       sodipodi:nodetypes="cccc" />
  </g>
  <rect
     id="south-active-tab-left"
     style="opacity:0;fill:#e4e6e8"
     width="10"
     height="12"
     x="266"
     y="434.36" />
  <rect
     id="south-active-tab-center"
     style="opacity:0;fill:#e4e6e8"
     width="80"
     height="12"
     x="276"
     y="434.36" />
  <rect
     id="south-active-tab-right"
     style="opacity:0;fill:#e4e6e8"
     width="10"
     height="12"
     x="356"
     y="434.36" />
  <rect
     id="south-active-tab-bottomright"
     style="opacity:0;fill:#e4e6e8"
     width="10"
     height="4"
     x="356"
     y="446.36" />
  <rect
     id="south-active-tab-bottom"
     style="opacity:0;fill:#e4e6e8"
     width="80"
     height="4"
     x="276"
     y="446.36" />
  <rect
     id="south-active-tab-bottomleft"
     style="opacity:0;fill:#e4e6e8"
     width="10"
     height="4"
     x="266"
     y="446.36" />
  <rect
     id="south-active-tab-hint-left-margin"
     style="fill:#4e9a06"
     width="6"
     height="5"
     x="266"
     y="437.36" />
  <rect
     id="south-active-tab-hint-right-margin"
     style="fill:#4e9a06"
     width="6"
     height="5"
     x="360"
     y="437.36" />
  <rect
     id="south-active-tab-hint-top-margin"
     style="fill:#4e9a06"
     width="5"
     height="8"
     x="314"
     y="432.36" />
  <rect
     id="south-active-tab-hint-bottom-margin"
     style="fill:#4e9a06"
     width="5"
     height="4"
     x="314"
     y="446.36" />
  <rect
     id="east-active-tab-bottom"
     style="opacity:0;fill:#e4e6e8"
     width="10"
     height="12"
     x="-366.06"
     y="409"
     transform="matrix(0,-1,1,0,0,0)" />
  <rect
     id="east-active-tab-center"
     style="opacity:0;fill:#e4e6e8"
     width="80"
     height="12"
     x="-356.06"
     y="409"
     transform="matrix(0,-1,1,0,0,0)" />
  <rect
     id="east-active-tab-top"
     style="opacity:0;fill:#e4e6e8"
     width="10"
     height="12"
     x="-276.06"
     y="409"
     transform="matrix(0,-1,1,0,0,0)" />
  <rect
     id="east-active-tab-topright"
     style="opacity:0;fill:#e4e6e8"
     width="10"
     height="4"
     x="-276.06"
     y="421"
     transform="matrix(0,-1,1,0,0,0)" />
  <rect
     id="east-active-tab-right"
     style="opacity:0;fill:#e4e6e8"
     width="80"
     height="4"
     x="-356.06"
     y="421"
     transform="matrix(0,-1,1,0,0,0)" />
  <rect
     id="east-active-tab-bottomright"
     style="opacity:0;fill:#e4e6e8"
     width="10"
     height="4"
     x="-366.06"
     y="421"
     transform="matrix(0,-1,1,0,0,0)" />
  <rect
     id="east-active-tab-hint-bottom-margin"
     style="fill:#4e9a06"
     width="6"
     height="5"
     x="-366.36"
     y="412"
     transform="matrix(0,-1,1,0,0,0)" />
  <rect
     id="east-active-tab-hint-top-margin"
     style="fill:#4e9a06"
     width="6"
     height="5"
     x="-272.36"
     y="412"
     transform="matrix(0,-1,1,0,0,0)" />
  <g
     id="east-active-tab-left"
     class="ColorScheme-Highlight"
     transform="matrix(0,1,-0.66570362,0,646.22559,236.36218)">
    <path
       style="fill:currentColor"
       d="m 40,359.36218 h 80 v 3 H 40 Z"
       id="path35"
       inkscape:connector-curvature="0" />
  </g>
  <rect
     id="east-active-tab-hint-left-margin"
     style="fill:#4e9a06"
     width="5"
     height="8"
     x="-312.36"
     y="405"
     transform="matrix(0,-1,1,0,0,0)" />
  <rect
     id="east-active-tab-hint-right-margin"
     style="fill:#4e9a06"
     width="5"
     height="4"
     x="-312.36"
     y="421"
     transform="matrix(0,-1,1,0,0,0)" />
  <rect
     id="west-active-tab-top"
     style="opacity:0;fill:#e4e6e8"
     width="10"
     height="12"
     x="266.36"
     y="-216"
     transform="matrix(0,1,-1,0,0,0)" />
  <rect
     id="west-active-tab-center"
     style="opacity:0;fill:#e4e6e8"
     width="80"
     height="12"
     x="276.36"
     y="-216"
     transform="matrix(0,1,-1,0,0,0)" />
  <rect
     id="west-active-tab-bottom"
     style="opacity:0;fill:#e4e6e8"
     width="10"
     height="12"
     x="356.36"
     y="-216"
     transform="matrix(0,1,-1,0,0,0)" />
  <rect
     id="west-active-tab-bottomleft"
     style="opacity:0;fill:#e4e6e8"
     width="10"
     height="4"
     x="356.36"
     y="-204"
     transform="matrix(0,1,-1,0,0,0)" />
  <rect
     id="west-active-tab-left"
     style="opacity:0;fill:#e4e6e8"
     width="80"
     height="4"
     x="276.36"
     y="-204"
     transform="matrix(0,1,-1,0,0,0)" />
  <rect
     id="west-active-tab-topleft"
     style="opacity:0;fill:#e4e6e8"
     width="10"
     height="4"
     x="266.36"
     y="-204"
     transform="matrix(0,1,-1,0,0,0)" />
  <rect
     id="west-active-tab-hint-top-margin"
     style="fill:#4e9a06"
     width="6"
     height="5"
     x="266.36"
     y="-213"
     transform="matrix(0,1,-1,0,0,0)" />
  <rect
     id="west-active-tab-hint-bottom-margin"
     style="fill:#4e9a06"
     width="6"
     height="5"
     x="360.36"
     y="-213"
     transform="matrix(0,1,-1,0,0,0)" />
  <g
     id="west-active-tab-right"
     class="ColorScheme-Highlight"
     transform="matrix(0,1,-0.6661771,0,458.39739,236.36218)">
    <path
       style="fill:currentColor"
       d="m 40,359.36218 h 80 v 3 H 40 Z"
       id="path48"
       inkscape:connector-curvature="0" />
  </g>
  <g
     id="west-active-tab-topright"
     class="ColorScheme-Highlight"
     transform="matrix(0,1,-0.6661771,0,458.39739,236.36218)">
    <rect
       style="opacity:0;fill:#e4e6e8"
       width="10"
       height="3"
       x="30"
       y="359.36"
       id="rect51" />
    <path
       style="fill:currentColor"
       d="m 39.999989,359.36221 v 2.99998 l -7.000108,-2.99999 z"
       id="path53"
       inkscape:connector-curvature="0"
       sodipodi:nodetypes="cccc" />
  </g>
  <g
     id="west-active-tab-bottomright"
     class="ColorScheme-Highlight"
     transform="matrix(0,1,-0.6661771,0,458.39739,236.36218)">
    <rect
       style="opacity:0;fill:#e4e6e8"
       width="10"
       height="3"
       x="120"
       y="359.36"
       id="rect56" />
    <path
       style="fill:currentColor"
       d="m 119.99999,359.36221 6.99989,-1e-5 -6.99989,2.99999 z"
       id="path58"
       inkscape:connector-curvature="0"
       sodipodi:nodetypes="cccc" />
  </g>
  <rect
     id="west-active-tab-hint-right-margin"
     style="fill:#4e9a06"
     width="5"
     height="8"
     x="307.36"
     y="-219"
     transform="matrix(0,1,-1,0,0,0)" />
  <rect
     id="west-active-tab-hint-left-margin"
     style="fill:#4e9a06"
     width="5"
     height="4"
     x="307.36"
     y="-204"
     transform="matrix(0,1,-1,0,0,0)" />
  <rect
     id="north-active-tab-right"
     style="opacity:0;fill:#e4e6e8"
     width="10"
     height="12"
     x="-373"
     y="-226.36"
     transform="scale(-1,-1)" />
  <rect
     id="north-active-tab-center"
     style="opacity:0;fill:#e4e6e8"
     width="80"
     height="12"
     x="-363"
     y="-226.36"
     transform="scale(-1,-1)" />
  <rect
     id="north-active-tab-left"
     style="opacity:0;fill:#e4e6e8"
     width="10"
     height="12"
     x="-283"
     y="-226.36"
     transform="scale(-1,-1)" />
  <rect
     id="north-active-tab-topleft"
     style="opacity:0;fill:#e4e6e8"
     width="10"
     height="4"
     x="-283"
     y="-214.36"
     transform="scale(-1,-1)" />
  <rect
     id="north-active-tab-top"
     style="opacity:0;fill:#e4e6e8"
     width="80"
     height="4"
     x="-363"
     y="-214.36"
     transform="scale(-1,-1)" />
  <rect
     id="north-active-tab-topright"
     style="opacity:0;fill:#e4e6e8"
     width="10"
     height="4"
     x="-373"
     y="-214.36"
     transform="scale(-1,-1)" />
  <rect
     id="north-focus-hint-right-margin"
     style="fill:#4e9a06"
     width="6"
     height="5"
     x="-373"
     y="-223.36"
     transform="scale(-1,-1)" />
  <rect
     id="north-focus-hint-left-margin"
     style="fill:#4e9a06"
     width="6"
     height="5"
     x="-279"
     y="-223.36"
     transform="scale(-1,-1)" />
  <g
     id="north-active-tab-bottom"
     class="ColorScheme-Highlight"
     transform="matrix(1,0,0,0.66617489,243,-11.034407)">
    <path
       style="fill:currentColor"
       d="m 40,359.36218 h 80 v 3 H 40 Z"
       id="path71"
       inkscape:connector-curvature="0" />
  </g>
  <rect
     id="north-focus-hint-bottom-margin"
     style="fill:#4e9a06"
     width="5"
     height="8"
     x="-319"
     y="-230.36"
     transform="scale(-1,-1)" />
  <rect
     id="north-focus-hint-top-margin"
     style="fill:#4e9a06"
     width="5"
     height="4"
     x="-319"
     y="-214.36"
     transform="scale(-1,-1)" />
  <g
     id="north-active-tab-bottomleft"
     class="ColorScheme-Highlight"
     transform="matrix(1,0,0,0.66617489,243,-11.034407)">
    <rect
       style="opacity:0;fill:#e4e6e8"
       width="10"
       height="3"
       x="30"
       y="359.36"
       id="rect76" />
    <path
       style="fill:currentColor"
       d="m 39.999989,359.36221 v 2.99998 L 33,362.3622 Z"
       id="path78"
       inkscape:connector-curvature="0"
       sodipodi:nodetypes="cccc" />
  </g>
  <g
     id="north-active-tab-bottomright"
     transform="matrix(1,0,0,0.66617489,0,76.900684)"
     class="ColorScheme-Highlight">
    <rect
       style="opacity:0;fill:#e4e6e8"
       width="10"
       height="3"
       x="363"
       y="227.36"
       id="rect81" />
    <rect
       style="opacity:0;fill:#e4e6e8"
       width="10"
       height="3"
       x="363"
       y="227.36"
       id="rect83" />
    <path
       style="fill:currentColor"
       d="m 363,227.36221 7,2.99998 -7,0 z"
       id="path85"
       inkscape:connector-curvature="0"
       sodipodi:nodetypes="cccc" />
  </g>
  <g
     id="east-active-tab-topleft"
     class="ColorScheme-Highlight"
     transform="matrix(0,1,-0.66570362,0,646.22559,236.36218)">
    <rect
       style="opacity:0;fill:#e4e6e8"
       width="10"
       height="3"
       x="30"
       y="359.36"
       id="rect88" />
    <path
       style="fill:currentColor"
       d="m 39.999989,359.36221 v 2.99998 l -7.000108,0 z"
       id="path90"
       inkscape:connector-curvature="0"
       sodipodi:nodetypes="cccc" />
  </g>
  <g
     id="east-active-tab-bottomleft"
     transform="matrix(0,1,-0.66570362,0,646.22559,236.36218)"
     class="ColorScheme-Highlight">
    <rect
       style="opacity:0;fill:#e4e6e8"
       width="10"
       height="3"
       x="120"
       y="359.36"
       id="rect93" />
    <path
       style="fill:currentColor"
       d="m 119.99999,359.36221 6.99989,2.99998 -6.99989,0 z"
       id="path95"
       inkscape:connector-curvature="0"
       sodipodi:nodetypes="cccc" />
  </g>
</svg>
